<svg xmlns="http://www.w3.org/2000/svg" xmlns:xlink="http://www.w3.org/1999/xlink" width="600" height="400" viewBox="0 0 2400 1600">
<defs>
  <clipPath id="clip490">
    <rect x="0" y="0" width="2400" height="1600"></rect>
  </clipPath>
</defs>
<path clip-path="url(#clip490)" d="M0 1600 L2400 1600 L2400 8.88178e-14 L0 8.88178e-14  Z" fill="#ffffff" fill-rule="evenodd" fill-opacity="1"></path>
<defs>
  <clipPath id="clip491">
    <rect x="480" y="0" width="1681" height="1600"></rect>
  </clipPath>
</defs>
<path clip-path="url(#clip490)" d="M249.542 1423.18 L2352.76 1423.18 L2352.76 123.472 L249.542 123.472  Z" fill="#ffffff" fill-rule="evenodd" fill-opacity="1"></path>
<defs>
  <clipPath id="clip492">
    <rect x="249" y="123" width="2104" height="1301"></rect>
  </clipPath>
</defs>
<polyline clip-path="url(#clip492)" style="stroke:#000000; stroke-linecap:round; stroke-linejoin:round; stroke-width:2; stroke-opacity:0.1; fill:none" points="249.542,1423.18 249.542,123.472 "></polyline>
<polyline clip-path="url(#clip492)" style="stroke:#000000; stroke-linecap:round; stroke-linejoin:round; stroke-width:2; stroke-opacity:0.1; fill:none" points="775.346,1423.18 775.346,123.472 "></polyline>
<polyline clip-path="url(#clip492)" style="stroke:#000000; stroke-linecap:round; stroke-linejoin:round; stroke-width:2; stroke-opacity:0.1; fill:none" points="1301.15,1423.18 1301.15,123.472 "></polyline>
<polyline clip-path="url(#clip492)" style="stroke:#000000; stroke-linecap:round; stroke-linejoin:round; stroke-width:2; stroke-opacity:0.1; fill:none" points="1826.95,1423.18 1826.95,123.472 "></polyline>
<polyline clip-path="url(#clip492)" style="stroke:#000000; stroke-linecap:round; stroke-linejoin:round; stroke-width:2; stroke-opacity:0.1; fill:none" points="2352.76,1423.18 2352.76,123.472 "></polyline>
<polyline clip-path="url(#clip492)" style="stroke:#000000; stroke-linecap:round; stroke-linejoin:round; stroke-width:2; stroke-opacity:0.1; fill:none" points="249.542,1397.7 2352.76,1397.7 "></polyline>
<polyline clip-path="url(#clip492)" style="stroke:#000000; stroke-linecap:round; stroke-linejoin:round; stroke-width:2; stroke-opacity:0.1; fill:none" points="249.542,1079.14 2352.76,1079.14 "></polyline>
<polyline clip-path="url(#clip492)" style="stroke:#000000; stroke-linecap:round; stroke-linejoin:round; stroke-width:2; stroke-opacity:0.1; fill:none" points="249.542,760.584 2352.76,760.584 "></polyline>
<polyline clip-path="url(#clip492)" style="stroke:#000000; stroke-linecap:round; stroke-linejoin:round; stroke-width:2; stroke-opacity:0.1; fill:none" points="249.542,442.028 2352.76,442.028 "></polyline>
<polyline clip-path="url(#clip492)" style="stroke:#000000; stroke-linecap:round; stroke-linejoin:round; stroke-width:2; stroke-opacity:0.1; fill:none" points="249.542,123.472 2352.76,123.472 "></polyline>
<polyline clip-path="url(#clip490)" style="stroke:#000000; stroke-linecap:round; stroke-linejoin:round; stroke-width:4; stroke-opacity:1; fill:none" points="249.542,1423.18 2352.76,1423.18 "></polyline>
<polyline clip-path="url(#clip490)" style="stroke:#000000; stroke-linecap:round; stroke-linejoin:round; stroke-width:4; stroke-opacity:1; fill:none" points="249.542,1423.18 249.542,1404.28 "></polyline>
<polyline clip-path="url(#clip490)" style="stroke:#000000; stroke-linecap:round; stroke-linejoin:round; stroke-width:4; stroke-opacity:1; fill:none" points="775.346,1423.18 775.346,1404.28 "></polyline>
<polyline clip-path="url(#clip490)" style="stroke:#000000; stroke-linecap:round; stroke-linejoin:round; stroke-width:4; stroke-opacity:1; fill:none" points="1301.15,1423.18 1301.15,1404.28 "></polyline>
<polyline clip-path="url(#clip490)" style="stroke:#000000; stroke-linecap:round; stroke-linejoin:round; stroke-width:4; stroke-opacity:1; fill:none" points="1826.95,1423.18 1826.95,1404.28 "></polyline>
<polyline clip-path="url(#clip490)" style="stroke:#000000; stroke-linecap:round; stroke-linejoin:round; stroke-width:4; stroke-opacity:1; fill:none" points="2352.76,1423.18 2352.76,1404.28 "></polyline>
<path clip-path="url(#clip490)" d="M216.695 1481.64 L224.334 1481.64 L224.334 1455.28 L216.024 1456.95 L216.024 1452.69 L224.288 1451.02 L228.963 1451.02 L228.963 1481.64 L236.602 1481.64 L236.602 1485.58 L216.695 1485.58 L216.695 1481.64 Z" fill="#000000" fill-rule="nonzero" fill-opacity="1"></path><path clip-path="url(#clip490)" d="M246.047 1479.7 L250.931 1479.7 L250.931 1485.58 L246.047 1485.58 L246.047 1479.7 Z" fill="#000000" fill-rule="nonzero" fill-opacity="1"></path><path clip-path="url(#clip490)" d="M271.116 1454.1 Q267.505 1454.1 265.676 1457.66 Q263.871 1461.2 263.871 1468.33 Q263.871 1475.44 265.676 1479.01 Q267.505 1482.55 271.116 1482.55 Q274.75 1482.55 276.556 1479.01 Q278.384 1475.44 278.384 1468.33 Q278.384 1461.2 276.556 1457.66 Q274.75 1454.1 271.116 1454.1 M271.116 1450.39 Q276.926 1450.39 279.982 1455 Q283.06 1459.58 283.06 1468.33 Q283.06 1477.06 279.982 1481.67 Q276.926 1486.25 271.116 1486.25 Q265.306 1486.25 262.227 1481.67 Q259.172 1477.06 259.172 1468.33 Q259.172 1459.58 262.227 1455 Q265.306 1450.39 271.116 1450.39 Z" fill="#000000" fill-rule="nonzero" fill-opacity="1"></path><path clip-path="url(#clip490)" d="M742.996 1481.64 L750.635 1481.64 L750.635 1455.28 L742.325 1456.95 L742.325 1452.69 L750.589 1451.02 L755.265 1451.02 L755.265 1481.64 L762.903 1481.64 L762.903 1485.58 L742.996 1485.58 L742.996 1481.64 Z" fill="#000000" fill-rule="nonzero" fill-opacity="1"></path><path clip-path="url(#clip490)" d="M772.348 1479.7 L777.232 1479.7 L777.232 1485.58 L772.348 1485.58 L772.348 1479.7 Z" fill="#000000" fill-rule="nonzero" fill-opacity="1"></path><path clip-path="url(#clip490)" d="M787.463 1451.02 L805.82 1451.02 L805.82 1454.96 L791.746 1454.96 L791.746 1463.43 Q792.764 1463.08 793.783 1462.92 Q794.801 1462.73 795.82 1462.73 Q801.607 1462.73 804.987 1465.9 Q808.366 1469.08 808.366 1474.49 Q808.366 1480.07 804.894 1483.17 Q801.422 1486.25 795.102 1486.25 Q792.926 1486.25 790.658 1485.88 Q788.413 1485.51 786.005 1484.77 L786.005 1480.07 Q788.088 1481.2 790.311 1481.76 Q792.533 1482.32 795.01 1482.32 Q799.014 1482.32 801.352 1480.21 Q803.69 1478.1 803.69 1474.49 Q803.69 1470.88 801.352 1468.77 Q799.014 1466.67 795.01 1466.67 Q793.135 1466.67 791.26 1467.08 Q789.408 1467.5 787.463 1468.38 L787.463 1451.02 Z" fill="#000000" fill-rule="nonzero" fill-opacity="1"></path><path clip-path="url(#clip490)" d="M1272.39 1481.64 L1288.71 1481.64 L1288.71 1485.58 L1266.76 1485.58 L1266.76 1481.64 Q1269.42 1478.89 1274.01 1474.26 Q1278.61 1469.61 1279.79 1468.27 Q1282.04 1465.74 1282.92 1464.01 Q1283.82 1462.25 1283.82 1460.56 Q1283.82 1457.8 1281.88 1456.07 Q1279.96 1454.33 1276.86 1454.33 Q1274.66 1454.33 1272.2 1455.09 Q1269.77 1455.86 1266.99 1457.41 L1266.99 1452.69 Q1269.82 1451.55 1272.27 1450.97 Q1274.73 1450.39 1276.76 1450.39 Q1282.13 1450.39 1285.33 1453.08 Q1288.52 1455.77 1288.52 1460.26 Q1288.52 1462.39 1287.71 1464.31 Q1286.92 1466.2 1284.82 1468.8 Q1284.24 1469.47 1281.14 1472.69 Q1278.04 1475.88 1272.39 1481.64 Z" fill="#000000" fill-rule="nonzero" fill-opacity="1"></path><path clip-path="url(#clip490)" d="M1298.52 1479.7 L1303.41 1479.7 L1303.41 1485.58 L1298.52 1485.58 L1298.52 1479.7 Z" fill="#000000" fill-rule="nonzero" fill-opacity="1"></path><path clip-path="url(#clip490)" d="M1323.59 1454.1 Q1319.98 1454.1 1318.15 1457.66 Q1316.35 1461.2 1316.35 1468.33 Q1316.35 1475.44 1318.15 1479.01 Q1319.98 1482.55 1323.59 1482.55 Q1327.23 1482.55 1329.03 1479.01 Q1330.86 1475.44 1330.86 1468.33 Q1330.86 1461.2 1329.03 1457.66 Q1327.23 1454.1 1323.59 1454.1 M1323.59 1450.39 Q1329.4 1450.39 1332.46 1455 Q1335.54 1459.58 1335.54 1468.33 Q1335.54 1477.06 1332.46 1481.67 Q1329.4 1486.25 1323.59 1486.25 Q1317.78 1486.25 1314.7 1481.67 Q1311.65 1477.06 1311.65 1468.33 Q1311.65 1459.58 1314.7 1455 Q1317.78 1450.39 1323.59 1450.39 Z" fill="#000000" fill-rule="nonzero" fill-opacity="1"></path><path clip-path="url(#clip490)" d="M1798.69 1481.64 L1815.01 1481.64 L1815.01 1485.58 L1793.06 1485.58 L1793.06 1481.64 Q1795.73 1478.89 1800.31 1474.26 Q1804.92 1469.61 1806.1 1468.27 Q1808.34 1465.74 1809.22 1464.01 Q1810.12 1462.25 1810.12 1460.56 Q1810.12 1457.8 1808.18 1456.07 Q1806.26 1454.33 1803.16 1454.33 Q1800.96 1454.33 1798.5 1455.09 Q1796.07 1455.86 1793.3 1457.41 L1793.3 1452.69 Q1796.12 1451.55 1798.57 1450.97 Q1801.03 1450.39 1803.06 1450.39 Q1808.43 1450.39 1811.63 1453.08 Q1814.82 1455.77 1814.82 1460.26 Q1814.82 1462.39 1814.01 1464.31 Q1813.23 1466.2 1811.12 1468.8 Q1810.54 1469.47 1807.44 1472.69 Q1804.34 1475.88 1798.69 1481.64 Z" fill="#000000" fill-rule="nonzero" fill-opacity="1"></path><path clip-path="url(#clip490)" d="M1824.82 1479.7 L1829.71 1479.7 L1829.71 1485.58 L1824.82 1485.58 L1824.82 1479.7 Z" fill="#000000" fill-rule="nonzero" fill-opacity="1"></path><path clip-path="url(#clip490)" d="M1839.94 1451.02 L1858.29 1451.02 L1858.29 1454.96 L1844.22 1454.96 L1844.22 1463.43 Q1845.24 1463.08 1846.26 1462.92 Q1847.28 1462.73 1848.29 1462.73 Q1854.08 1462.73 1857.46 1465.9 Q1860.84 1469.08 1860.84 1474.49 Q1860.84 1480.07 1857.37 1483.17 Q1853.9 1486.25 1847.58 1486.25 Q1845.4 1486.25 1843.13 1485.88 Q1840.89 1485.51 1838.48 1484.77 L1838.48 1480.07 Q1840.56 1481.2 1842.79 1481.76 Q1845.01 1482.32 1847.48 1482.32 Q1851.49 1482.32 1853.83 1480.21 Q1856.17 1478.1 1856.17 1474.49 Q1856.17 1470.88 1853.83 1468.77 Q1851.49 1466.67 1847.48 1466.67 Q1845.61 1466.67 1843.73 1467.08 Q1841.88 1467.5 1839.94 1468.38 L1839.94 1451.02 Z" fill="#000000" fill-rule="nonzero" fill-opacity="1"></path><path clip-path="url(#clip490)" d="M2334.06 1466.95 Q2337.42 1467.66 2339.3 1469.93 Q2341.19 1472.2 2341.19 1475.53 Q2341.19 1480.65 2337.67 1483.45 Q2334.16 1486.25 2327.68 1486.25 Q2325.5 1486.25 2323.18 1485.81 Q2320.89 1485.39 2318.44 1484.54 L2318.44 1480.02 Q2320.38 1481.16 2322.7 1481.74 Q2325.01 1482.32 2327.54 1482.32 Q2331.93 1482.32 2334.23 1480.58 Q2336.54 1478.84 2336.54 1475.53 Q2336.54 1472.48 2334.39 1470.77 Q2332.26 1469.03 2328.44 1469.03 L2324.41 1469.03 L2324.41 1465.19 L2328.62 1465.19 Q2332.07 1465.19 2333.9 1463.82 Q2335.73 1462.43 2335.73 1459.84 Q2335.73 1457.18 2333.83 1455.77 Q2331.96 1454.33 2328.44 1454.33 Q2326.52 1454.33 2324.32 1454.75 Q2322.12 1455.16 2319.48 1456.04 L2319.48 1451.88 Q2322.14 1451.14 2324.46 1450.77 Q2326.8 1450.39 2328.86 1450.39 Q2334.18 1450.39 2337.28 1452.83 Q2340.38 1455.23 2340.38 1459.35 Q2340.38 1462.22 2338.74 1464.21 Q2337.1 1466.18 2334.06 1466.95 Z" fill="#000000" fill-rule="nonzero" fill-opacity="1"></path><path clip-path="url(#clip490)" d="M2350.06 1479.7 L2354.94 1479.7 L2354.94 1485.58 L2350.06 1485.58 L2350.06 1479.7 Z" fill="#000000" fill-rule="nonzero" fill-opacity="1"></path><path clip-path="url(#clip490)" d="M2375.13 1454.1 Q2371.52 1454.1 2369.69 1457.66 Q2367.88 1461.2 2367.88 1468.33 Q2367.88 1475.44 2369.69 1479.01 Q2371.52 1482.55 2375.13 1482.55 Q2378.76 1482.55 2380.57 1479.01 Q2382.4 1475.44 2382.4 1468.33 Q2382.4 1461.2 2380.57 1457.66 Q2378.76 1454.1 2375.13 1454.1 M2375.13 1450.39 Q2380.94 1450.39 2383.99 1455 Q2387.07 1459.58 2387.07 1468.33 Q2387.07 1477.06 2383.99 1481.67 Q2380.94 1486.25 2375.13 1486.25 Q2369.32 1486.25 2366.24 1481.67 Q2363.18 1477.06 2363.18 1468.33 Q2363.18 1459.58 2366.24 1455 Q2369.32 1450.39 2375.13 1450.39 Z" fill="#000000" fill-rule="nonzero" fill-opacity="1"></path><path clip-path="url(#clip490)" d="M1277.23 1532.4 L1283.09 1532.4 L1290.41 1560.21 L1297.7 1532.4 L1304.6 1532.4 L1311.92 1560.21 L1319.21 1532.4 L1325.07 1532.4 L1315.74 1568.04 L1308.84 1568.04 L1301.16 1538.83 L1293.46 1568.04 L1286.56 1568.04 L1277.23 1532.4 Z" fill="#000000" fill-rule="nonzero" fill-opacity="1"></path><polyline clip-path="url(#clip490)" style="stroke:#000000; stroke-linecap:round; stroke-linejoin:round; stroke-width:4; stroke-opacity:1; fill:none" points="249.542,1423.18 249.542,123.472 "></polyline>
<polyline clip-path="url(#clip490)" style="stroke:#000000; stroke-linecap:round; stroke-linejoin:round; stroke-width:4; stroke-opacity:1; fill:none" points="249.542,1397.7 268.44,1397.7 "></polyline>
<polyline clip-path="url(#clip490)" style="stroke:#000000; stroke-linecap:round; stroke-linejoin:round; stroke-width:4; stroke-opacity:1; fill:none" points="249.542,1079.14 268.44,1079.14 "></polyline>
<polyline clip-path="url(#clip490)" style="stroke:#000000; stroke-linecap:round; stroke-linejoin:round; stroke-width:4; stroke-opacity:1; fill:none" points="249.542,760.584 268.44,760.584 "></polyline>
<polyline clip-path="url(#clip490)" style="stroke:#000000; stroke-linecap:round; stroke-linejoin:round; stroke-width:4; stroke-opacity:1; fill:none" points="249.542,442.028 268.44,442.028 "></polyline>
<polyline clip-path="url(#clip490)" style="stroke:#000000; stroke-linecap:round; stroke-linejoin:round; stroke-width:4; stroke-opacity:1; fill:none" points="249.542,123.472 268.44,123.472 "></polyline>
<path clip-path="url(#clip490)" d="M126.205 1383.49 Q122.593 1383.49 120.765 1387.06 Q118.959 1390.6 118.959 1397.73 Q118.959 1404.84 120.765 1408.4 Q122.593 1411.94 126.205 1411.94 Q129.839 1411.94 131.644 1408.4 Q133.473 1404.84 133.473 1397.73 Q133.473 1390.6 131.644 1387.06 Q129.839 1383.49 126.205 1383.49 M126.205 1379.79 Q132.015 1379.79 135.07 1384.4 Q138.149 1388.98 138.149 1397.73 Q138.149 1406.46 135.07 1411.06 Q132.015 1415.65 126.205 1415.65 Q120.394 1415.65 117.316 1411.06 Q114.26 1406.46 114.26 1397.73 Q114.26 1388.98 117.316 1384.4 Q120.394 1379.79 126.205 1379.79 Z" fill="#000000" fill-rule="nonzero" fill-opacity="1"></path><path clip-path="url(#clip490)" d="M146.366 1409.1 L151.251 1409.1 L151.251 1414.98 L146.366 1414.98 L146.366 1409.1 Z" fill="#000000" fill-rule="nonzero" fill-opacity="1"></path><path clip-path="url(#clip490)" d="M171.436 1383.49 Q167.825 1383.49 165.996 1387.06 Q164.19 1390.6 164.19 1397.73 Q164.19 1404.84 165.996 1408.4 Q167.825 1411.94 171.436 1411.94 Q175.07 1411.94 176.876 1408.4 Q178.704 1404.84 178.704 1397.73 Q178.704 1390.6 176.876 1387.06 Q175.07 1383.49 171.436 1383.49 M171.436 1379.79 Q177.246 1379.79 180.301 1384.4 Q183.38 1388.98 183.38 1397.73 Q183.38 1406.46 180.301 1411.06 Q177.246 1415.65 171.436 1415.65 Q165.626 1415.65 162.547 1411.06 Q159.491 1406.46 159.491 1397.73 Q159.491 1388.98 162.547 1384.4 Q165.626 1379.79 171.436 1379.79 Z" fill="#000000" fill-rule="nonzero" fill-opacity="1"></path><path clip-path="url(#clip490)" d="M201.598 1383.49 Q197.987 1383.49 196.158 1387.06 Q194.352 1390.6 194.352 1397.73 Q194.352 1404.84 196.158 1408.4 Q197.987 1411.94 201.598 1411.94 Q205.232 1411.94 207.037 1408.4 Q208.866 1404.84 208.866 1397.73 Q208.866 1390.6 207.037 1387.06 Q205.232 1383.49 201.598 1383.49 M201.598 1379.79 Q207.408 1379.79 210.463 1384.4 Q213.542 1388.98 213.542 1397.73 Q213.542 1406.46 210.463 1411.06 Q207.408 1415.65 201.598 1415.65 Q195.787 1415.65 192.709 1411.06 Q189.653 1406.46 189.653 1397.73 Q189.653 1388.98 192.709 1384.4 Q195.787 1379.79 201.598 1379.79 Z" fill="#000000" fill-rule="nonzero" fill-opacity="1"></path><path clip-path="url(#clip490)" d="M127.2 1064.94 Q123.589 1064.94 121.76 1068.5 Q119.955 1072.04 119.955 1079.17 Q119.955 1086.28 121.76 1089.85 Q123.589 1093.39 127.2 1093.39 Q130.834 1093.39 132.64 1089.85 Q134.468 1086.28 134.468 1079.17 Q134.468 1072.04 132.64 1068.5 Q130.834 1064.94 127.2 1064.94 M127.2 1061.23 Q133.01 1061.23 136.066 1065.84 Q139.144 1070.42 139.144 1079.17 Q139.144 1087.9 136.066 1092.51 Q133.01 1097.09 127.2 1097.09 Q121.39 1097.09 118.311 1092.51 Q115.256 1087.9 115.256 1079.17 Q115.256 1070.42 118.311 1065.84 Q121.39 1061.23 127.2 1061.23 Z" fill="#000000" fill-rule="nonzero" fill-opacity="1"></path><path clip-path="url(#clip490)" d="M147.362 1090.54 L152.246 1090.54 L152.246 1096.42 L147.362 1096.42 L147.362 1090.54 Z" fill="#000000" fill-rule="nonzero" fill-opacity="1"></path><path clip-path="url(#clip490)" d="M166.459 1092.48 L182.778 1092.48 L182.778 1096.42 L160.834 1096.42 L160.834 1092.48 Q163.496 1089.73 168.079 1085.1 Q172.686 1080.45 173.866 1079.1 Q176.112 1076.58 176.991 1074.85 Q177.894 1073.09 177.894 1071.4 Q177.894 1068.64 175.95 1066.91 Q174.028 1065.17 170.927 1065.17 Q168.727 1065.17 166.274 1065.93 Q163.843 1066.7 161.065 1068.25 L161.065 1063.53 Q163.89 1062.39 166.343 1061.81 Q168.797 1061.23 170.834 1061.23 Q176.204 1061.23 179.399 1063.92 Q182.593 1066.6 182.593 1071.1 Q182.593 1073.23 181.783 1075.15 Q180.996 1077.04 178.889 1079.64 Q178.311 1080.31 175.209 1083.53 Q172.107 1086.72 166.459 1092.48 Z" fill="#000000" fill-rule="nonzero" fill-opacity="1"></path><path clip-path="url(#clip490)" d="M192.639 1061.86 L210.996 1061.86 L210.996 1065.79 L196.922 1065.79 L196.922 1074.27 Q197.94 1073.92 198.959 1073.76 Q199.977 1073.57 200.996 1073.57 Q206.783 1073.57 210.162 1076.74 Q213.542 1079.92 213.542 1085.33 Q213.542 1090.91 210.07 1094.01 Q206.598 1097.09 200.278 1097.09 Q198.102 1097.09 195.834 1096.72 Q193.588 1096.35 191.181 1095.61 L191.181 1090.91 Q193.264 1092.04 195.487 1092.6 Q197.709 1093.16 200.186 1093.16 Q204.19 1093.16 206.528 1091.05 Q208.866 1088.94 208.866 1085.33 Q208.866 1081.72 206.528 1079.61 Q204.19 1077.51 200.186 1077.51 Q198.311 1077.51 196.436 1077.92 Q194.584 1078.34 192.639 1079.22 L192.639 1061.86 Z" fill="#000000" fill-rule="nonzero" fill-opacity="1"></path><path clip-path="url(#clip490)" d="M126.205 746.382 Q122.593 746.382 120.765 749.947 Q118.959 753.489 118.959 760.618 Q118.959 767.725 120.765 771.29 Q122.593 774.831 126.205 774.831 Q129.839 774.831 131.644 771.29 Q133.473 767.725 133.473 760.618 Q133.473 753.489 131.644 749.947 Q129.839 746.382 126.205 746.382 M126.205 742.679 Q132.015 742.679 135.07 747.285 Q138.149 751.869 138.149 760.618 Q138.149 769.345 135.07 773.952 Q132.015 778.535 126.205 778.535 Q120.394 778.535 117.316 773.952 Q114.26 769.345 114.26 760.618 Q114.26 751.869 117.316 747.285 Q120.394 742.679 126.205 742.679 Z" fill="#000000" fill-rule="nonzero" fill-opacity="1"></path><path clip-path="url(#clip490)" d="M146.366 771.984 L151.251 771.984 L151.251 777.864 L146.366 777.864 L146.366 771.984 Z" fill="#000000" fill-rule="nonzero" fill-opacity="1"></path><path clip-path="url(#clip490)" d="M161.482 743.304 L179.839 743.304 L179.839 747.239 L165.765 747.239 L165.765 755.711 Q166.783 755.364 167.802 755.202 Q168.82 755.017 169.839 755.017 Q175.626 755.017 179.005 758.188 Q182.385 761.359 182.385 766.776 Q182.385 772.355 178.913 775.456 Q175.44 778.535 169.121 778.535 Q166.945 778.535 164.677 778.165 Q162.431 777.794 160.024 777.054 L160.024 772.355 Q162.107 773.489 164.329 774.044 Q166.552 774.6 169.028 774.6 Q173.033 774.6 175.371 772.493 Q177.709 770.387 177.709 766.776 Q177.709 763.165 175.371 761.058 Q173.033 758.952 169.028 758.952 Q167.153 758.952 165.278 759.368 Q163.427 759.785 161.482 760.665 L161.482 743.304 Z" fill="#000000" fill-rule="nonzero" fill-opacity="1"></path><path clip-path="url(#clip490)" d="M201.598 746.382 Q197.987 746.382 196.158 749.947 Q194.352 753.489 194.352 760.618 Q194.352 767.725 196.158 771.29 Q197.987 774.831 201.598 774.831 Q205.232 774.831 207.037 771.29 Q208.866 767.725 208.866 760.618 Q208.866 753.489 207.037 749.947 Q205.232 746.382 201.598 746.382 M201.598 742.679 Q207.408 742.679 210.463 747.285 Q213.542 751.869 213.542 760.618 Q213.542 769.345 210.463 773.952 Q207.408 778.535 201.598 778.535 Q195.787 778.535 192.709 773.952 Q189.653 769.345 189.653 760.618 Q189.653 751.869 192.709 747.285 Q195.787 742.679 201.598 742.679 Z" fill="#000000" fill-rule="nonzero" fill-opacity="1"></path><path clip-path="url(#clip490)" d="M127.2 427.827 Q123.589 427.827 121.76 431.391 Q119.955 434.933 119.955 442.063 Q119.955 449.169 121.76 452.734 Q123.589 456.276 127.2 456.276 Q130.834 456.276 132.64 452.734 Q134.468 449.169 134.468 442.063 Q134.468 434.933 132.64 431.391 Q130.834 427.827 127.2 427.827 M127.2 424.123 Q133.01 424.123 136.066 428.729 Q139.144 433.313 139.144 442.063 Q139.144 450.789 136.066 455.396 Q133.01 459.979 127.2 459.979 Q121.39 459.979 118.311 455.396 Q115.256 450.789 115.256 442.063 Q115.256 433.313 118.311 428.729 Q121.39 424.123 127.2 424.123 Z" fill="#000000" fill-rule="nonzero" fill-opacity="1"></path><path clip-path="url(#clip490)" d="M147.362 453.428 L152.246 453.428 L152.246 459.308 L147.362 459.308 L147.362 453.428 Z" fill="#000000" fill-rule="nonzero" fill-opacity="1"></path><path clip-path="url(#clip490)" d="M161.251 424.748 L183.473 424.748 L183.473 426.739 L170.927 459.308 L166.042 459.308 L177.848 428.683 L161.251 428.683 L161.251 424.748 Z" fill="#000000" fill-rule="nonzero" fill-opacity="1"></path><path clip-path="url(#clip490)" d="M192.639 424.748 L210.996 424.748 L210.996 428.683 L196.922 428.683 L196.922 437.155 Q197.94 436.808 198.959 436.646 Q199.977 436.461 200.996 436.461 Q206.783 436.461 210.162 439.632 Q213.542 442.803 213.542 448.22 Q213.542 453.799 210.07 456.901 Q206.598 459.979 200.278 459.979 Q198.102 459.979 195.834 459.609 Q193.588 459.238 191.181 458.498 L191.181 453.799 Q193.264 454.933 195.487 455.489 Q197.709 456.044 200.186 456.044 Q204.19 456.044 206.528 453.938 Q208.866 451.831 208.866 448.22 Q208.866 444.609 206.528 442.502 Q204.19 440.396 200.186 440.396 Q198.311 440.396 196.436 440.813 Q194.584 441.229 192.639 442.109 L192.639 424.748 Z" fill="#000000" fill-rule="nonzero" fill-opacity="1"></path><path clip-path="url(#clip490)" d="M117.015 136.817 L124.654 136.817 L124.654 110.451 L116.343 112.118 L116.343 107.859 L124.607 106.192 L129.283 106.192 L129.283 136.817 L136.922 136.817 L136.922 140.752 L117.015 140.752 L117.015 136.817 Z" fill="#000000" fill-rule="nonzero" fill-opacity="1"></path><path clip-path="url(#clip490)" d="M146.366 134.873 L151.251 134.873 L151.251 140.752 L146.366 140.752 L146.366 134.873 Z" fill="#000000" fill-rule="nonzero" fill-opacity="1"></path><path clip-path="url(#clip490)" d="M171.436 109.271 Q167.825 109.271 165.996 112.836 Q164.19 116.377 164.19 123.507 Q164.19 130.613 165.996 134.178 Q167.825 137.72 171.436 137.72 Q175.07 137.72 176.876 134.178 Q178.704 130.613 178.704 123.507 Q178.704 116.377 176.876 112.836 Q175.07 109.271 171.436 109.271 M171.436 105.567 Q177.246 105.567 180.301 110.174 Q183.38 114.757 183.38 123.507 Q183.38 132.234 180.301 136.84 Q177.246 141.423 171.436 141.423 Q165.626 141.423 162.547 136.84 Q159.491 132.234 159.491 123.507 Q159.491 114.757 162.547 110.174 Q165.626 105.567 171.436 105.567 Z" fill="#000000" fill-rule="nonzero" fill-opacity="1"></path><path clip-path="url(#clip490)" d="M201.598 109.271 Q197.987 109.271 196.158 112.836 Q194.352 116.377 194.352 123.507 Q194.352 130.613 196.158 134.178 Q197.987 137.72 201.598 137.72 Q205.232 137.72 207.037 134.178 Q208.866 130.613 208.866 123.507 Q208.866 116.377 207.037 112.836 Q205.232 109.271 201.598 109.271 M201.598 105.567 Q207.408 105.567 210.463 110.174 Q213.542 114.757 213.542 123.507 Q213.542 132.234 210.463 136.84 Q207.408 141.423 201.598 141.423 Q195.787 141.423 192.709 136.84 Q189.653 132.234 189.653 123.507 Q189.653 114.757 192.709 110.174 Q195.787 105.567 201.598 105.567 Z" fill="#000000" fill-rule="nonzero" fill-opacity="1"></path><path clip-path="url(#clip490)" d="M22.818 822.883 L46.4666 831.604 L46.4666 814.13 L22.818 822.883 M16.4842 826.511 L16.4842 819.223 L64.0042 801.112 L64.0042 807.796 L51.8138 812.125 L51.8138 833.546 L64.0042 837.874 L64.0042 844.654 L16.4842 826.511 Z" fill="#000000" fill-rule="nonzero" fill-opacity="1"></path><path clip-path="url(#clip490)" d="M14.5426 780.36 Q21.8632 784.625 29.0246 786.694 Q36.186 788.763 43.5384 788.763 Q50.8908 788.763 58.1159 786.694 Q65.3091 784.593 72.5979 780.36 L72.5979 785.453 Q65.1182 790.227 57.8931 792.614 Q50.668 794.969 43.5384 794.969 Q36.4406 794.969 29.2474 792.614 Q22.0542 790.259 14.5426 785.453 L14.5426 780.36 Z" fill="#000000" fill-rule="nonzero" fill-opacity="1"></path><path clip-path="url(#clip490)" d="M28.3562 772.403 L28.3562 766.547 L56.1743 759.226 L28.3562 751.937 L28.3562 745.03 L56.1743 737.71 L28.3562 730.421 L28.3562 724.565 L64.0042 733.89 L64.0042 740.797 L34.7856 748.468 L64.0042 756.17 L64.0042 763.077 L28.3562 772.403 Z" fill="#000000" fill-rule="nonzero" fill-opacity="1"></path><path clip-path="url(#clip490)" d="M14.5426 716.608 L14.5426 711.515 Q22.0542 706.741 29.2474 704.385 Q36.4406 701.998 43.5384 701.998 Q50.668 701.998 57.8931 704.385 Q65.1182 706.741 72.5979 711.515 L72.5979 716.608 Q65.3091 712.374 58.1159 710.305 Q50.8908 708.205 43.5384 708.205 Q36.186 708.205 29.0246 710.305 Q21.8632 712.374 14.5426 716.608 Z" fill="#000000" fill-rule="nonzero" fill-opacity="1"></path><path clip-path="url(#clip490)" d="M970.838 14.0809 L970.838 22.0612 Q966.18 19.8332 962.048 18.7395 Q957.916 17.6457 954.067 17.6457 Q947.384 17.6457 943.738 20.2383 Q940.132 22.8309 940.132 27.611 Q940.132 31.6214 942.522 33.6873 Q944.953 35.7128 951.677 36.9686 L956.62 37.9813 Q965.775 39.7232 970.109 44.1387 Q974.484 48.5136 974.484 55.8863 Q974.484 64.6767 968.57 69.2137 Q962.696 73.7508 951.313 73.7508 Q947.019 73.7508 942.158 72.7785 Q937.337 71.8063 932.152 69.9024 L932.152 61.4765 Q937.135 64.2716 941.915 65.6895 Q946.695 67.1073 951.313 67.1073 Q958.321 67.1073 962.129 64.3527 Q965.937 61.598 965.937 56.4939 Q965.937 52.0379 963.182 49.5264 Q960.468 47.0148 954.23 45.759 L949.247 44.7868 Q940.092 42.9639 936 39.075 Q931.909 35.1862 931.909 28.2591 Q931.909 20.2383 937.54 15.6203 Q943.211 11.0023 953.136 11.0023 Q957.389 11.0023 961.805 11.7719 Q966.22 12.5416 970.838 14.0809 Z" fill="#000000" fill-rule="nonzero" fill-opacity="1"></path><path clip-path="url(#clip490)" d="M1023.5 14.0809 L1023.5 22.0612 Q1018.84 19.8332 1014.71 18.7395 Q1010.58 17.6457 1006.73 17.6457 Q1000.05 17.6457 996.399 20.2383 Q992.794 22.8309 992.794 27.611 Q992.794 31.6214 995.184 33.6873 Q997.615 35.7128 1004.34 36.9686 L1009.28 37.9813 Q1018.44 39.7232 1022.77 44.1387 Q1027.15 48.5136 1027.15 55.8863 Q1027.15 64.6767 1021.23 69.2137 Q1015.36 73.7508 1003.97 73.7508 Q999.681 73.7508 994.82 72.7785 Q989.999 71.8063 984.814 69.9024 L984.814 61.4765 Q989.796 64.2716 994.577 65.6895 Q999.357 67.1073 1003.97 67.1073 Q1010.98 67.1073 1014.79 64.3527 Q1018.6 61.598 1018.6 56.4939 Q1018.6 52.0379 1015.84 49.5264 Q1013.13 47.0148 1006.89 45.759 L1001.91 44.7868 Q992.754 42.9639 988.662 39.075 Q984.571 35.1862 984.571 28.2591 Q984.571 20.2383 990.202 15.6203 Q995.873 11.0023 1005.8 11.0023 Q1010.05 11.0023 1014.47 11.7719 Q1018.88 12.5416 1023.5 14.0809 Z" fill="#000000" fill-rule="nonzero" fill-opacity="1"></path><path clip-path="url(#clip490)" d="M1039.91 12.096 L1048.09 12.096 L1048.09 37.6572 L1075.23 12.096 L1085.76 12.096 L1055.75 40.2903 L1087.91 72.576 L1077.13 72.576 L1048.09 43.45 L1048.09 72.576 L1039.91 72.576 L1039.91 12.096 Z" fill="#000000" fill-rule="nonzero" fill-opacity="1"></path><path clip-path="url(#clip490)" d="M1143.33 9.54393 L1143.33 15.7418 L1136.2 15.7418 Q1132.19 15.7418 1130.61 17.3622 Q1129.07 18.9825 1129.07 23.1955 L1129.07 27.2059 L1141.34 27.2059 L1141.34 32.9987 L1129.07 32.9987 L1129.07 72.576 L1121.57 72.576 L1121.57 32.9987 L1114.44 32.9987 L1114.44 27.2059 L1121.57 27.2059 L1121.57 24.0462 Q1121.57 16.471 1125.1 13.0277 Q1128.62 9.54393 1136.28 9.54393 L1143.33 9.54393 Z" fill="#000000" fill-rule="nonzero" fill-opacity="1"></path><path clip-path="url(#clip490)" d="M1167.15 32.4315 Q1161.15 32.4315 1157.67 37.1306 Q1154.18 41.7891 1154.18 49.9314 Q1154.18 58.0738 1157.63 62.7728 Q1161.11 67.4314 1167.15 67.4314 Q1173.1 67.4314 1176.58 62.7323 Q1180.07 58.0333 1180.07 49.9314 Q1180.07 41.8701 1176.58 37.1711 Q1173.1 32.4315 1167.15 32.4315 M1167.15 26.1121 Q1176.87 26.1121 1182.42 32.4315 Q1187.97 38.7509 1187.97 49.9314 Q1187.97 61.0714 1182.42 67.4314 Q1176.87 73.7508 1167.15 73.7508 Q1157.38 73.7508 1151.83 67.4314 Q1146.32 61.0714 1146.32 49.9314 Q1146.32 38.7509 1151.83 32.4315 Q1157.38 26.1121 1167.15 26.1121 Z" fill="#000000" fill-rule="nonzero" fill-opacity="1"></path><path clip-path="url(#clip490)" d="M1226.61 34.1734 Q1225.36 33.4443 1223.86 33.1202 Q1222.4 32.7556 1220.62 32.7556 Q1214.3 32.7556 1210.89 36.8875 Q1207.53 40.9789 1207.53 48.6757 L1207.53 72.576 L1200.04 72.576 L1200.04 27.2059 L1207.53 27.2059 L1207.53 34.2544 Q1209.88 30.1225 1213.65 28.1376 Q1217.42 26.1121 1222.8 26.1121 Q1223.57 26.1121 1224.51 26.2337 Q1225.44 26.3147 1226.57 26.5172 L1226.61 34.1734 Z" fill="#000000" fill-rule="nonzero" fill-opacity="1"></path><path clip-path="url(#clip490)" d="M1290.66 34.0924 L1290.66 9.54393 L1298.11 9.54393 L1298.11 72.576 L1290.66 72.576 L1290.66 65.7705 Q1288.31 69.8214 1284.7 71.8063 Q1281.14 73.7508 1276.11 73.7508 Q1267.89 73.7508 1262.71 67.1883 Q1257.56 60.6258 1257.56 49.9314 Q1257.56 39.2371 1262.71 32.6746 Q1267.89 26.1121 1276.11 26.1121 Q1281.14 26.1121 1284.7 28.0971 Q1288.31 30.0415 1290.66 34.0924 M1265.26 49.9314 Q1265.26 58.1548 1268.62 62.8538 Q1272.02 67.5124 1277.94 67.5124 Q1283.85 67.5124 1287.25 62.8538 Q1290.66 58.1548 1290.66 49.9314 Q1290.66 41.7081 1287.25 37.0496 Q1283.85 32.3505 1277.94 32.3505 Q1272.02 32.3505 1268.62 37.0496 Q1265.26 41.7081 1265.26 49.9314 Z" fill="#000000" fill-rule="nonzero" fill-opacity="1"></path><path clip-path="url(#clip490)" d="M1352.27 48.0275 L1352.27 51.6733 L1318 51.6733 Q1318.49 59.3701 1322.62 63.421 Q1326.79 67.4314 1334.2 67.4314 Q1338.5 67.4314 1342.51 66.3781 Q1346.56 65.3249 1350.53 63.2184 L1350.53 70.267 Q1346.52 71.9684 1342.31 72.8596 Q1338.09 73.7508 1333.76 73.7508 Q1322.9 73.7508 1316.54 67.4314 Q1310.22 61.1119 1310.22 50.3365 Q1310.22 39.1965 1316.22 32.6746 Q1322.25 26.1121 1332.46 26.1121 Q1341.62 26.1121 1346.92 32.0264 Q1352.27 37.9003 1352.27 48.0275 M1344.82 45.84 Q1344.74 39.7232 1341.37 36.0774 Q1338.05 32.4315 1332.54 32.4315 Q1326.31 32.4315 1322.54 35.9558 Q1318.81 39.4801 1318.24 45.8805 L1344.82 45.84 Z" fill="#000000" fill-rule="nonzero" fill-opacity="1"></path><path clip-path="url(#clip490)" d="M1364.51 9.54393 L1371.96 9.54393 L1371.96 72.576 L1364.51 72.576 L1364.51 9.54393 Z" fill="#000000" fill-rule="nonzero" fill-opacity="1"></path><path clip-path="url(#clip490)" d="M1394.93 14.324 L1394.93 27.2059 L1410.28 27.2059 L1410.28 32.9987 L1394.93 32.9987 L1394.93 57.6282 Q1394.93 63.1779 1396.43 64.7578 Q1397.97 66.3376 1402.62 66.3376 L1410.28 66.3376 L1410.28 72.576 L1402.62 72.576 Q1394 72.576 1390.71 69.3758 Q1387.43 66.1351 1387.43 57.6282 L1387.43 32.9987 L1381.96 32.9987 L1381.96 27.2059 L1387.43 27.2059 L1387.43 14.324 L1394.93 14.324 Z" fill="#000000" fill-rule="nonzero" fill-opacity="1"></path><path clip-path="url(#clip490)" d="M1440.7 49.7694 Q1431.67 49.7694 1428.19 51.8354 Q1424.7 53.9013 1424.7 58.8839 Q1424.7 62.8538 1427.29 65.2034 Q1429.93 67.5124 1434.42 67.5124 Q1440.62 67.5124 1444.35 63.1374 Q1448.12 58.7219 1448.12 51.4303 L1448.12 49.7694 L1440.7 49.7694 M1455.57 46.6907 L1455.57 72.576 L1448.12 72.576 L1448.12 65.6895 Q1445.56 69.8214 1441.76 71.8063 Q1437.95 73.7508 1432.44 73.7508 Q1425.47 73.7508 1421.34 69.8619 Q1417.25 65.9325 1417.25 59.3701 Q1417.25 51.7138 1422.35 47.825 Q1427.5 43.9361 1437.66 43.9361 L1448.12 43.9361 L1448.12 43.2069 Q1448.12 38.0623 1444.71 35.2672 Q1441.35 32.4315 1435.23 32.4315 Q1431.35 32.4315 1427.66 33.3632 Q1423.97 34.295 1420.57 36.1584 L1420.57 29.2718 Q1424.66 27.692 1428.51 26.9223 Q1432.36 26.1121 1436 26.1121 Q1445.85 26.1121 1450.71 31.2163 Q1455.57 36.3204 1455.57 46.6907 Z" fill="#000000" fill-rule="nonzero" fill-opacity="1"></path><path clip-path="url(#clip490)" d="M1504.67 14.324 L1504.67 27.2059 L1520.02 27.2059 L1520.02 32.9987 L1504.67 32.9987 L1504.67 57.6282 Q1504.67 63.1779 1506.17 64.7578 Q1507.7 66.3376 1512.36 66.3376 L1520.02 66.3376 L1520.02 72.576 L1512.36 72.576 Q1503.73 72.576 1500.45 69.3758 Q1497.17 66.1351 1497.17 57.6282 L1497.17 32.9987 L1491.7 32.9987 L1491.7 27.2059 L1497.17 27.2059 L1497.17 14.324 L1504.67 14.324 Z" fill="#000000" fill-rule="nonzero" fill-opacity="1"></path><path clip-path="url(#clip490)" d="M1548.7 76.7889 Q1545.54 84.8907 1542.54 87.3618 Q1539.54 89.8329 1534.52 89.8329 L1528.57 89.8329 L1528.57 83.5945 L1532.94 83.5945 Q1536.02 83.5945 1537.72 82.1361 Q1539.42 80.6778 1541.49 75.2496 L1542.83 71.8468 L1524.48 27.2059 L1532.37 27.2059 L1546.55 62.6918 L1560.73 27.2059 L1568.63 27.2059 L1548.7 76.7889 Z" fill="#000000" fill-rule="nonzero" fill-opacity="1"></path><path clip-path="url(#clip490)" d="M1586.13 65.7705 L1586.13 89.8329 L1578.64 89.8329 L1578.64 27.2059 L1586.13 27.2059 L1586.13 34.0924 Q1588.48 30.0415 1592.04 28.0971 Q1595.65 26.1121 1600.63 26.1121 Q1608.9 26.1121 1614.04 32.6746 Q1619.23 39.2371 1619.23 49.9314 Q1619.23 60.6258 1614.04 67.1883 Q1608.9 73.7508 1600.63 73.7508 Q1595.65 73.7508 1592.04 71.8063 Q1588.48 69.8214 1586.13 65.7705 M1611.49 49.9314 Q1611.49 41.7081 1608.09 37.0496 Q1604.72 32.3505 1598.81 32.3505 Q1592.9 32.3505 1589.49 37.0496 Q1586.13 41.7081 1586.13 49.9314 Q1586.13 58.1548 1589.49 62.8538 Q1592.9 67.5124 1598.81 67.5124 Q1604.72 67.5124 1608.09 62.8538 Q1611.49 58.1548 1611.49 49.9314 Z" fill="#000000" fill-rule="nonzero" fill-opacity="1"></path><path clip-path="url(#clip490)" d="M1670.39 48.0275 L1670.39 51.6733 L1636.12 51.6733 Q1636.6 59.3701 1640.74 63.421 Q1644.91 67.4314 1652.32 67.4314 Q1656.62 67.4314 1660.63 66.3781 Q1664.68 65.3249 1668.65 63.2184 L1668.65 70.267 Q1664.64 71.9684 1660.42 72.8596 Q1656.21 73.7508 1651.88 73.7508 Q1641.02 73.7508 1634.66 67.4314 Q1628.34 61.1119 1628.34 50.3365 Q1628.34 39.1965 1634.34 32.6746 Q1640.37 26.1121 1650.58 26.1121 Q1659.74 26.1121 1665.04 32.0264 Q1670.39 37.9003 1670.39 48.0275 M1662.94 45.84 Q1662.85 39.7232 1659.49 36.0774 Q1656.17 32.4315 1650.66 32.4315 Q1644.42 32.4315 1640.66 35.9558 Q1636.93 39.4801 1636.36 45.8805 L1662.94 45.84 Z" fill="#000000" fill-rule="nonzero" fill-opacity="1"></path><circle clip-path="url(#clip492)" cx="688.584" cy="1397.7" r="14.4" fill="#ff0000" fill-rule="evenodd" fill-opacity="1" stroke="#000000" stroke-opacity="1" stroke-width="3.2"></circle>
<circle clip-path="url(#clip492)" cx="1344.42" cy="1397.7" r="14.4" fill="#ff0000" fill-rule="evenodd" fill-opacity="1" stroke="#000000" stroke-opacity="1" stroke-width="3.2"></circle>
<circle clip-path="url(#clip492)" cx="688.36" cy="1372.21" r="10.8" fill="#0000ff" fill-rule="evenodd" fill-opacity="1" stroke="#000000" stroke-opacity="1" stroke-width="3.2"></circle>
<circle clip-path="url(#clip492)" cx="1355.92" cy="1372.21" r="10.8" fill="#0000ff" fill-rule="evenodd" fill-opacity="1" stroke="#000000" stroke-opacity="1" stroke-width="3.2"></circle>
<path clip-path="url(#clip490)" d="M1405.71 322.316 L2282.65 322.316 L2282.65 166.796 L1405.71 166.796  Z" fill="#ffffff" fill-rule="evenodd" fill-opacity="1"></path>
<polyline clip-path="url(#clip490)" style="stroke:#000000; stroke-linecap:round; stroke-linejoin:round; stroke-width:4; stroke-opacity:1; fill:none" points="1405.71,322.316 2282.65,322.316 2282.65,166.796 1405.71,166.796 1405.71,322.316 "></polyline>
<circle clip-path="url(#clip490)" cx="1499.19" cy="218.636" r="20.48" fill="#ff0000" fill-rule="evenodd" fill-opacity="1" stroke="#000000" stroke-opacity="1" stroke-width="4.55111"></circle>
<path clip-path="url(#clip490)" d="M1604.56 212.976 Q1601.14 212.976 1599.14 215.661 Q1597.15 218.323 1597.15 222.976 Q1597.15 227.629 1599.12 230.314 Q1601.11 232.976 1604.56 232.976 Q1607.96 232.976 1609.95 230.291 Q1611.95 227.606 1611.95 222.976 Q1611.95 218.37 1609.95 215.684 Q1607.96 212.976 1604.56 212.976 M1604.56 209.365 Q1610.12 209.365 1613.29 212.976 Q1616.46 216.587 1616.46 222.976 Q1616.46 229.342 1613.29 232.976 Q1610.12 236.587 1604.56 236.587 Q1598.98 236.587 1595.81 232.976 Q1592.66 229.342 1592.66 222.976 Q1592.66 216.587 1595.81 212.976 Q1598.98 209.365 1604.56 209.365 Z" fill="#000000" fill-rule="nonzero" fill-opacity="1"></path><path clip-path="url(#clip490)" d="M1638.54 213.971 Q1637.82 213.555 1636.97 213.37 Q1636.13 213.161 1635.12 213.161 Q1631.51 213.161 1629.56 215.522 Q1627.64 217.86 1627.64 222.258 L1627.64 235.916 L1623.36 235.916 L1623.36 209.99 L1627.64 209.99 L1627.64 214.018 Q1628.98 211.657 1631.13 210.522 Q1633.29 209.365 1636.37 209.365 Q1636.81 209.365 1637.34 209.434 Q1637.87 209.481 1638.52 209.596 L1638.54 213.971 Z" fill="#000000" fill-rule="nonzero" fill-opacity="1"></path><path clip-path="url(#clip490)" d="M1643.01 209.99 L1647.27 209.99 L1647.27 235.916 L1643.01 235.916 L1643.01 209.99 M1643.01 199.897 L1647.27 199.897 L1647.27 205.291 L1643.01 205.291 L1643.01 199.897 Z" fill="#000000" fill-rule="nonzero" fill-opacity="1"></path><path clip-path="url(#clip490)" d="M1673.24 222.652 Q1673.24 218.022 1671.32 215.476 Q1669.42 212.93 1665.97 212.93 Q1662.55 212.93 1660.63 215.476 Q1658.73 218.022 1658.73 222.652 Q1658.73 227.258 1660.63 229.805 Q1662.55 232.351 1665.97 232.351 Q1669.42 232.351 1671.32 229.805 Q1673.24 227.258 1673.24 222.652 M1677.5 232.698 Q1677.5 239.318 1674.56 242.536 Q1671.62 245.777 1665.56 245.777 Q1663.31 245.777 1661.32 245.43 Q1659.33 245.105 1657.45 244.411 L1657.45 240.268 Q1659.33 241.286 1661.16 241.772 Q1662.99 242.258 1664.88 242.258 Q1669.07 242.258 1671.16 240.059 Q1673.24 237.883 1673.24 233.462 L1673.24 231.356 Q1671.92 233.647 1669.86 234.781 Q1667.8 235.916 1664.93 235.916 Q1660.16 235.916 1657.25 232.281 Q1654.33 228.647 1654.33 222.652 Q1654.33 216.633 1657.25 212.999 Q1660.16 209.365 1664.93 209.365 Q1667.8 209.365 1669.86 210.499 Q1671.92 211.633 1673.24 213.925 L1673.24 209.99 L1677.5 209.99 L1677.5 232.698 Z" fill="#000000" fill-rule="nonzero" fill-opacity="1"></path><path clip-path="url(#clip490)" d="M1686.27 209.99 L1690.53 209.99 L1690.53 235.916 L1686.27 235.916 L1686.27 209.99 M1686.27 199.897 L1690.53 199.897 L1690.53 205.291 L1686.27 205.291 L1686.27 199.897 Z" fill="#000000" fill-rule="nonzero" fill-opacity="1"></path><path clip-path="url(#clip490)" d="M1721 220.268 L1721 235.916 L1716.74 235.916 L1716.74 220.407 Q1716.74 216.726 1715.3 214.897 Q1713.87 213.069 1711 213.069 Q1707.55 213.069 1705.56 215.268 Q1703.57 217.467 1703.57 221.263 L1703.57 235.916 L1699.28 235.916 L1699.28 209.99 L1703.57 209.99 L1703.57 214.018 Q1705.09 211.68 1707.15 210.522 Q1709.24 209.365 1711.94 209.365 Q1716.41 209.365 1718.7 212.143 Q1721 214.897 1721 220.268 Z" fill="#000000" fill-rule="nonzero" fill-opacity="1"></path><path clip-path="url(#clip490)" d="M1741.27 222.883 Q1736.11 222.883 1734.12 224.064 Q1732.13 225.244 1732.13 228.092 Q1732.13 230.36 1733.61 231.703 Q1735.12 233.022 1737.69 233.022 Q1741.23 233.022 1743.36 230.522 Q1745.51 227.999 1745.51 223.832 L1745.51 222.883 L1741.27 222.883 M1749.77 221.124 L1749.77 235.916 L1745.51 235.916 L1745.51 231.981 Q1744.05 234.342 1741.88 235.476 Q1739.7 236.587 1736.55 236.587 Q1732.57 236.587 1730.21 234.365 Q1727.87 232.119 1727.87 228.369 Q1727.87 223.994 1730.79 221.772 Q1733.73 219.55 1739.54 219.55 L1745.51 219.55 L1745.51 219.133 Q1745.51 216.194 1743.56 214.596 Q1741.64 212.976 1738.15 212.976 Q1735.93 212.976 1733.82 213.508 Q1731.71 214.041 1729.77 215.106 L1729.77 211.17 Q1732.11 210.268 1734.31 209.828 Q1736.5 209.365 1738.59 209.365 Q1744.21 209.365 1746.99 212.282 Q1749.77 215.198 1749.77 221.124 Z" fill="#000000" fill-rule="nonzero" fill-opacity="1"></path><path clip-path="url(#clip490)" d="M1758.54 199.897 L1762.8 199.897 L1762.8 235.916 L1758.54 235.916 L1758.54 199.897 Z" fill="#000000" fill-rule="nonzero" fill-opacity="1"></path><path clip-path="url(#clip490)" d="M1790.9 232.027 L1790.9 245.777 L1786.62 245.777 L1786.62 209.99 L1790.9 209.99 L1790.9 213.925 Q1792.25 211.61 1794.28 210.499 Q1796.34 209.365 1799.19 209.365 Q1803.91 209.365 1806.85 213.115 Q1809.81 216.865 1809.81 222.976 Q1809.81 229.087 1806.85 232.837 Q1803.91 236.587 1799.19 236.587 Q1796.34 236.587 1794.28 235.476 Q1792.25 234.342 1790.9 232.027 M1805.39 222.976 Q1805.39 218.277 1803.45 215.615 Q1801.53 212.93 1798.15 212.93 Q1794.77 212.93 1792.82 215.615 Q1790.9 218.277 1790.9 222.976 Q1790.9 227.675 1792.82 230.36 Q1794.77 233.022 1798.15 233.022 Q1801.53 233.022 1803.45 230.36 Q1805.39 227.675 1805.39 222.976 Z" fill="#000000" fill-rule="nonzero" fill-opacity="1"></path><path clip-path="url(#clip490)" d="M1826.92 212.976 Q1823.5 212.976 1821.5 215.661 Q1819.51 218.323 1819.51 222.976 Q1819.51 227.629 1821.48 230.314 Q1823.47 232.976 1826.92 232.976 Q1830.32 232.976 1832.31 230.291 Q1834.31 227.606 1834.31 222.976 Q1834.31 218.37 1832.31 215.684 Q1830.32 212.976 1826.92 212.976 M1826.92 209.365 Q1832.48 209.365 1835.65 212.976 Q1838.82 216.587 1838.82 222.976 Q1838.82 229.342 1835.65 232.976 Q1832.48 236.587 1826.92 236.587 Q1821.34 236.587 1818.17 232.976 Q1815.02 229.342 1815.02 222.976 Q1815.02 216.587 1818.17 212.976 Q1821.34 209.365 1826.92 209.365 Z" fill="#000000" fill-rule="nonzero" fill-opacity="1"></path><path clip-path="url(#clip490)" d="M1845.88 199.897 L1850.14 199.897 L1850.14 235.916 L1845.88 235.916 L1845.88 199.897 Z" fill="#000000" fill-rule="nonzero" fill-opacity="1"></path><path clip-path="url(#clip490)" d="M1881.23 221.888 L1881.23 223.971 L1861.64 223.971 Q1861.92 228.369 1864.28 230.684 Q1866.67 232.976 1870.9 232.976 Q1873.36 232.976 1875.65 232.374 Q1877.96 231.772 1880.23 230.569 L1880.23 234.596 Q1877.94 235.568 1875.53 236.078 Q1873.12 236.587 1870.65 236.587 Q1864.44 236.587 1860.81 232.976 Q1857.2 229.365 1857.2 223.207 Q1857.2 216.842 1860.62 213.115 Q1864.07 209.365 1869.91 209.365 Q1875.14 209.365 1878.17 212.745 Q1881.23 216.101 1881.23 221.888 M1876.97 220.638 Q1876.92 217.143 1875 215.059 Q1873.1 212.976 1869.95 212.976 Q1866.39 212.976 1864.24 214.99 Q1862.11 217.004 1861.78 220.661 L1876.97 220.638 Z" fill="#000000" fill-rule="nonzero" fill-opacity="1"></path><path clip-path="url(#clip490)" d="M1904.74 210.754 L1904.74 214.782 Q1902.94 213.856 1900.99 213.393 Q1899.05 212.93 1896.97 212.93 Q1893.8 212.93 1892.2 213.902 Q1890.62 214.874 1890.62 216.819 Q1890.62 218.3 1891.76 219.157 Q1892.89 219.99 1896.32 220.754 L1897.78 221.078 Q1902.31 222.05 1904.21 223.832 Q1906.13 225.592 1906.13 228.763 Q1906.13 232.374 1903.26 234.481 Q1900.42 236.587 1895.42 236.587 Q1893.33 236.587 1891.06 236.17 Q1888.82 235.777 1886.32 234.967 L1886.32 230.569 Q1888.68 231.795 1890.97 232.42 Q1893.26 233.022 1895.51 233.022 Q1898.52 233.022 1900.14 232.004 Q1901.76 230.962 1901.76 229.087 Q1901.76 227.351 1900.58 226.425 Q1899.42 225.499 1895.46 224.643 L1893.98 224.295 Q1890.02 223.462 1888.26 221.749 Q1886.5 220.013 1886.5 217.004 Q1886.5 213.346 1889.1 211.356 Q1891.69 209.365 1896.46 209.365 Q1898.82 209.365 1900.9 209.712 Q1902.99 210.059 1904.74 210.754 Z" fill="#000000" fill-rule="nonzero" fill-opacity="1"></path><circle clip-path="url(#clip490)" cx="1499.19" cy="270.476" r="19.7486" fill="#0000ff" fill-rule="evenodd" fill-opacity="1" stroke="#000000" stroke-opacity="1" stroke-width="5.85143"></circle>
<path clip-path="url(#clip490)" d="M1607.85 265.811 Q1607.13 265.395 1606.27 265.21 Q1605.44 265.001 1604.42 265.001 Q1600.81 265.001 1598.87 267.362 Q1596.95 269.7 1596.95 274.098 L1596.95 287.756 L1592.66 287.756 L1592.66 261.83 L1596.95 261.83 L1596.95 265.858 Q1598.29 263.497 1600.44 262.362 Q1602.59 261.205 1605.67 261.205 Q1606.11 261.205 1606.64 261.274 Q1607.18 261.321 1607.82 261.436 L1607.85 265.811 Z" fill="#000000" fill-rule="nonzero" fill-opacity="1"></path><path clip-path="url(#clip490)" d="M1633.45 273.728 L1633.45 275.811 L1613.87 275.811 Q1614.14 280.209 1616.51 282.524 Q1618.89 284.816 1623.13 284.816 Q1625.58 284.816 1627.87 284.214 Q1630.19 283.612 1632.45 282.409 L1632.45 286.436 Q1630.16 287.408 1627.76 287.918 Q1625.35 288.427 1622.87 288.427 Q1616.67 288.427 1613.03 284.816 Q1609.42 281.205 1609.42 275.047 Q1609.42 268.682 1612.85 264.955 Q1616.3 261.205 1622.13 261.205 Q1627.36 261.205 1630.39 264.585 Q1633.45 267.941 1633.45 273.728 M1629.19 272.478 Q1629.14 268.983 1627.22 266.899 Q1625.32 264.816 1622.18 264.816 Q1618.61 264.816 1616.46 266.83 Q1614.33 268.844 1614.01 272.501 L1629.19 272.478 Z" fill="#000000" fill-rule="nonzero" fill-opacity="1"></path><path clip-path="url(#clip490)" d="M1659.1 262.825 L1659.1 266.807 Q1657.29 265.811 1655.46 265.325 Q1653.66 264.816 1651.81 264.816 Q1647.66 264.816 1645.37 267.455 Q1643.08 270.071 1643.08 274.816 Q1643.08 279.561 1645.37 282.2 Q1647.66 284.816 1651.81 284.816 Q1653.66 284.816 1655.46 284.33 Q1657.29 283.821 1659.1 282.825 L1659.1 286.76 Q1657.32 287.594 1655.39 288.01 Q1653.5 288.427 1651.34 288.427 Q1645.49 288.427 1642.04 284.746 Q1638.59 281.066 1638.59 274.816 Q1638.59 268.473 1642.06 264.839 Q1645.56 261.205 1651.62 261.205 Q1653.59 261.205 1655.46 261.622 Q1657.34 262.015 1659.1 262.825 Z" fill="#000000" fill-rule="nonzero" fill-opacity="1"></path><path clip-path="url(#clip490)" d="M1676.55 264.816 Q1673.13 264.816 1671.13 267.501 Q1669.14 270.163 1669.14 274.816 Q1669.14 279.469 1671.11 282.154 Q1673.1 284.816 1676.55 284.816 Q1679.95 284.816 1681.94 282.131 Q1683.94 279.446 1683.94 274.816 Q1683.94 270.21 1681.94 267.524 Q1679.95 264.816 1676.55 264.816 M1676.55 261.205 Q1682.11 261.205 1685.28 264.816 Q1688.45 268.427 1688.45 274.816 Q1688.45 281.182 1685.28 284.816 Q1682.11 288.427 1676.55 288.427 Q1670.97 288.427 1667.8 284.816 Q1664.65 281.182 1664.65 274.816 Q1664.65 268.427 1667.8 264.816 Q1670.97 261.205 1676.55 261.205 Z" fill="#000000" fill-rule="nonzero" fill-opacity="1"></path><path clip-path="url(#clip490)" d="M1717.06 272.108 L1717.06 287.756 L1712.8 287.756 L1712.8 272.247 Q1712.8 268.566 1711.37 266.737 Q1709.93 264.909 1707.06 264.909 Q1703.61 264.909 1701.62 267.108 Q1699.63 269.307 1699.63 273.103 L1699.63 287.756 L1695.35 287.756 L1695.35 261.83 L1699.63 261.83 L1699.63 265.858 Q1701.16 263.52 1703.22 262.362 Q1705.3 261.205 1708.01 261.205 Q1712.48 261.205 1714.77 263.983 Q1717.06 266.737 1717.06 272.108 Z" fill="#000000" fill-rule="nonzero" fill-opacity="1"></path><path clip-path="url(#clip490)" d="M1742.08 262.594 L1742.08 266.622 Q1740.28 265.696 1738.33 265.233 Q1736.39 264.77 1734.31 264.77 Q1731.13 264.77 1729.54 265.742 Q1727.96 266.714 1727.96 268.659 Q1727.96 270.14 1729.1 270.997 Q1730.23 271.83 1733.66 272.594 L1735.12 272.918 Q1739.65 273.89 1741.55 275.672 Q1743.47 277.432 1743.47 280.603 Q1743.47 284.214 1740.6 286.321 Q1737.75 288.427 1732.75 288.427 Q1730.67 288.427 1728.4 288.01 Q1726.16 287.617 1723.66 286.807 L1723.66 282.409 Q1726.02 283.635 1728.31 284.26 Q1730.6 284.862 1732.85 284.862 Q1735.86 284.862 1737.48 283.844 Q1739.1 282.802 1739.1 280.927 Q1739.1 279.191 1737.92 278.265 Q1736.76 277.339 1732.8 276.483 L1731.32 276.135 Q1727.36 275.302 1725.6 273.589 Q1723.84 271.853 1723.84 268.844 Q1723.84 265.186 1726.44 263.196 Q1729.03 261.205 1733.8 261.205 Q1736.16 261.205 1738.24 261.552 Q1740.32 261.899 1742.08 262.594 Z" fill="#000000" fill-rule="nonzero" fill-opacity="1"></path><path clip-path="url(#clip490)" d="M1754.47 254.469 L1754.47 261.83 L1763.24 261.83 L1763.24 265.14 L1754.47 265.14 L1754.47 279.214 Q1754.47 282.385 1755.32 283.288 Q1756.2 284.191 1758.87 284.191 L1763.24 284.191 L1763.24 287.756 L1758.87 287.756 Q1753.94 287.756 1752.06 285.927 Q1750.19 284.075 1750.19 279.214 L1750.19 265.14 L1747.06 265.14 L1747.06 261.83 L1750.19 261.83 L1750.19 254.469 L1754.47 254.469 Z" fill="#000000" fill-rule="nonzero" fill-opacity="1"></path><path clip-path="url(#clip490)" d="M1783.87 265.811 Q1783.15 265.395 1782.29 265.21 Q1781.46 265.001 1780.44 265.001 Q1776.83 265.001 1774.88 267.362 Q1772.96 269.7 1772.96 274.098 L1772.96 287.756 L1768.68 287.756 L1768.68 261.83 L1772.96 261.83 L1772.96 265.858 Q1774.31 263.497 1776.46 262.362 Q1778.61 261.205 1781.69 261.205 Q1782.13 261.205 1782.66 261.274 Q1783.19 261.321 1783.84 261.436 L1783.87 265.811 Z" fill="#000000" fill-rule="nonzero" fill-opacity="1"></path><path clip-path="url(#clip490)" d="M1787.89 277.524 L1787.89 261.83 L1792.15 261.83 L1792.15 277.362 Q1792.15 281.043 1793.59 282.895 Q1795.02 284.723 1797.89 284.723 Q1801.34 284.723 1803.33 282.524 Q1805.35 280.325 1805.35 276.529 L1805.35 261.83 L1809.61 261.83 L1809.61 287.756 L1805.35 287.756 L1805.35 283.774 Q1803.8 286.135 1801.74 287.293 Q1799.7 288.427 1796.99 288.427 Q1792.52 288.427 1790.21 285.649 Q1787.89 282.871 1787.89 277.524 M1798.61 261.205 L1798.61 261.205 Z" fill="#000000" fill-rule="nonzero" fill-opacity="1"></path><path clip-path="url(#clip490)" d="M1837.04 262.825 L1837.04 266.807 Q1835.23 265.811 1833.4 265.325 Q1831.6 264.816 1829.74 264.816 Q1825.6 264.816 1823.31 267.455 Q1821.02 270.071 1821.02 274.816 Q1821.02 279.561 1823.31 282.2 Q1825.6 284.816 1829.74 284.816 Q1831.6 284.816 1833.4 284.33 Q1835.23 283.821 1837.04 282.825 L1837.04 286.76 Q1835.25 287.594 1833.33 288.01 Q1831.43 288.427 1829.28 288.427 Q1823.43 288.427 1819.98 284.746 Q1816.53 281.066 1816.53 274.816 Q1816.53 268.473 1820 264.839 Q1823.5 261.205 1829.56 261.205 Q1831.53 261.205 1833.4 261.622 Q1835.28 262.015 1837.04 262.825 Z" fill="#000000" fill-rule="nonzero" fill-opacity="1"></path><path clip-path="url(#clip490)" d="M1848.66 254.469 L1848.66 261.83 L1857.43 261.83 L1857.43 265.14 L1848.66 265.14 L1848.66 279.214 Q1848.66 282.385 1849.51 283.288 Q1850.39 284.191 1853.06 284.191 L1857.43 284.191 L1857.43 287.756 L1853.06 287.756 Q1848.12 287.756 1846.25 285.927 Q1844.37 284.075 1844.37 279.214 L1844.37 265.14 L1841.25 265.14 L1841.25 261.83 L1844.37 261.83 L1844.37 254.469 L1848.66 254.469 Z" fill="#000000" fill-rule="nonzero" fill-opacity="1"></path><path clip-path="url(#clip490)" d="M1882.22 283.867 L1882.22 297.617 L1877.94 297.617 L1877.94 261.83 L1882.22 261.83 L1882.22 265.765 Q1883.56 263.45 1885.6 262.339 Q1887.66 261.205 1890.51 261.205 Q1895.23 261.205 1898.17 264.955 Q1901.13 268.705 1901.13 274.816 Q1901.13 280.927 1898.17 284.677 Q1895.23 288.427 1890.51 288.427 Q1887.66 288.427 1885.6 287.316 Q1883.56 286.182 1882.22 283.867 M1896.71 274.816 Q1896.71 270.117 1894.77 267.455 Q1892.85 264.77 1889.47 264.77 Q1886.09 264.77 1884.14 267.455 Q1882.22 270.117 1882.22 274.816 Q1882.22 279.515 1884.14 282.2 Q1886.09 284.862 1889.47 284.862 Q1892.85 284.862 1894.77 282.2 Q1896.71 279.515 1896.71 274.816 Z" fill="#000000" fill-rule="nonzero" fill-opacity="1"></path><path clip-path="url(#clip490)" d="M1918.24 264.816 Q1914.81 264.816 1912.82 267.501 Q1910.83 270.163 1910.83 274.816 Q1910.83 279.469 1912.8 282.154 Q1914.79 284.816 1918.24 284.816 Q1921.64 284.816 1923.63 282.131 Q1925.62 279.446 1925.62 274.816 Q1925.62 270.21 1923.63 267.524 Q1921.64 264.816 1918.24 264.816 M1918.24 261.205 Q1923.8 261.205 1926.97 264.816 Q1930.14 268.427 1930.14 274.816 Q1930.14 281.182 1926.97 284.816 Q1923.8 288.427 1918.24 288.427 Q1912.66 288.427 1909.49 284.816 Q1906.34 281.182 1906.34 274.816 Q1906.34 268.427 1909.49 264.816 Q1912.66 261.205 1918.24 261.205 Z" fill="#000000" fill-rule="nonzero" fill-opacity="1"></path><path clip-path="url(#clip490)" d="M1937.2 251.737 L1941.46 251.737 L1941.46 287.756 L1937.2 287.756 L1937.2 251.737 Z" fill="#000000" fill-rule="nonzero" fill-opacity="1"></path><path clip-path="url(#clip490)" d="M1972.55 273.728 L1972.55 275.811 L1952.96 275.811 Q1953.24 280.209 1955.6 282.524 Q1957.99 284.816 1962.22 284.816 Q1964.67 284.816 1966.97 284.214 Q1969.28 283.612 1971.55 282.409 L1971.55 286.436 Q1969.26 287.408 1966.85 287.918 Q1964.44 288.427 1961.97 288.427 Q1955.76 288.427 1952.13 284.816 Q1948.52 281.205 1948.52 275.047 Q1948.52 268.682 1951.94 264.955 Q1955.39 261.205 1961.23 261.205 Q1966.46 261.205 1969.49 264.585 Q1972.55 267.941 1972.55 273.728 M1968.29 272.478 Q1968.24 268.983 1966.32 266.899 Q1964.42 264.816 1961.27 264.816 Q1957.71 264.816 1955.55 266.83 Q1953.42 268.844 1953.1 272.501 L1968.29 272.478 Z" fill="#000000" fill-rule="nonzero" fill-opacity="1"></path><path clip-path="url(#clip490)" d="M1996.06 262.594 L1996.06 266.622 Q1994.26 265.696 1992.31 265.233 Q1990.37 264.77 1988.29 264.77 Q1985.11 264.77 1983.52 265.742 Q1981.94 266.714 1981.94 268.659 Q1981.94 270.14 1983.08 270.997 Q1984.21 271.83 1987.64 272.594 L1989.1 272.918 Q1993.63 273.89 1995.53 275.672 Q1997.45 277.432 1997.45 280.603 Q1997.45 284.214 1994.58 286.321 Q1991.73 288.427 1986.73 288.427 Q1984.65 288.427 1982.38 288.01 Q1980.14 287.617 1977.64 286.807 L1977.64 282.409 Q1980 283.635 1982.29 284.26 Q1984.58 284.862 1986.83 284.862 Q1989.84 284.862 1991.46 283.844 Q1993.08 282.802 1993.08 280.927 Q1993.08 279.191 1991.9 278.265 Q1990.74 277.339 1986.78 276.483 L1985.3 276.135 Q1981.34 275.302 1979.58 273.589 Q1977.82 271.853 1977.82 268.844 Q1977.82 265.186 1980.42 263.196 Q1983.01 261.205 1987.78 261.205 Q1990.14 261.205 1992.22 261.552 Q1994.3 261.899 1996.06 262.594 Z" fill="#000000" fill-rule="nonzero" fill-opacity="1"></path><path clip-path="url(#clip490)" d="M2005.32 281.876 L2010.21 281.876 L2010.21 285.858 L2006.41 293.265 L2003.42 293.265 L2005.32 285.858 L2005.32 281.876 Z" fill="#000000" fill-rule="nonzero" fill-opacity="1"></path><path clip-path="url(#clip490)" d="M2055.92 272.108 L2055.92 287.756 L2051.67 287.756 L2051.67 272.247 Q2051.67 268.566 2050.23 266.737 Q2048.79 264.909 2045.92 264.909 Q2042.48 264.909 2040.48 267.108 Q2038.49 269.307 2038.49 273.103 L2038.49 287.756 L2034.21 287.756 L2034.21 261.83 L2038.49 261.83 L2038.49 265.858 Q2040.02 263.52 2042.08 262.362 Q2044.17 261.205 2046.87 261.205 Q2051.34 261.205 2053.63 263.983 Q2055.92 266.737 2055.92 272.108 Z" fill="#000000" fill-rule="nonzero" fill-opacity="1"></path><path clip-path="url(#clip490)" d="M2074.47 264.816 Q2071.04 264.816 2069.05 267.501 Q2067.06 270.163 2067.06 274.816 Q2067.06 279.469 2069.03 282.154 Q2071.02 284.816 2074.47 284.816 Q2077.87 284.816 2079.86 282.131 Q2081.85 279.446 2081.85 274.816 Q2081.85 270.21 2079.86 267.524 Q2077.87 264.816 2074.47 264.816 M2074.47 261.205 Q2080.02 261.205 2083.19 264.816 Q2086.36 268.427 2086.36 274.816 Q2086.36 281.182 2083.19 284.816 Q2080.02 288.427 2074.47 288.427 Q2068.89 288.427 2065.72 284.816 Q2062.57 281.182 2062.57 274.816 Q2062.57 268.427 2065.72 264.816 Q2068.89 261.205 2074.47 261.205 Z" fill="#000000" fill-rule="nonzero" fill-opacity="1"></path><path clip-path="url(#clip490)" d="M2093.42 261.83 L2097.68 261.83 L2097.68 287.756 L2093.42 287.756 L2093.42 261.83 M2093.42 251.737 L2097.68 251.737 L2097.68 257.131 L2093.42 257.131 L2093.42 251.737 Z" fill="#000000" fill-rule="nonzero" fill-opacity="1"></path><path clip-path="url(#clip490)" d="M2123.12 262.594 L2123.12 266.622 Q2121.32 265.696 2119.37 265.233 Q2117.43 264.77 2115.35 264.77 Q2112.17 264.77 2110.58 265.742 Q2109 266.714 2109 268.659 Q2109 270.14 2110.14 270.997 Q2111.27 271.83 2114.7 272.594 L2116.16 272.918 Q2120.69 273.89 2122.59 275.672 Q2124.51 277.432 2124.51 280.603 Q2124.51 284.214 2121.64 286.321 Q2118.79 288.427 2113.79 288.427 Q2111.71 288.427 2109.44 288.01 Q2107.2 287.617 2104.7 286.807 L2104.7 282.409 Q2107.06 283.635 2109.35 284.26 Q2111.64 284.862 2113.89 284.862 Q2116.9 284.862 2118.52 283.844 Q2120.14 282.802 2120.14 280.927 Q2120.14 279.191 2118.96 278.265 Q2117.8 277.339 2113.84 276.483 L2112.36 276.135 Q2108.4 275.302 2106.64 273.589 Q2104.88 271.853 2104.88 268.844 Q2104.88 265.186 2107.47 263.196 Q2110.07 261.205 2114.84 261.205 Q2117.2 261.205 2119.28 261.552 Q2121.36 261.899 2123.12 262.594 Z" fill="#000000" fill-rule="nonzero" fill-opacity="1"></path><path clip-path="url(#clip490)" d="M2153.47 273.728 L2153.47 275.811 L2133.89 275.811 Q2134.16 280.209 2136.53 282.524 Q2138.91 284.816 2143.15 284.816 Q2145.6 284.816 2147.89 284.214 Q2150.21 283.612 2152.47 282.409 L2152.47 286.436 Q2150.18 287.408 2147.78 287.918 Q2145.37 288.427 2142.89 288.427 Q2136.69 288.427 2133.05 284.816 Q2129.44 281.205 2129.44 275.047 Q2129.44 268.682 2132.87 264.955 Q2136.32 261.205 2142.15 261.205 Q2147.38 261.205 2150.41 264.585 Q2153.47 267.941 2153.47 273.728 M2149.21 272.478 Q2149.16 268.983 2147.24 266.899 Q2145.35 264.816 2142.2 264.816 Q2138.63 264.816 2136.48 266.83 Q2134.35 268.844 2134.03 272.501 L2149.21 272.478 Z" fill="#000000" fill-rule="nonzero" fill-opacity="1"></path><path clip-path="url(#clip490)" d="M2161.55 281.876 L2166.43 281.876 L2166.43 287.756 L2161.55 287.756 L2161.55 281.876 M2161.55 263.242 L2166.43 263.242 L2166.43 269.122 L2161.55 269.122 L2161.55 263.242 Z" fill="#000000" fill-rule="nonzero" fill-opacity="1"></path><path clip-path="url(#clip490)" d="M2202.1 256.274 Q2198.49 256.274 2196.66 259.839 Q2194.86 263.381 2194.86 270.51 Q2194.86 277.617 2196.66 281.182 Q2198.49 284.723 2202.1 284.723 Q2205.74 284.723 2207.54 281.182 Q2209.37 277.617 2209.37 270.51 Q2209.37 263.381 2207.54 259.839 Q2205.74 256.274 2202.1 256.274 M2202.1 252.571 Q2207.91 252.571 2210.97 257.177 Q2214.05 261.76 2214.05 270.51 Q2214.05 279.237 2210.97 283.844 Q2207.91 288.427 2202.1 288.427 Q2196.29 288.427 2193.22 283.844 Q2190.16 279.237 2190.16 270.51 Q2190.16 261.76 2193.22 257.177 Q2196.29 252.571 2202.1 252.571 Z" fill="#000000" fill-rule="nonzero" fill-opacity="1"></path><path clip-path="url(#clip490)" d="M2222.27 281.876 L2227.15 281.876 L2227.15 287.756 L2222.27 287.756 L2222.27 281.876 Z" fill="#000000" fill-rule="nonzero" fill-opacity="1"></path><path clip-path="url(#clip490)" d="M2247.34 256.274 Q2243.72 256.274 2241.9 259.839 Q2240.09 263.381 2240.09 270.51 Q2240.09 277.617 2241.9 281.182 Q2243.72 284.723 2247.34 284.723 Q2250.97 284.723 2252.78 281.182 Q2254.6 277.617 2254.6 270.51 Q2254.6 263.381 2252.78 259.839 Q2250.97 256.274 2247.34 256.274 M2247.34 252.571 Q2253.15 252.571 2256.2 257.177 Q2259.28 261.76 2259.28 270.51 Q2259.28 279.237 2256.2 283.844 Q2253.15 288.427 2247.34 288.427 Q2241.53 288.427 2238.45 283.844 Q2235.39 279.237 2235.39 270.51 Q2235.39 261.76 2238.45 257.177 Q2241.53 252.571 2247.34 252.571 Z" fill="#000000" fill-rule="nonzero" fill-opacity="1"></path></svg>