<svg xmlns="http://www.w3.org/2000/svg" xmlns:xlink="http://www.w3.org/1999/xlink" width="600" height="400" viewBox="0 0 2400 1600">
<defs>
  <clipPath id="clip080">
    <rect x="0" y="0" width="2400" height="1600"></rect>
  </clipPath>
</defs>
<path clip-path="url(#clip080)" d="M0 1600 L2400 1600 L2400 8.88178e-14 L0 8.88178e-14  Z" fill="#ffffff" fill-rule="evenodd" fill-opacity="1"></path>
<defs>
  <clipPath id="clip081">
    <rect x="480" y="0" width="1681" height="1600"></rect>
  </clipPath>
</defs>
<path clip-path="url(#clip080)" d="M186.274 1486.45 L2352.76 1486.45 L2352.76 47.2441 L186.274 47.2441  Z" fill="#ffffff" fill-rule="evenodd" fill-opacity="1"></path>
<defs>
  <clipPath id="clip082">
    <rect x="186" y="47" width="2167" height="1440"></rect>
  </clipPath>
</defs>
<polyline clip-path="url(#clip082)" style="stroke:#000000; stroke-linecap:round; stroke-linejoin:round; stroke-width:2; stroke-opacity:0.1; fill:none" points="451.975,1486.45 451.975,47.2441 "></polyline>
<polyline clip-path="url(#clip082)" style="stroke:#000000; stroke-linecap:round; stroke-linejoin:round; stroke-width:2; stroke-opacity:0.1; fill:none" points="860.745,1486.45 860.745,47.2441 "></polyline>
<polyline clip-path="url(#clip082)" style="stroke:#000000; stroke-linecap:round; stroke-linejoin:round; stroke-width:2; stroke-opacity:0.1; fill:none" points="1269.51,1486.45 1269.51,47.2441 "></polyline>
<polyline clip-path="url(#clip082)" style="stroke:#000000; stroke-linecap:round; stroke-linejoin:round; stroke-width:2; stroke-opacity:0.1; fill:none" points="1678.29,1486.45 1678.29,47.2441 "></polyline>
<polyline clip-path="url(#clip082)" style="stroke:#000000; stroke-linecap:round; stroke-linejoin:round; stroke-width:2; stroke-opacity:0.1; fill:none" points="2087.06,1486.45 2087.06,47.2441 "></polyline>
<polyline clip-path="url(#clip082)" style="stroke:#000000; stroke-linecap:round; stroke-linejoin:round; stroke-width:2; stroke-opacity:0.1; fill:none" points="186.274,1445.07 2352.76,1445.07 "></polyline>
<polyline clip-path="url(#clip082)" style="stroke:#000000; stroke-linecap:round; stroke-linejoin:round; stroke-width:2; stroke-opacity:0.1; fill:none" points="186.274,1105.78 2352.76,1105.78 "></polyline>
<polyline clip-path="url(#clip082)" style="stroke:#000000; stroke-linecap:round; stroke-linejoin:round; stroke-width:2; stroke-opacity:0.1; fill:none" points="186.274,766.49 2352.76,766.49 "></polyline>
<polyline clip-path="url(#clip082)" style="stroke:#000000; stroke-linecap:round; stroke-linejoin:round; stroke-width:2; stroke-opacity:0.1; fill:none" points="186.274,427.199 2352.76,427.199 "></polyline>
<polyline clip-path="url(#clip082)" style="stroke:#000000; stroke-linecap:round; stroke-linejoin:round; stroke-width:2; stroke-opacity:0.1; fill:none" points="186.274,87.9083 2352.76,87.9083 "></polyline>
<polyline clip-path="url(#clip080)" style="stroke:#000000; stroke-linecap:round; stroke-linejoin:round; stroke-width:4; stroke-opacity:1; fill:none" points="186.274,1486.45 2352.76,1486.45 "></polyline>
<polyline clip-path="url(#clip080)" style="stroke:#000000; stroke-linecap:round; stroke-linejoin:round; stroke-width:4; stroke-opacity:1; fill:none" points="451.975,1486.45 451.975,1467.55 "></polyline>
<polyline clip-path="url(#clip080)" style="stroke:#000000; stroke-linecap:round; stroke-linejoin:round; stroke-width:4; stroke-opacity:1; fill:none" points="860.745,1486.45 860.745,1467.55 "></polyline>
<polyline clip-path="url(#clip080)" style="stroke:#000000; stroke-linecap:round; stroke-linejoin:round; stroke-width:4; stroke-opacity:1; fill:none" points="1269.51,1486.45 1269.51,1467.55 "></polyline>
<polyline clip-path="url(#clip080)" style="stroke:#000000; stroke-linecap:round; stroke-linejoin:round; stroke-width:4; stroke-opacity:1; fill:none" points="1678.29,1486.45 1678.29,1467.55 "></polyline>
<polyline clip-path="url(#clip080)" style="stroke:#000000; stroke-linecap:round; stroke-linejoin:round; stroke-width:4; stroke-opacity:1; fill:none" points="2087.06,1486.45 2087.06,1467.55 "></polyline>
<path clip-path="url(#clip080)" d="M420.875 1532.02 L450.551 1532.02 L450.551 1535.95 L420.875 1535.95 L420.875 1532.02 Z" fill="#000000" fill-rule="nonzero" fill-opacity="1"></path><path clip-path="url(#clip080)" d="M473.491 1518.36 L461.685 1536.81 L473.491 1536.81 L473.491 1518.36 M472.264 1514.29 L478.143 1514.29 L478.143 1536.81 L483.074 1536.81 L483.074 1540.7 L478.143 1540.7 L478.143 1548.85 L473.491 1548.85 L473.491 1540.7 L457.889 1540.7 L457.889 1536.19 L472.264 1514.29 Z" fill="#000000" fill-rule="nonzero" fill-opacity="1"></path><path clip-path="url(#clip080)" d="M830.687 1532.02 L860.363 1532.02 L860.363 1535.95 L830.687 1535.95 L830.687 1532.02 Z" fill="#000000" fill-rule="nonzero" fill-opacity="1"></path><path clip-path="url(#clip080)" d="M874.483 1544.91 L890.802 1544.91 L890.802 1548.85 L868.858 1548.85 L868.858 1544.91 Q871.52 1542.16 876.103 1537.53 Q880.71 1532.88 881.891 1531.53 Q884.136 1529.01 885.015 1527.27 Q885.918 1525.51 885.918 1523.82 Q885.918 1521.07 883.974 1519.33 Q882.053 1517.6 878.951 1517.6 Q876.752 1517.6 874.298 1518.36 Q871.867 1519.13 869.09 1520.68 L869.09 1515.95 Q871.914 1514.82 874.367 1514.24 Q876.821 1513.66 878.858 1513.66 Q884.228 1513.66 887.423 1516.35 Q890.617 1519.03 890.617 1523.52 Q890.617 1525.65 889.807 1527.57 Q889.02 1529.47 886.914 1532.07 Q886.335 1532.74 883.233 1535.95 Q880.131 1539.15 874.483 1544.91 Z" fill="#000000" fill-rule="nonzero" fill-opacity="1"></path><path clip-path="url(#clip080)" d="M1269.51 1517.37 Q1265.9 1517.37 1264.08 1520.93 Q1262.27 1524.47 1262.27 1531.6 Q1262.27 1538.71 1264.08 1542.27 Q1265.9 1545.82 1269.51 1545.82 Q1273.15 1545.82 1274.95 1542.27 Q1276.78 1538.71 1276.78 1531.6 Q1276.78 1524.47 1274.95 1520.93 Q1273.15 1517.37 1269.51 1517.37 M1269.51 1513.66 Q1275.33 1513.66 1278.38 1518.27 Q1281.46 1522.85 1281.46 1531.6 Q1281.46 1540.33 1278.38 1544.94 Q1275.33 1549.52 1269.51 1549.52 Q1263.7 1549.52 1260.63 1544.94 Q1257.57 1540.33 1257.57 1531.6 Q1257.57 1522.85 1260.63 1518.27 Q1263.7 1513.66 1269.51 1513.66 Z" fill="#000000" fill-rule="nonzero" fill-opacity="1"></path><path clip-path="url(#clip080)" d="M1672.94 1544.91 L1689.26 1544.91 L1689.26 1548.85 L1667.31 1548.85 L1667.31 1544.91 Q1669.97 1542.16 1674.56 1537.53 Q1679.16 1532.88 1680.35 1531.53 Q1682.59 1529.01 1683.47 1527.27 Q1684.37 1525.51 1684.37 1523.82 Q1684.37 1521.07 1682.43 1519.33 Q1680.51 1517.6 1677.41 1517.6 Q1675.21 1517.6 1672.75 1518.36 Q1670.32 1519.13 1667.54 1520.68 L1667.54 1515.95 Q1670.37 1514.82 1672.82 1514.24 Q1675.28 1513.66 1677.31 1513.66 Q1682.68 1513.66 1685.88 1516.35 Q1689.07 1519.03 1689.07 1523.52 Q1689.07 1525.65 1688.26 1527.57 Q1687.47 1529.47 1685.37 1532.07 Q1684.79 1532.74 1681.69 1535.95 Q1678.59 1539.15 1672.94 1544.91 Z" fill="#000000" fill-rule="nonzero" fill-opacity="1"></path><path clip-path="url(#clip080)" d="M2090.06 1518.36 L2078.26 1536.81 L2090.06 1536.81 L2090.06 1518.36 M2088.84 1514.29 L2094.72 1514.29 L2094.72 1536.81 L2099.65 1536.81 L2099.65 1540.7 L2094.72 1540.7 L2094.72 1548.85 L2090.06 1548.85 L2090.06 1540.7 L2074.46 1540.7 L2074.46 1536.19 L2088.84 1514.29 Z" fill="#000000" fill-rule="nonzero" fill-opacity="1"></path><polyline clip-path="url(#clip080)" style="stroke:#000000; stroke-linecap:round; stroke-linejoin:round; stroke-width:4; stroke-opacity:1; fill:none" points="186.274,1486.45 186.274,47.2441 "></polyline>
<polyline clip-path="url(#clip080)" style="stroke:#000000; stroke-linecap:round; stroke-linejoin:round; stroke-width:4; stroke-opacity:1; fill:none" points="186.274,1445.07 205.172,1445.07 "></polyline>
<polyline clip-path="url(#clip080)" style="stroke:#000000; stroke-linecap:round; stroke-linejoin:round; stroke-width:4; stroke-opacity:1; fill:none" points="186.274,1105.78 205.172,1105.78 "></polyline>
<polyline clip-path="url(#clip080)" style="stroke:#000000; stroke-linecap:round; stroke-linejoin:round; stroke-width:4; stroke-opacity:1; fill:none" points="186.274,766.49 205.172,766.49 "></polyline>
<polyline clip-path="url(#clip080)" style="stroke:#000000; stroke-linecap:round; stroke-linejoin:round; stroke-width:4; stroke-opacity:1; fill:none" points="186.274,427.199 205.172,427.199 "></polyline>
<polyline clip-path="url(#clip080)" style="stroke:#000000; stroke-linecap:round; stroke-linejoin:round; stroke-width:4; stroke-opacity:1; fill:none" points="186.274,87.9083 205.172,87.9083 "></polyline>
<path clip-path="url(#clip080)" d="M62.9365 1430.87 Q59.3254 1430.87 57.4967 1434.44 Q55.6912 1437.98 55.6912 1445.11 Q55.6912 1452.21 57.4967 1455.78 Q59.3254 1459.32 62.9365 1459.32 Q66.5707 1459.32 68.3763 1455.78 Q70.205 1452.21 70.205 1445.11 Q70.205 1437.98 68.3763 1434.44 Q66.5707 1430.87 62.9365 1430.87 M62.9365 1427.17 Q68.7467 1427.17 71.8022 1431.77 Q74.8809 1436.36 74.8809 1445.11 Q74.8809 1453.83 71.8022 1458.44 Q68.7467 1463.02 62.9365 1463.02 Q57.1264 1463.02 54.0477 1458.44 Q50.9921 1453.83 50.9921 1445.11 Q50.9921 1436.36 54.0477 1431.77 Q57.1264 1427.17 62.9365 1427.17 Z" fill="#000000" fill-rule="nonzero" fill-opacity="1"></path><path clip-path="url(#clip080)" d="M83.0984 1456.47 L87.9827 1456.47 L87.9827 1462.35 L83.0984 1462.35 L83.0984 1456.47 Z" fill="#000000" fill-rule="nonzero" fill-opacity="1"></path><path clip-path="url(#clip080)" d="M108.168 1430.87 Q104.557 1430.87 102.728 1434.44 Q100.922 1437.98 100.922 1445.11 Q100.922 1452.21 102.728 1455.78 Q104.557 1459.32 108.168 1459.32 Q111.802 1459.32 113.608 1455.78 Q115.436 1452.21 115.436 1445.11 Q115.436 1437.98 113.608 1434.44 Q111.802 1430.87 108.168 1430.87 M108.168 1427.17 Q113.978 1427.17 117.033 1431.77 Q120.112 1436.36 120.112 1445.11 Q120.112 1453.83 117.033 1458.44 Q113.978 1463.02 108.168 1463.02 Q102.358 1463.02 99.2789 1458.44 Q96.2234 1453.83 96.2234 1445.11 Q96.2234 1436.36 99.2789 1431.77 Q102.358 1427.17 108.168 1427.17 Z" fill="#000000" fill-rule="nonzero" fill-opacity="1"></path><path clip-path="url(#clip080)" d="M138.33 1430.87 Q134.719 1430.87 132.89 1434.44 Q131.084 1437.98 131.084 1445.11 Q131.084 1452.21 132.89 1455.78 Q134.719 1459.32 138.33 1459.32 Q141.964 1459.32 143.769 1455.78 Q145.598 1452.21 145.598 1445.11 Q145.598 1437.98 143.769 1434.44 Q141.964 1430.87 138.33 1430.87 M138.33 1427.17 Q144.14 1427.17 147.195 1431.77 Q150.274 1436.36 150.274 1445.11 Q150.274 1453.83 147.195 1458.44 Q144.14 1463.02 138.33 1463.02 Q132.519 1463.02 129.441 1458.44 Q126.385 1453.83 126.385 1445.11 Q126.385 1436.36 129.441 1431.77 Q132.519 1427.17 138.33 1427.17 Z" fill="#000000" fill-rule="nonzero" fill-opacity="1"></path><path clip-path="url(#clip080)" d="M63.9319 1091.58 Q60.3208 1091.58 58.4921 1095.14 Q56.6865 1098.69 56.6865 1105.82 Q56.6865 1112.92 58.4921 1116.49 Q60.3208 1120.03 63.9319 1120.03 Q67.5661 1120.03 69.3717 1116.49 Q71.2004 1112.92 71.2004 1105.82 Q71.2004 1098.69 69.3717 1095.14 Q67.5661 1091.58 63.9319 1091.58 M63.9319 1087.88 Q69.742 1087.88 72.7976 1092.48 Q75.8763 1097.07 75.8763 1105.82 Q75.8763 1114.54 72.7976 1119.15 Q69.742 1123.73 63.9319 1123.73 Q58.1217 1123.73 55.043 1119.15 Q51.9875 1114.54 51.9875 1105.82 Q51.9875 1097.07 55.043 1092.48 Q58.1217 1087.88 63.9319 1087.88 Z" fill="#000000" fill-rule="nonzero" fill-opacity="1"></path><path clip-path="url(#clip080)" d="M84.0938 1117.18 L88.978 1117.18 L88.978 1123.06 L84.0938 1123.06 L84.0938 1117.18 Z" fill="#000000" fill-rule="nonzero" fill-opacity="1"></path><path clip-path="url(#clip080)" d="M103.191 1119.13 L119.51 1119.13 L119.51 1123.06 L97.566 1123.06 L97.566 1119.13 Q100.228 1116.37 104.811 1111.74 Q109.418 1107.09 110.598 1105.75 Q112.844 1103.22 113.723 1101.49 Q114.626 1099.73 114.626 1098.04 Q114.626 1095.28 112.682 1093.55 Q110.76 1091.81 107.658 1091.81 Q105.459 1091.81 103.006 1092.57 Q100.575 1093.34 97.7974 1094.89 L97.7974 1090.17 Q100.621 1089.03 103.075 1088.45 Q105.529 1087.88 107.566 1087.88 Q112.936 1087.88 116.131 1090.56 Q119.325 1093.25 119.325 1097.74 Q119.325 1099.87 118.515 1101.79 Q117.728 1103.69 115.621 1106.28 Q115.043 1106.95 111.941 1110.17 Q108.839 1113.36 103.191 1119.13 Z" fill="#000000" fill-rule="nonzero" fill-opacity="1"></path><path clip-path="url(#clip080)" d="M129.371 1088.5 L147.728 1088.5 L147.728 1092.44 L133.654 1092.44 L133.654 1100.91 Q134.672 1100.56 135.691 1100.4 Q136.709 1100.21 137.728 1100.21 Q143.515 1100.21 146.894 1103.39 Q150.274 1106.56 150.274 1111.97 Q150.274 1117.55 146.802 1120.65 Q143.33 1123.73 137.01 1123.73 Q134.834 1123.73 132.566 1123.36 Q130.32 1122.99 127.913 1122.25 L127.913 1117.55 Q129.996 1118.69 132.219 1119.24 Q134.441 1119.8 136.918 1119.8 Q140.922 1119.8 143.26 1117.69 Q145.598 1115.58 145.598 1111.97 Q145.598 1108.36 143.26 1106.26 Q140.922 1104.15 136.918 1104.15 Q135.043 1104.15 133.168 1104.57 Q131.316 1104.98 129.371 1105.86 L129.371 1088.5 Z" fill="#000000" fill-rule="nonzero" fill-opacity="1"></path><path clip-path="url(#clip080)" d="M62.9365 752.289 Q59.3254 752.289 57.4967 755.854 Q55.6912 759.395 55.6912 766.525 Q55.6912 773.631 57.4967 777.196 Q59.3254 780.738 62.9365 780.738 Q66.5707 780.738 68.3763 777.196 Q70.205 773.631 70.205 766.525 Q70.205 759.395 68.3763 755.854 Q66.5707 752.289 62.9365 752.289 M62.9365 748.585 Q68.7467 748.585 71.8022 753.191 Q74.8809 757.775 74.8809 766.525 Q74.8809 775.252 71.8022 779.858 Q68.7467 784.441 62.9365 784.441 Q57.1264 784.441 54.0477 779.858 Q50.9921 775.252 50.9921 766.525 Q50.9921 757.775 54.0477 753.191 Q57.1264 748.585 62.9365 748.585 Z" fill="#000000" fill-rule="nonzero" fill-opacity="1"></path><path clip-path="url(#clip080)" d="M83.0984 777.89 L87.9827 777.89 L87.9827 783.77 L83.0984 783.77 L83.0984 777.89 Z" fill="#000000" fill-rule="nonzero" fill-opacity="1"></path><path clip-path="url(#clip080)" d="M98.2141 749.21 L116.57 749.21 L116.57 753.145 L102.496 753.145 L102.496 761.617 Q103.515 761.27 104.534 761.108 Q105.552 760.923 106.571 760.923 Q112.358 760.923 115.737 764.094 Q119.117 767.265 119.117 772.682 Q119.117 778.261 115.645 781.363 Q112.172 784.441 105.853 784.441 Q103.677 784.441 101.409 784.071 Q99.1632 783.701 96.7558 782.96 L96.7558 778.261 Q98.8391 779.395 101.061 779.951 Q103.284 780.506 105.76 780.506 Q109.765 780.506 112.103 778.4 Q114.441 776.293 114.441 772.682 Q114.441 769.071 112.103 766.965 Q109.765 764.858 105.76 764.858 Q103.885 764.858 102.01 765.275 Q100.159 765.691 98.2141 766.571 L98.2141 749.21 Z" fill="#000000" fill-rule="nonzero" fill-opacity="1"></path><path clip-path="url(#clip080)" d="M138.33 752.289 Q134.719 752.289 132.89 755.854 Q131.084 759.395 131.084 766.525 Q131.084 773.631 132.89 777.196 Q134.719 780.738 138.33 780.738 Q141.964 780.738 143.769 777.196 Q145.598 773.631 145.598 766.525 Q145.598 759.395 143.769 755.854 Q141.964 752.289 138.33 752.289 M138.33 748.585 Q144.14 748.585 147.195 753.191 Q150.274 757.775 150.274 766.525 Q150.274 775.252 147.195 779.858 Q144.14 784.441 138.33 784.441 Q132.519 784.441 129.441 779.858 Q126.385 775.252 126.385 766.525 Q126.385 757.775 129.441 753.191 Q132.519 748.585 138.33 748.585 Z" fill="#000000" fill-rule="nonzero" fill-opacity="1"></path><path clip-path="url(#clip080)" d="M63.9319 412.998 Q60.3208 412.998 58.4921 416.563 Q56.6865 420.104 56.6865 427.234 Q56.6865 434.34 58.4921 437.905 Q60.3208 441.447 63.9319 441.447 Q67.5661 441.447 69.3717 437.905 Q71.2004 434.34 71.2004 427.234 Q71.2004 420.104 69.3717 416.563 Q67.5661 412.998 63.9319 412.998 M63.9319 409.294 Q69.742 409.294 72.7976 413.901 Q75.8763 418.484 75.8763 427.234 Q75.8763 435.961 72.7976 440.567 Q69.742 445.15 63.9319 445.15 Q58.1217 445.15 55.043 440.567 Q51.9875 435.961 51.9875 427.234 Q51.9875 418.484 55.043 413.901 Q58.1217 409.294 63.9319 409.294 Z" fill="#000000" fill-rule="nonzero" fill-opacity="1"></path><path clip-path="url(#clip080)" d="M84.0938 438.6 L88.978 438.6 L88.978 444.479 L84.0938 444.479 L84.0938 438.6 Z" fill="#000000" fill-rule="nonzero" fill-opacity="1"></path><path clip-path="url(#clip080)" d="M97.9826 409.919 L120.205 409.919 L120.205 411.91 L107.658 444.479 L102.774 444.479 L114.58 413.854 L97.9826 413.854 L97.9826 409.919 Z" fill="#000000" fill-rule="nonzero" fill-opacity="1"></path><path clip-path="url(#clip080)" d="M129.371 409.919 L147.728 409.919 L147.728 413.854 L133.654 413.854 L133.654 422.326 Q134.672 421.979 135.691 421.817 Q136.709 421.632 137.728 421.632 Q143.515 421.632 146.894 424.803 Q150.274 427.975 150.274 433.391 Q150.274 438.97 146.802 442.072 Q143.33 445.15 137.01 445.15 Q134.834 445.15 132.566 444.78 Q130.32 444.41 127.913 443.669 L127.913 438.97 Q129.996 440.104 132.219 440.66 Q134.441 441.215 136.918 441.215 Q140.922 441.215 143.26 439.109 Q145.598 437.002 145.598 433.391 Q145.598 429.78 143.26 427.674 Q140.922 425.567 136.918 425.567 Q135.043 425.567 133.168 425.984 Q131.316 426.401 129.371 427.28 L129.371 409.919 Z" fill="#000000" fill-rule="nonzero" fill-opacity="1"></path><path clip-path="url(#clip080)" d="M53.7467 101.253 L61.3856 101.253 L61.3856 74.8875 L53.0754 76.5542 L53.0754 72.2949 L61.3393 70.6283 L66.0152 70.6283 L66.0152 101.253 L73.654 101.253 L73.654 105.188 L53.7467 105.188 L53.7467 101.253 Z" fill="#000000" fill-rule="nonzero" fill-opacity="1"></path><path clip-path="url(#clip080)" d="M83.0984 99.3087 L87.9827 99.3087 L87.9827 105.188 L83.0984 105.188 L83.0984 99.3087 Z" fill="#000000" fill-rule="nonzero" fill-opacity="1"></path><path clip-path="url(#clip080)" d="M108.168 73.707 Q104.557 73.707 102.728 77.2718 Q100.922 80.8134 100.922 87.943 Q100.922 95.0494 102.728 98.6142 Q104.557 102.156 108.168 102.156 Q111.802 102.156 113.608 98.6142 Q115.436 95.0494 115.436 87.943 Q115.436 80.8134 113.608 77.2718 Q111.802 73.707 108.168 73.707 M108.168 70.0033 Q113.978 70.0033 117.033 74.6097 Q120.112 79.1931 120.112 87.943 Q120.112 96.6698 117.033 101.276 Q113.978 105.86 108.168 105.86 Q102.358 105.86 99.2789 101.276 Q96.2234 96.6698 96.2234 87.943 Q96.2234 79.1931 99.2789 74.6097 Q102.358 70.0033 108.168 70.0033 Z" fill="#000000" fill-rule="nonzero" fill-opacity="1"></path><path clip-path="url(#clip080)" d="M138.33 73.707 Q134.719 73.707 132.89 77.2718 Q131.084 80.8134 131.084 87.943 Q131.084 95.0494 132.89 98.6142 Q134.719 102.156 138.33 102.156 Q141.964 102.156 143.769 98.6142 Q145.598 95.0494 145.598 87.943 Q145.598 80.8134 143.769 77.2718 Q141.964 73.707 138.33 73.707 M138.33 70.0033 Q144.14 70.0033 147.195 74.6097 Q150.274 79.1931 150.274 87.943 Q150.274 96.6698 147.195 101.276 Q144.14 105.86 138.33 105.86 Q132.519 105.86 129.441 101.276 Q126.385 96.6698 126.385 87.943 Q126.385 79.1931 129.441 74.6097 Q132.519 70.0033 138.33 70.0033 Z" fill="#000000" fill-rule="nonzero" fill-opacity="1"></path><polyline clip-path="url(#clip082)" style="stroke:#009af9; stroke-linecap:round; stroke-linejoin:round; stroke-width:4; stroke-opacity:1; fill:none" points="247.59,1445.07 249.635,1445.07 251.681,1445.07 253.727,1445.07 255.773,1445.07 257.819,1445.07 259.865,1445.07 261.911,1445.07 263.957,1445.07 266.003,1445.07 268.048,1445.07 270.094,1445.07 272.14,1445.07 274.186,1445.07 276.232,1445.07 278.278,1445.07 280.324,1445.07 282.37,1445.07 284.416,1445.07 286.462,1445.07 288.507,1445.07 290.553,1445.07 292.599,1445.07 294.645,1445.07 296.691,1445.07 298.737,1445.07 300.783,1445.07 302.829,1445.07 304.875,1445.07 306.921,1445.07 308.966,1445.07 311.012,1445.07 313.058,1445.07 315.104,1445.07 317.15,1445.07 319.196,1445.07 321.242,1445.07 323.288,1445.07 325.334,1445.07 327.38,1445.07 329.425,1445.07 331.471,1445.07 333.517,1445.07 335.563,1445.07 337.609,1445.07 339.655,1445.07 341.701,1445.07 343.747,1445.07 345.793,1445.07 347.838,1445.07 349.884,1445.07 351.93,1445.07 353.976,1445.07 356.022,1445.07 358.068,1445.07 360.114,1445.07 362.16,1445.07 364.206,1445.07 366.252,1445.07 368.297,1445.07 370.343,1445.07 372.389,1445.07 374.435,1445.07 376.481,1445.07 378.527,1445.07 380.573,1445.07 382.619,1445.07 384.665,1445.07 386.711,1445.07 388.756,1445.07 390.802,1445.07 392.848,1445.07 394.894,1445.07 396.94,1445.07 398.986,1445.07 401.032,1445.07 403.078,1445.07 405.124,1445.07 407.169,1445.07 409.215,1445.07 411.261,1445.07 413.307,1445.07 415.353,1445.07 417.399,1445.07 419.445,1445.07 421.491,1445.07 423.537,1445.07 425.583,1445.07 427.628,1445.07 429.674,1445.07 431.72,1445.07 433.766,1445.07 435.812,1445.07 437.858,1445.07 439.904,1445.07 441.95,1445.07 443.996,1445.07 446.042,1445.07 448.087,1445.07 450.133,1445.07 452.179,1445.07 454.225,1445.07 456.271,1445.07 458.317,1445.07 460.363,1445.07 462.409,1445.07 464.455,1445.07 466.5,1445.07 468.546,1445.07 470.592,1445.07 472.638,1445.07 474.684,1445.07 476.73,1445.07 478.776,1445.07 480.822,1445.07 482.868,1445.07 484.914,1445.07 486.959,1445.07 489.005,1445.07 491.051,1445.07 493.097,1445.07 495.143,1445.07 497.189,1445.07 499.235,1445.07 501.281,1445.07 503.327,1445.07 505.373,1445.07 507.418,1445.07 509.464,1445.07 511.51,1445.07 513.556,1445.07 515.602,1445.07 517.648,1445.07 519.694,1445.07 521.74,1445.07 523.786,1445.07 525.831,1445.07 527.877,1445.07 529.923,1445.07 531.969,1445.07 534.015,1445.07 536.061,1445.07 538.107,1445.07 540.153,1445.07 542.199,1445.07 544.245,1445.07 546.29,1445.07 548.336,1445.07 550.382,1445.07 552.428,1445.07 554.474,1445.07 556.52,1445.07 558.566,1445.07 560.612,1445.07 562.658,1445.07 564.704,1445.07 566.749,1445.07 568.795,1445.07 570.841,1445.07 572.887,1445.07 574.933,1445.07 576.979,1445.07 579.025,1445.07 581.071,1445.07 583.117,1445.07 585.162,1445.07 587.208,1445.07 589.254,1445.07 591.3,1445.07 593.346,1445.07 595.392,1445.07 597.438,1445.07 599.484,1445.07 601.53,1445.07 603.576,1445.07 605.621,1445.07 607.667,1445.07 609.713,1445.07 611.759,1445.07 613.805,1445.07 615.851,1445.07 617.897,1445.07 619.943,1445.07 621.989,1445.07 624.035,1445.07 626.08,1445.07 628.126,1445.07 630.172,1445.07 632.218,1445.07 634.264,1445.07 636.31,1445.07 638.356,1445.07 640.402,1445.07 642.448,1445.07 644.493,1445.07 646.539,1445.07 648.585,1445.07 650.631,1445.07 652.677,1445.07 654.723,1445.07 656.769,1445.07 658.815,1445.07 660.861,1445.07 662.907,1445.07 664.952,1445.07 666.998,1445.07 669.044,1445.07 671.09,1445.07 673.136,1445.07 675.182,1445.07 677.228,1445.07 679.274,1445.07 681.32,1445.07 683.366,1445.07 685.411,1445.07 687.457,1445.07 689.503,1445.07 691.549,1445.07 693.595,1445.07 695.641,1445.07 697.687,1445.07 699.733,1445.07 701.779,1445.07 703.825,1445.07 705.87,1445.07 707.916,1445.07 709.962,1445.07 712.008,1445.07 714.054,1445.07 716.1,1445.07 718.146,1445.07 720.192,1445.07 722.238,1445.07 724.283,1445.07 726.329,1445.07 728.375,1445.07 730.421,1445.07 732.467,1445.07 734.513,1445.07 736.559,1445.07 738.605,1445.07 740.651,1445.07 742.697,1445.07 744.742,1445.07 746.788,1445.07 748.834,1445.07 750.88,1445.07 752.926,1445.07 754.972,1445.07 757.018,1445.07 759.064,1445.07 761.11,1445.07 763.156,1445.07 765.201,1445.06 767.247,1445.06 769.293,1445.06 771.339,1445.06 773.385,1445.06 775.431,1445.06 777.477,1445.06 779.523,1445.06 781.569,1445.06 783.614,1445.06 785.66,1445.05 787.706,1445.05 789.752,1445.05 791.798,1445.05 793.844,1445.04 795.89,1445.04 797.936,1445.04 799.982,1445.04 802.028,1445.03 804.073,1445.03 806.119,1445.03 808.165,1445.02 810.211,1445.02 812.257,1445.01 814.303,1445.01 816.349,1445 818.395,1444.99 820.441,1444.98 822.487,1444.98 824.532,1444.97 826.578,1444.96 828.624,1444.95 830.67,1444.94 832.716,1444.93 834.762,1444.91 836.808,1444.9 838.854,1444.88 840.9,1444.87 842.945,1444.85 844.991,1444.83 847.037,1444.81 849.083,1444.79 851.129,1444.76 853.175,1444.73 855.221,1444.71 857.267,1444.67 859.313,1444.64 861.359,1444.61 863.404,1444.57 865.45,1444.53 867.496,1444.48 869.542,1444.43 871.588,1444.38 873.634,1444.32 875.68,1444.26 877.726,1444.2 879.772,1444.13 881.818,1444.05 883.863,1443.97 885.909,1443.89 887.955,1443.8 890.001,1443.7 892.047,1443.59 894.093,1443.48 896.139,1443.36 898.185,1443.23 900.231,1443.09 902.276,1442.94 904.322,1442.78 906.368,1442.61 908.414,1442.43 910.46,1442.24 912.506,1442.03 914.552,1441.82 916.598,1441.58 918.644,1441.33 920.69,1441.07 922.735,1440.78 924.781,1440.48 926.827,1440.16 928.873,1439.83 930.919,1439.46 932.965,1439.08 935.011,1438.67 937.057,1438.24 939.103,1437.78 941.149,1437.3 943.194,1436.78 945.24,1436.24 947.286,1435.66 949.332,1435.05 951.378,1434.4 953.424,1433.72 955.47,1433 957.516,1432.23 959.562,1431.42 961.607,1430.57 963.653,1429.68 965.699,1428.73 967.745,1427.73 969.791,1426.68 971.837,1425.57 973.883,1424.4 975.929,1423.17 977.975,1421.88 980.021,1420.52 982.066,1419.1 984.112,1417.6 986.158,1416.02 988.204,1414.37 990.25,1412.64 992.296,1410.82 994.342,1408.92 996.388,1406.92 998.434,1404.83 1000.48,1402.65 1002.53,1400.36 1004.57,1397.97 1006.62,1395.47 1008.66,1392.86 1010.71,1390.13 1012.75,1387.28 1014.8,1384.31 1016.85,1381.22 1018.89,1377.99 1020.94,1374.63 1022.98,1371.13 1025.03,1367.49 1027.08,1363.7 1029.12,1359.75 1031.17,1355.66 1033.21,1351.4 1035.26,1346.99 1037.31,1342.4 1039.35,1337.64 1041.4,1332.71 1043.44,1327.6 1045.49,1322.3 1047.54,1316.82 1049.58,1311.15 1051.63,1305.28 1053.67,1299.21 1055.72,1292.94 1057.76,1286.47 1059.81,1279.78 1061.86,1272.89 1063.9,1265.77 1065.95,1258.44 1067.99,1250.89 1070.04,1243.11 1072.09,1235.1 1074.13,1226.86 1076.18,1218.4 1078.22,1209.69 1080.27,1200.75 1082.32,1191.58 1084.36,1182.16 1086.41,1172.5 1088.45,1162.6 1090.5,1152.46 1092.54,1142.08 1094.59,1131.45 1096.64,1120.59 1098.68,1109.48 1100.73,1098.12 1102.77,1086.53 1104.82,1074.7 1106.87,1062.63 1108.91,1050.33 1110.96,1037.79 1113,1025.03 1115.05,1012.04 1117.1,998.822 1119.14,985.388 1121.19,971.74 1123.23,957.882 1125.28,943.819 1127.33,929.556 1129.37,915.101 1131.42,900.458 1133.46,885.635 1135.51,870.639 1137.55,855.477 1139.6,840.157 1141.65,824.689 1143.69,809.079 1145.74,793.338 1147.78,777.475 1149.83,761.5 1151.88,745.424 1153.92,729.256 1155.97,713.008 1158.01,696.691 1160.06,680.317 1162.11,663.898 1164.15,647.446 1166.2,630.974 1168.24,614.495 1170.29,598.022 1172.33,581.568 1174.38,565.147 1176.43,548.774 1178.47,532.462 1180.52,516.225 1182.56,500.078 1184.61,484.035 1186.66,468.112 1188.7,452.324 1190.75,436.684 1192.79,421.208 1194.84,405.911 1196.89,390.809 1198.93,375.915 1200.98,361.246 1203.02,346.815 1205.07,332.639 1207.12,318.731 1209.16,305.106 1211.21,291.779 1213.25,278.763 1215.3,266.073 1217.34,253.723 1219.39,241.725 1221.44,230.094 1223.48,218.842 1225.53,207.982 1227.57,197.526 1229.62,187.485 1231.67,177.872 1233.71,168.697 1235.76,159.97 1237.8,151.703 1239.85,143.903 1241.9,136.582 1243.94,129.746 1245.99,123.405 1248.03,117.565 1250.08,112.234 1252.12,107.417 1254.17,103.121 1256.22,99.3508 1258.26,96.1107 1260.31,93.4046 1262.35,91.2359 1264.4,89.6071 1266.45,88.5201 1268.49,87.9763 1270.54,87.9763 1272.58,88.5201 1274.63,89.6071 1276.68,91.2359 1278.72,93.4046 1280.77,96.1107 1282.81,99.3508 1284.86,103.121 1286.91,107.417 1288.95,112.234 1291,117.565 1293.04,123.405 1295.09,129.746 1297.13,136.582 1299.18,143.903 1301.23,151.703 1303.27,159.97 1305.32,168.697 1307.36,177.872 1309.41,187.485 1311.46,197.526 1313.5,207.982 1315.55,218.842 1317.59,230.094 1319.64,241.725 1321.69,253.723 1323.73,266.073 1325.78,278.763 1327.82,291.779 1329.87,305.106 1331.91,318.731 1333.96,332.639 1336.01,346.815 1338.05,361.246 1340.1,375.915 1342.14,390.809 1344.19,405.911 1346.24,421.208 1348.28,436.684 1350.33,452.324 1352.37,468.112 1354.42,484.035 1356.47,500.078 1358.51,516.225 1360.56,532.462 1362.6,548.774 1364.65,565.147 1366.7,581.568 1368.74,598.022 1370.79,614.495 1372.83,630.974 1374.88,647.446 1376.92,663.898 1378.97,680.317 1381.02,696.691 1383.06,713.008 1385.11,729.256 1387.15,745.424 1389.2,761.5 1391.25,777.475 1393.29,793.338 1395.34,809.079 1397.38,824.689 1399.43,840.157 1401.48,855.477 1403.52,870.639 1405.57,885.635 1407.61,900.458 1409.66,915.101 1411.7,929.556 1413.75,943.819 1415.8,957.882 1417.84,971.74 1419.89,985.388 1421.93,998.822 1423.98,1012.04 1426.03,1025.03 1428.07,1037.79 1430.12,1050.33 1432.16,1062.63 1434.21,1074.7 1436.26,1086.53 1438.3,1098.12 1440.35,1109.48 1442.39,1120.59 1444.44,1131.45 1446.49,1142.08 1448.53,1152.46 1450.58,1162.6 1452.62,1172.5 1454.67,1182.16 1456.71,1191.58 1458.76,1200.75 1460.81,1209.69 1462.85,1218.4 1464.9,1226.86 1466.94,1235.1 1468.99,1243.11 1471.04,1250.89 1473.08,1258.44 1475.13,1265.77 1477.17,1272.89 1479.22,1279.78 1481.27,1286.47 1483.31,1292.94 1485.36,1299.21 1487.4,1305.28 1489.45,1311.15 1491.49,1316.82 1493.54,1322.3 1495.59,1327.6 1497.63,1332.71 1499.68,1337.64 1501.72,1342.4 1503.77,1346.99 1505.82,1351.4 1507.86,1355.66 1509.91,1359.75 1511.95,1363.7 1514,1367.49 1516.05,1371.13 1518.09,1374.63 1520.14,1377.99 1522.18,1381.22 1524.23,1384.31 1526.27,1387.28 1528.32,1390.13 1530.37,1392.86 1532.41,1395.47 1534.46,1397.97 1536.5,1400.36 1538.55,1402.65 1540.6,1404.83 1542.64,1406.92 1544.69,1408.92 1546.73,1410.82 1548.78,1412.64 1550.83,1414.37 1552.87,1416.02 1554.92,1417.6 1556.96,1419.1 1559.01,1420.52 1561.06,1421.88 1563.1,1423.17 1565.15,1424.4 1567.19,1425.57 1569.24,1426.68 1571.28,1427.73 1573.33,1428.73 1575.38,1429.68 1577.42,1430.57 1579.47,1431.42 1581.51,1432.23 1583.56,1433 1585.61,1433.72 1587.65,1434.4 1589.7,1435.05 1591.74,1435.66 1593.79,1436.24 1595.84,1436.78 1597.88,1437.3 1599.93,1437.78 1601.97,1438.24 1604.02,1438.67 1606.06,1439.08 1608.11,1439.46 1610.16,1439.83 1612.2,1440.16 1614.25,1440.48 1616.29,1440.78 1618.34,1441.07 1620.39,1441.33 1622.43,1441.58 1624.48,1441.82 1626.52,1442.03 1628.57,1442.24 1630.62,1442.43 1632.66,1442.61 1634.71,1442.78 1636.75,1442.94 1638.8,1443.09 1640.85,1443.23 1642.89,1443.36 1644.94,1443.48 1646.98,1443.59 1649.03,1443.7 1651.07,1443.8 1653.12,1443.89 1655.17,1443.97 1657.21,1444.05 1659.26,1444.13 1661.3,1444.2 1663.35,1444.26 1665.4,1444.32 1667.44,1444.38 1669.49,1444.43 1671.53,1444.48 1673.58,1444.53 1675.63,1444.57 1677.67,1444.61 1679.72,1444.64 1681.76,1444.67 1683.81,1444.71 1685.85,1444.73 1687.9,1444.76 1689.95,1444.79 1691.99,1444.81 1694.04,1444.83 1696.08,1444.85 1698.13,1444.87 1700.18,1444.88 1702.22,1444.9 1704.27,1444.91 1706.31,1444.93 1708.36,1444.94 1710.41,1444.95 1712.45,1444.96 1714.5,1444.97 1716.54,1444.98 1718.59,1444.98 1720.64,1444.99 1722.68,1445 1724.73,1445.01 1726.77,1445.01 1728.82,1445.02 1730.86,1445.02 1732.91,1445.03 1734.96,1445.03 1737,1445.03 1739.05,1445.04 1741.09,1445.04 1743.14,1445.04 1745.19,1445.04 1747.23,1445.05 1749.28,1445.05 1751.32,1445.05 1753.37,1445.05 1755.42,1445.06 1757.46,1445.06 1759.51,1445.06 1761.55,1445.06 1763.6,1445.06 1765.64,1445.06 1767.69,1445.06 1769.74,1445.06 1771.78,1445.06 1773.83,1445.06 1775.87,1445.07 1777.92,1445.07 1779.97,1445.07 1782.01,1445.07 1784.06,1445.07 1786.1,1445.07 1788.15,1445.07 1790.2,1445.07 1792.24,1445.07 1794.29,1445.07 1796.33,1445.07 1798.38,1445.07 1800.43,1445.07 1802.47,1445.07 1804.52,1445.07 1806.56,1445.07 1808.61,1445.07 1810.65,1445.07 1812.7,1445.07 1814.75,1445.07 1816.79,1445.07 1818.84,1445.07 1820.88,1445.07 1822.93,1445.07 1824.98,1445.07 1827.02,1445.07 1829.07,1445.07 1831.11,1445.07 1833.16,1445.07 1835.21,1445.07 1837.25,1445.07 1839.3,1445.07 1841.34,1445.07 1843.39,1445.07 1845.43,1445.07 1847.48,1445.07 1849.53,1445.07 1851.57,1445.07 1853.62,1445.07 1855.66,1445.07 1857.71,1445.07 1859.76,1445.07 1861.8,1445.07 1863.85,1445.07 1865.89,1445.07 1867.94,1445.07 1869.99,1445.07 1872.03,1445.07 1874.08,1445.07 1876.12,1445.07 1878.17,1445.07 1880.22,1445.07 1882.26,1445.07 1884.31,1445.07 1886.35,1445.07 1888.4,1445.07 1890.44,1445.07 1892.49,1445.07 1894.54,1445.07 1896.58,1445.07 1898.63,1445.07 1900.67,1445.07 1902.72,1445.07 1904.77,1445.07 1906.81,1445.07 1908.86,1445.07 1910.9,1445.07 1912.95,1445.07 1915,1445.07 1917.04,1445.07 1919.09,1445.07 1921.13,1445.07 1923.18,1445.07 1925.22,1445.07 1927.27,1445.07 1929.32,1445.07 1931.36,1445.07 1933.41,1445.07 1935.45,1445.07 1937.5,1445.07 1939.55,1445.07 1941.59,1445.07 1943.64,1445.07 1945.68,1445.07 1947.73,1445.07 1949.78,1445.07 1951.82,1445.07 1953.87,1445.07 1955.91,1445.07 1957.96,1445.07 1960.01,1445.07 1962.05,1445.07 1964.1,1445.07 1966.14,1445.07 1968.19,1445.07 1970.23,1445.07 1972.28,1445.07 1974.33,1445.07 1976.37,1445.07 1978.42,1445.07 1980.46,1445.07 1982.51,1445.07 1984.56,1445.07 1986.6,1445.07 1988.65,1445.07 1990.69,1445.07 1992.74,1445.07 1994.79,1445.07 1996.83,1445.07 1998.88,1445.07 2000.92,1445.07 2002.97,1445.07 2005.01,1445.07 2007.06,1445.07 2009.11,1445.07 2011.15,1445.07 2013.2,1445.07 2015.24,1445.07 2017.29,1445.07 2019.34,1445.07 2021.38,1445.07 2023.43,1445.07 2025.47,1445.07 2027.52,1445.07 2029.57,1445.07 2031.61,1445.07 2033.66,1445.07 2035.7,1445.07 2037.75,1445.07 2039.8,1445.07 2041.84,1445.07 2043.89,1445.07 2045.93,1445.07 2047.98,1445.07 2050.02,1445.07 2052.07,1445.07 2054.12,1445.07 2056.16,1445.07 2058.21,1445.07 2060.25,1445.07 2062.3,1445.07 2064.35,1445.07 2066.39,1445.07 2068.44,1445.07 2070.48,1445.07 2072.53,1445.07 2074.58,1445.07 2076.62,1445.07 2078.67,1445.07 2080.71,1445.07 2082.76,1445.07 2084.8,1445.07 2086.85,1445.07 2088.9,1445.07 2090.94,1445.07 2092.99,1445.07 2095.03,1445.07 2097.08,1445.07 2099.13,1445.07 2101.17,1445.07 2103.22,1445.07 2105.26,1445.07 2107.31,1445.07 2109.36,1445.07 2111.4,1445.07 2113.45,1445.07 2115.49,1445.07 2117.54,1445.07 2119.59,1445.07 2121.63,1445.07 2123.68,1445.07 2125.72,1445.07 2127.77,1445.07 2129.81,1445.07 2131.86,1445.07 2133.91,1445.07 2135.95,1445.07 2138,1445.07 2140.04,1445.07 2142.09,1445.07 2144.14,1445.07 2146.18,1445.07 2148.23,1445.07 2150.27,1445.07 2152.32,1445.07 2154.37,1445.07 2156.41,1445.07 2158.46,1445.07 2160.5,1445.07 2162.55,1445.07 2164.59,1445.07 2166.64,1445.07 2168.69,1445.07 2170.73,1445.07 2172.78,1445.07 2174.82,1445.07 2176.87,1445.07 2178.92,1445.07 2180.96,1445.07 2183.01,1445.07 2185.05,1445.07 2187.1,1445.07 2189.15,1445.07 2191.19,1445.07 2193.24,1445.07 2195.28,1445.07 2197.33,1445.07 2199.38,1445.07 2201.42,1445.07 2203.47,1445.07 2205.51,1445.07 2207.56,1445.07 2209.6,1445.07 2211.65,1445.07 2213.7,1445.07 2215.74,1445.07 2217.79,1445.07 2219.83,1445.07 2221.88,1445.07 2223.93,1445.07 2225.97,1445.07 2228.02,1445.07 2230.06,1445.07 2232.11,1445.07 2234.16,1445.07 2236.2,1445.07 2238.25,1445.07 2240.29,1445.07 2242.34,1445.07 2244.38,1445.07 2246.43,1445.07 2248.48,1445.07 2250.52,1445.07 2252.57,1445.07 2254.61,1445.07 2256.66,1445.07 2258.71,1445.07 2260.75,1445.07 2262.8,1445.07 2264.84,1445.07 2266.89,1445.07 2268.94,1445.07 2270.98,1445.07 2273.03,1445.07 2275.07,1445.07 2277.12,1445.07 2279.16,1445.07 2281.21,1445.07 2283.26,1445.07 2285.3,1445.07 2287.35,1445.07 2289.39,1445.07 2291.44,1445.07 "></polyline>
<polyline clip-path="url(#clip082)" style="stroke:#e26f46; stroke-linecap:round; stroke-linejoin:round; stroke-width:4; stroke-opacity:1; fill:none" points="247.59,1444.29 249.635,1444.29 251.681,1444.29 253.727,1444.29 255.773,1444.29 257.819,1444.3 259.865,1445.07 261.911,1444.31 263.957,1444.31 266.003,1444.32 268.048,1444.33 270.094,1444.34 272.14,1444.34 274.186,1444.35 276.232,1444.36 278.278,1444.37 280.324,1444.38 282.37,1444.39 284.416,1444.4 286.462,1444.41 288.507,1444.42 290.553,1445.07 292.599,1444.45 294.645,1444.46 296.691,1444.47 298.737,1444.48 300.783,1445.07 302.829,1444.5 304.875,1444.51 306.921,1444.52 308.966,1444.54 311.012,1445.07 313.058,1444.55 315.104,1444.56 317.15,1444.57 319.196,1444.58 321.242,1444.59 323.288,1444.6 325.334,1444.6 327.38,1444.61 329.425,1445.07 331.471,1444.62 333.517,1444.63 335.563,1444.63 337.609,1444.63 339.655,1444.64 341.701,1444.64 343.747,1444.64 345.793,1444.64 347.838,1444.64 349.884,1444.65 351.93,1444.65 353.976,1444.65 356.022,1444.65 358.068,1444.65 360.114,1444.65 362.16,1444.65 364.206,1444.65 366.252,1444.65 368.297,1445.07 370.343,1444.64 372.389,1444.64 374.435,1444.64 376.481,1444.64 378.527,1444.65 380.573,1444.65 382.619,1444.65 384.665,1444.65 386.711,1444.65 388.756,1444.66 390.802,1444.66 392.848,1444.66 394.894,1444.67 396.94,1444.68 398.986,1444.68 401.032,1444.69 403.078,1444.7 405.124,1444.71 407.169,1444.72 409.215,1444.73 411.261,1445.07 413.307,1444.76 415.353,1445.07 417.399,1444.79 419.445,1444.81 421.491,1444.83 423.537,1444.85 425.583,1444.87 427.628,1444.89 429.674,1444.91 431.72,1445.07 433.766,1444.96 435.812,1444.98 437.858,1445.01 439.904,1445.03 441.95,1445.06 443.996,1445.07 446.042,1445.11 448.087,1445.07 450.133,1445.17 452.179,1445.07 454.225,1445.23 456.271,1445.26 458.317,1445.28 460.363,1445.31 462.409,1445.34 464.455,1445.37 466.5,1445.4 468.546,1445.42 470.592,1445.07 472.638,1445.48 474.684,1445.5 476.73,1445.53 478.776,1445.07 480.822,1445.57 482.868,1445.59 484.914,1445.61 486.959,1445.63 489.005,1445.64 491.051,1445.66 493.097,1445.67 495.143,1445.68 497.189,1445.69 499.235,1445.7 501.281,1445.71 503.327,1445.71 505.373,1445.72 507.418,1445.72 509.464,1445.71 511.51,1445.71 513.556,1445.71 515.602,1445.7 517.648,1445.69 519.694,1445.68 521.74,1445.67 523.786,1445.65 525.831,1445.63 527.877,1445.62 529.923,1445.6 531.969,1445.57 534.015,1445.55 536.061,1445.53 538.107,1445.5 540.153,1445.47 542.199,1445.44 544.245,1445.42 546.29,1445.38 548.336,1445.35 550.382,1445.32 552.428,1445.29 554.474,1445.26 556.52,1445.07 558.566,1445.19 560.612,1445.15 562.658,1445.12 564.704,1445.09 566.749,1445.05 568.795,1445.02 570.841,1444.99 572.887,1444.96 574.933,1444.93 576.979,1444.9 579.025,1444.87 581.071,1444.84 583.117,1444.82 585.162,1444.79 587.208,1444.77 589.254,1444.75 591.3,1444.73 593.346,1444.72 595.392,1444.7 597.438,1444.69 599.484,1444.68 601.53,1444.67 603.576,1444.66 605.621,1444.66 607.667,1444.66 609.713,1444.66 611.759,1444.66 613.805,1444.66 615.851,1444.67 617.897,1444.68 619.943,1444.69 621.989,1445.07 624.035,1444.72 626.08,1445.07 628.126,1444.76 630.172,1444.78 632.218,1444.81 634.264,1444.83 636.31,1444.86 638.356,1444.89 640.402,1444.92 642.448,1444.95 644.493,1444.98 646.539,1445.01 648.585,1445.05 650.631,1445.08 652.677,1445.12 654.723,1445.15 656.769,1445.19 658.815,1445.22 660.861,1445.25 662.907,1445.29 664.952,1445.32 666.998,1445.36 669.044,1445.39 671.09,1445.07 673.136,1445.45 675.182,1445.48 677.228,1445.51 679.274,1445.53 681.32,1445.55 683.366,1445.58 685.411,1445.6 687.457,1445.61 689.503,1445.63 691.549,1445.64 693.595,1445.65 695.641,1445.66 697.687,1445.66 699.733,1445.67 701.779,1445.67 703.825,1445.66 705.87,1445.66 707.916,1445.07 709.962,1445.07 712.008,1445.63 714.054,1445.61 716.1,1445.07 718.146,1445.57 720.192,1445.55 722.238,1445.52 724.283,1445.49 726.329,1445.46 728.375,1445.43 730.421,1445.07 732.467,1445.36 734.513,1445.32 736.559,1445.28 738.605,1445.24 740.651,1445.19 742.697,1445.15 744.742,1445.1 746.788,1445.06 748.834,1445.01 750.88,1444.97 752.926,1445.07 754.972,1444.88 757.018,1444.83 759.064,1444.79 761.11,1444.74 763.156,1444.7 765.201,1444.66 767.247,1444.62 769.293,1444.58 771.339,1444.54 773.385,1444.51 775.431,1445.06 777.477,1444.44 779.523,1444.42 781.569,1444.39 783.614,1444.37 785.66,1444.35 787.706,1444.33 789.752,1444.31 791.798,1444.3 793.844,1444.3 795.89,1444.29 797.936,1444.29 799.982,1444.29 802.028,1444.29 804.073,1444.3 806.119,1444.31 808.165,1444.33 810.211,1445.02 812.257,1445.01 814.303,1444.38 816.349,1444.41 818.395,1444.99 820.441,1444.47 822.487,1444.5 824.532,1444.53 826.578,1444.57 828.624,1444.61 830.67,1444.94 832.716,1444.68 834.762,1444.72 836.808,1444.76 838.854,1444.8 840.9,1444.84 842.945,1444.88 844.991,1444.92 847.037,1444.96 849.083,1445 851.129,1445.03 853.175,1445.06 855.221,1445.09 857.267,1445.11 859.313,1445.13 861.359,1445.15 863.404,1445.16 865.45,1445.17 867.496,1445.17 869.542,1445.17 871.588,1444.38 873.634,1444.32 875.68,1445.11 877.726,1445.08 879.772,1445.04 881.818,1444.99 883.863,1444.93 885.909,1443.89 887.955,1444.79 890.001,1444.7 892.047,1444.6 894.093,1444.49 896.139,1444.37 898.185,1444.23 900.231,1443.09 902.276,1443.92 904.322,1443.74 906.368,1443.55 908.414,1442.43 910.46,1443.12 912.506,1442.88 914.552,1442.63 916.598,1442.35 918.644,1441.33 920.69,1441.75 922.735,1441.42 924.781,1441.07 926.827,1440.7 928.873,1440.3 930.919,1439.88 932.965,1439.44 935.011,1438.98 937.057,1438.49 939.103,1437.97 941.149,1437.42 943.194,1436.85 945.24,1436.24 947.286,1435.61 949.332,1434.94 951.378,1434.24 953.424,1433.5 955.47,1433 957.516,1431.91 959.562,1431.05 961.607,1430.16 963.653,1429.68 965.699,1428.23 967.745,1427.2 969.791,1426.68 971.837,1424.98 973.883,1423.79 975.929,1422.54 977.975,1421.23 980.021,1419.86 982.066,1418.43 984.112,1417.6 986.158,1415.36 988.204,1413.71 990.25,1411.99 992.296,1410.19 994.342,1408.31 996.388,1406.34 998.434,1404.28 1000.48,1402.12 1002.53,1399.87 1004.57,1397.52 1006.62,1395.06 1008.66,1392.5 1010.71,1389.82 1012.75,1387.28 1014.8,1384.11 1016.85,1381.07 1018.89,1377.9 1020.94,1374.59 1022.98,1371.15 1025.03,1367.57 1027.08,1363.83 1029.12,1359.75 1031.17,1355.91 1033.21,1351.71 1035.26,1347.34 1037.31,1342.81 1039.35,1338.1 1041.4,1333.21 1043.44,1328.14 1045.49,1322.88 1047.54,1317.43 1049.58,1311.79 1051.63,1305.94 1053.67,1299.89 1055.72,1293.63 1057.76,1287.16 1059.81,1280.48 1061.86,1273.57 1063.9,1265.77 1065.95,1259.09 1067.99,1251.5 1070.04,1243.69 1072.09,1235.63 1074.13,1227.34 1076.18,1218.81 1078.22,1210.04 1080.27,1201.03 1082.32,1191.77 1084.36,1182.26 1086.41,1172.5 1088.45,1162.5 1090.5,1152.24 1092.54,1142.08 1094.59,1130.99 1096.64,1119.99 1098.68,1108.74 1100.73,1097.24 1102.77,1085.5 1104.82,1073.51 1106.87,1061.29 1108.91,1048.83 1110.96,1036.13 1113,1023.19 1115.05,1010.03 1117.1,996.65 1119.14,983.046 1121.19,969.228 1123.23,955.201 1125.28,940.97 1127.33,926.542 1129.37,911.923 1131.42,897.12 1133.46,885.635 1135.51,866.994 1137.55,851.687 1139.6,836.227 1141.65,820.625 1143.69,804.89 1145.74,789.03 1147.78,773.057 1149.83,756.98 1151.88,740.811 1153.92,724.561 1155.97,708.24 1158.01,691.861 1160.06,675.436 1162.11,658.977 1164.15,642.496 1166.2,626.007 1168.24,609.523 1170.29,593.056 1172.33,576.62 1174.38,560.23 1176.43,543.899 1178.47,527.64 1180.52,511.469 1182.56,495.399 1184.61,479.445 1186.66,463.621 1188.7,447.942 1190.75,432.423 1192.79,417.077 1194.84,401.92 1196.89,386.965 1198.93,372.228 1200.98,357.723 1203.02,343.463 1205.07,329.464 1207.12,315.739 1209.16,302.302 1211.21,289.167 1213.25,276.347 1215.3,263.856 1217.34,251.705 1219.39,239.909 1221.44,228.479 1223.48,217.428 1225.53,206.767 1227.57,196.508 1229.62,187.485 1231.67,177.238 1233.71,168.248 1235.76,159.97 1237.8,151.607 1239.85,143.975 1241.9,136.812 1243.94,130.127 1245.99,123.927 1248.03,118.219 1250.08,113.01 1252.12,108.304 1254.17,104.108 1256.22,99.3508 1258.26,97.2633 1260.31,94.6216 1262.35,92.5047 1264.4,90.9149 1266.45,89.854 1268.49,89.3233 1270.54,89.3233 1272.58,89.854 1274.63,90.9149 1276.68,92.5047 1278.72,94.6216 1280.77,97.2633 1282.81,100.427 1284.86,103.121 1286.91,108.304 1288.95,113.01 1291,118.219 1293.04,123.927 1295.09,130.127 1297.13,136.812 1299.18,143.975 1301.23,151.607 1303.27,159.701 1305.32,168.248 1307.36,177.872 1309.41,186.661 1311.46,196.508 1313.5,206.767 1315.55,217.428 1317.59,228.479 1319.64,239.909 1321.69,251.705 1323.73,266.073 1325.78,276.347 1327.82,289.167 1329.87,302.302 1331.91,315.739 1333.96,329.464 1336.01,343.463 1338.05,357.723 1340.1,372.228 1342.14,386.965 1344.19,401.92 1346.24,417.077 1348.28,432.423 1350.33,447.942 1352.37,463.621 1354.42,479.445 1356.47,495.399 1358.51,511.469 1360.56,527.64 1362.6,543.899 1364.65,560.23 1366.7,576.62 1368.74,593.056 1370.79,609.523 1372.83,626.007 1374.88,642.496 1376.92,663.897 1378.97,675.436 1381.02,691.861 1383.06,708.24 1385.11,724.561 1387.15,740.811 1389.2,756.98 1391.25,773.057 1393.29,789.03 1395.34,804.89 1397.38,820.625 1399.43,836.227 1401.48,851.687 1403.52,866.994 1405.57,882.142 1407.61,897.12 1409.66,911.923 1411.7,926.542 1413.75,940.97 1415.8,955.201 1417.84,969.228 1419.89,983.046 1421.93,996.65 1423.98,1010.03 1426.03,1023.19 1428.07,1036.13 1430.12,1048.83 1432.16,1061.29 1434.21,1073.51 1436.26,1085.5 1438.3,1097.24 1440.35,1109.48 1442.39,1119.99 1444.44,1130.99 1446.49,1141.74 1448.53,1152.24 1450.58,1162.6 1452.62,1172.5 1454.67,1182.26 1456.71,1191.58 1458.76,1200.75 1460.81,1210.04 1462.85,1218.81 1464.9,1227.34 1466.94,1235.63 1468.99,1243.69 1471.04,1250.89 1473.08,1259.09 1475.13,1266.44 1477.17,1272.89 1479.22,1280.48 1481.27,1287.16 1483.31,1293.63 1485.36,1299.21 1487.4,1305.94 1489.45,1311.79 1491.49,1317.43 1493.54,1322.88 1495.59,1328.14 1497.63,1332.71 1499.68,1337.64 1501.72,1342.81 1503.77,1347.34 1505.82,1351.4 1507.86,1355.66 1509.91,1359.95 1511.95,1363.83 1514,1367.57 1516.05,1371.15 1518.09,1374.59 1520.14,1377.9 1522.18,1381.07 1524.23,1384.11 1526.27,1387.02 1528.32,1389.82 1530.37,1392.5 1532.41,1395.06 1534.46,1397.52 1536.5,1400.36 1538.55,1402.12 1540.6,1404.28 1542.64,1406.34 1544.69,1408.31 1546.73,1410.19 1548.78,1411.99 1550.83,1413.71 1552.87,1415.36 1554.92,1416.93 1556.96,1418.43 1559.01,1419.86 1561.06,1421.23 1563.1,1422.54 1565.15,1423.79 1567.19,1424.98 1569.24,1426.68 1571.28,1427.2 1573.33,1428.23 1575.38,1429.22 1577.42,1430.16 1579.47,1431.42 1581.51,1431.91 1583.56,1432.72 1585.61,1433.5 1587.65,1434.24 1589.7,1434.94 1591.74,1435.61 1593.79,1436.24 1595.84,1436.85 1597.88,1437.42 1599.93,1437.97 1601.97,1438.49 1604.02,1438.98 1606.06,1439.44 1608.11,1439.88 1610.16,1440.3 1612.2,1440.7 1614.25,1441.07 1616.29,1441.42 1618.34,1441.75 1620.39,1442.06 1622.43,1442.35 1624.48,1442.63 1626.52,1442.88 1628.57,1443.12 1630.62,1443.34 1632.66,1443.55 1634.71,1443.74 1636.75,1443.92 1638.8,1444.08 1640.85,1444.23 1642.89,1444.37 1644.94,1444.49 1646.98,1443.59 1649.03,1444.7 1651.07,1444.79 1653.12,1444.87 1655.17,1444.93 1657.21,1444.99 1659.26,1445.04 1661.3,1445.08 1663.35,1445.11 1665.4,1445.14 1667.44,1445.16 1669.49,1445.17 1671.53,1445.17 1673.58,1445.17 1675.63,1445.16 1677.67,1445.15 1679.72,1445.13 1681.76,1445.11 1683.81,1444.71 1685.85,1445.06 1687.9,1444.76 1689.95,1445 1691.99,1444.81 1694.04,1444.83 1696.08,1444.88 1698.13,1444.84 1700.18,1444.8 1702.22,1444.76 1704.27,1444.72 1706.31,1444.68 1708.36,1444.94 1710.41,1444.61 1712.45,1444.57 1714.5,1444.53 1716.54,1444.5 1718.59,1444.47 1720.64,1444.44 1722.68,1444.41 1724.73,1445.01 1726.77,1444.36 1728.82,1444.34 1730.86,1444.33 1732.91,1445.03 1734.96,1444.3 1737,1444.29 1739.05,1445.04 1741.09,1444.29 1743.14,1444.29 1745.19,1444.3 1747.23,1444.3 1749.28,1444.31 1751.32,1444.33 1753.37,1444.35 1755.42,1444.37 1757.46,1444.39 1759.51,1444.42 1761.55,1444.44 1763.6,1445.06 1765.64,1444.51 1767.69,1444.54 1769.74,1444.58 1771.78,1445.06 1773.83,1444.66 1775.87,1444.7 1777.92,1445.07 1779.97,1444.79 1782.01,1444.83 1784.06,1444.88 1786.1,1444.92 1788.15,1444.97 1790.2,1445.01 1792.24,1445.07 1794.29,1445.1 1796.33,1445.15 1798.38,1445.19 1800.43,1445.24 1802.47,1445.28 1804.52,1445.07 1806.56,1445.36 1808.61,1445.39 1810.65,1445.07 1812.7,1445.46 1814.75,1445.49 1816.79,1445.52 1818.84,1445.55 1820.88,1445.57 1822.93,1445.59 1824.98,1445.61 1827.02,1445.63 1829.07,1445.64 1831.11,1445.07 1833.16,1445.66 1835.21,1445.66 1837.25,1445.67 1839.3,1445.67 1841.34,1445.66 1843.39,1445.66 1845.43,1445.65 1847.48,1445.64 1849.53,1445.63 1851.57,1445.61 1853.62,1445.6 1855.66,1445.58 1857.71,1445.55 1859.76,1445.53 1861.8,1445.51 1863.85,1445.48 1865.89,1445.45 1867.94,1445.42 1869.99,1445.39 1872.03,1445.36 1874.08,1445.32 1876.12,1445.29 1878.17,1445.25 1880.22,1445.22 1882.26,1445.19 1884.31,1445.15 1886.35,1445.12 1888.4,1445.08 1890.44,1445.05 1892.49,1445.01 1894.54,1445.07 1896.58,1444.95 1898.63,1444.92 1900.67,1444.89 1902.72,1444.86 1904.77,1444.83 1906.81,1444.81 1908.86,1445.07 1910.9,1444.76 1912.95,1444.74 1915,1444.72 1917.04,1444.71 1919.09,1444.69 1921.13,1444.68 1923.18,1444.67 1925.22,1444.66 1927.27,1445.07 1929.32,1444.66 1931.36,1444.66 1933.41,1444.66 1935.45,1444.66 1937.5,1444.67 1939.55,1444.68 1941.59,1444.69 1943.64,1445.07 1945.68,1444.72 1947.73,1444.73 1949.78,1444.75 1951.82,1444.77 1953.87,1445.07 1955.91,1444.82 1957.96,1444.84 1960.01,1444.87 1962.05,1444.9 1964.1,1444.93 1966.14,1444.96 1968.19,1444.99 1970.23,1445.02 1972.28,1445.05 1974.33,1445.09 1976.37,1445.07 1978.42,1445.15 1980.46,1445.07 1982.51,1445.22 1984.56,1445.26 1986.6,1445.29 1988.65,1445.32 1990.69,1445.35 1992.74,1445.38 1994.79,1445.42 1996.83,1445.44 1998.88,1445.47 2000.92,1445.5 2002.97,1445.53 2005.01,1445.55 2007.06,1445.57 2009.11,1445.6 2011.15,1445.62 2013.2,1445.63 2015.24,1445.65 2017.29,1445.67 2019.34,1445.07 2021.38,1445.69 2023.43,1445.07 2025.47,1445.71 2027.52,1445.71 2029.57,1445.71 2031.61,1445.72 2033.66,1445.72 2035.7,1445.71 2037.75,1445.71 2039.8,1445.7 2041.84,1445.69 2043.89,1445.68 2045.93,1445.67 2047.98,1445.66 2050.02,1445.64 2052.07,1445.63 2054.12,1445.61 2056.16,1445.59 2058.21,1445.57 2060.25,1445.55 2062.3,1445.53 2064.35,1445.5 2066.39,1445.48 2068.44,1445.45 2070.48,1445.42 2072.53,1445.4 2074.58,1445.07 2076.62,1445.34 2078.67,1445.31 2080.71,1445.28 2082.76,1445.26 2084.8,1445.07 2086.85,1445.07 2088.9,1445.17 2090.94,1445.14 2092.99,1445.11 2095.03,1445.09 2097.08,1445.06 2099.13,1445.03 2101.17,1445.01 2103.22,1444.98 2105.26,1444.96 2107.31,1444.93 2109.36,1444.91 2111.4,1444.89 2113.45,1444.87 2115.49,1444.85 2117.54,1444.83 2119.59,1444.81 2121.63,1445.07 2123.68,1444.78 2125.72,1444.76 2127.77,1445.07 2129.81,1444.73 2131.86,1444.72 2133.91,1444.71 2135.95,1444.7 2138,1444.69 2140.04,1444.68 2142.09,1444.68 2144.14,1444.67 2146.18,1444.66 2148.23,1445.07 2150.27,1444.66 2152.32,1444.65 2154.37,1444.65 2156.41,1444.65 2158.46,1445.07 2160.5,1444.65 2162.55,1444.64 2164.59,1445.07 2166.64,1444.64 2168.69,1444.64 2170.73,1444.64 2172.78,1444.65 2174.82,1444.65 2176.87,1444.65 2178.92,1444.65 2180.96,1444.65 2183.01,1444.65 2185.05,1444.65 2187.1,1444.65 2189.15,1444.65 2191.19,1444.64 2193.24,1444.64 2195.28,1444.64 2197.33,1444.64 2199.38,1444.64 2201.42,1444.63 2203.47,1444.63 2205.51,1444.63 2207.56,1444.62 2209.6,1444.62 2211.65,1444.61 2213.7,1444.6 2215.74,1445.07 2217.79,1444.59 2219.83,1444.58 2221.88,1444.57 2223.93,1444.56 2225.97,1444.55 2228.02,1444.55 2230.06,1444.54 2232.11,1444.52 2234.16,1444.51 2236.2,1444.5 2238.25,1444.49 2240.29,1444.48 2242.34,1444.47 2244.38,1444.46 2246.43,1444.45 2248.48,1444.44 2250.52,1444.42 2252.57,1444.41 2254.61,1445.07 2256.66,1444.39 2258.71,1444.38 2260.75,1444.37 2262.8,1444.36 2264.84,1444.35 2266.89,1444.34 2268.94,1444.34 2270.98,1444.33 2273.03,1444.32 2275.07,1444.31 2277.12,1444.31 2279.16,1444.3 2281.21,1444.3 2283.26,1444.29 2285.3,1444.29 2287.35,1444.29 2289.39,1444.29 2291.44,1444.29 "></polyline>
<path clip-path="url(#clip080)" d="M1893.75 250.738 L2280.54 250.738 L2280.54 95.2176 L1893.75 95.2176  Z" fill="#ffffff" fill-rule="evenodd" fill-opacity="1"></path>
<polyline clip-path="url(#clip080)" style="stroke:#000000; stroke-linecap:round; stroke-linejoin:round; stroke-width:4; stroke-opacity:1; fill:none" points="1893.75,250.738 2280.54,250.738 2280.54,95.2176 1893.75,95.2176 1893.75,250.738 "></polyline>
<polyline clip-path="url(#clip080)" style="stroke:#009af9; stroke-linecap:round; stroke-linejoin:round; stroke-width:4; stroke-opacity:1; fill:none" points="1917.83,147.058 2062.26,147.058 "></polyline>
<path clip-path="url(#clip080)" d="M2098.23 141.398 Q2094.8 141.398 2092.81 144.083 Q2090.82 146.745 2090.82 151.398 Q2090.82 156.051 2092.79 158.736 Q2094.78 161.398 2098.23 161.398 Q2101.63 161.398 2103.62 158.713 Q2105.61 156.027 2105.61 151.398 Q2105.61 146.791 2103.62 144.106 Q2101.63 141.398 2098.23 141.398 M2098.23 137.787 Q2103.78 137.787 2106.95 141.398 Q2110.13 145.009 2110.13 151.398 Q2110.13 157.764 2106.95 161.398 Q2103.78 165.009 2098.23 165.009 Q2092.65 165.009 2089.48 161.398 Q2086.33 157.764 2086.33 151.398 Q2086.33 145.009 2089.48 141.398 Q2092.65 137.787 2098.23 137.787 Z" fill="#000000" fill-rule="nonzero" fill-opacity="1"></path><path clip-path="url(#clip080)" d="M2132.21 142.393 Q2131.49 141.977 2130.64 141.791 Q2129.8 141.583 2128.78 141.583 Q2125.17 141.583 2123.23 143.944 Q2121.31 146.282 2121.31 150.68 L2121.31 164.338 L2117.02 164.338 L2117.02 138.412 L2121.31 138.412 L2121.31 142.44 Q2122.65 140.078 2124.8 138.944 Q2126.95 137.787 2130.03 137.787 Q2130.47 137.787 2131.01 137.856 Q2131.54 137.903 2132.19 138.018 L2132.21 142.393 Z" fill="#000000" fill-rule="nonzero" fill-opacity="1"></path><path clip-path="url(#clip080)" d="M2136.68 138.412 L2140.94 138.412 L2140.94 164.338 L2136.68 164.338 L2136.68 138.412 M2136.68 128.319 L2140.94 128.319 L2140.94 133.713 L2136.68 133.713 L2136.68 128.319 Z" fill="#000000" fill-rule="nonzero" fill-opacity="1"></path><path clip-path="url(#clip080)" d="M2166.91 151.074 Q2166.91 146.444 2164.99 143.898 Q2163.09 141.352 2159.64 141.352 Q2156.21 141.352 2154.29 143.898 Q2152.39 146.444 2152.39 151.074 Q2152.39 155.68 2154.29 158.226 Q2156.21 160.773 2159.64 160.773 Q2163.09 160.773 2164.99 158.226 Q2166.91 155.68 2166.91 151.074 M2171.17 161.12 Q2171.17 167.74 2168.23 170.958 Q2165.29 174.199 2159.22 174.199 Q2156.98 174.199 2154.99 173.851 Q2153 173.527 2151.12 172.833 L2151.12 168.689 Q2153 169.708 2154.82 170.194 Q2156.65 170.68 2158.55 170.68 Q2162.74 170.68 2164.82 168.481 Q2166.91 166.305 2166.91 161.884 L2166.91 159.777 Q2165.59 162.069 2163.53 163.203 Q2161.47 164.338 2158.6 164.338 Q2153.83 164.338 2150.91 160.703 Q2148 157.069 2148 151.074 Q2148 145.055 2150.91 141.421 Q2153.83 137.787 2158.6 137.787 Q2161.47 137.787 2163.53 138.921 Q2165.59 140.055 2166.91 142.347 L2166.91 138.412 L2171.17 138.412 L2171.17 161.12 Z" fill="#000000" fill-rule="nonzero" fill-opacity="1"></path><path clip-path="url(#clip080)" d="M2179.94 138.412 L2184.2 138.412 L2184.2 164.338 L2179.94 164.338 L2179.94 138.412 M2179.94 128.319 L2184.2 128.319 L2184.2 133.713 L2179.94 133.713 L2179.94 128.319 Z" fill="#000000" fill-rule="nonzero" fill-opacity="1"></path><path clip-path="url(#clip080)" d="M2214.66 148.689 L2214.66 164.338 L2210.4 164.338 L2210.4 148.828 Q2210.4 145.148 2208.97 143.319 Q2207.53 141.49 2204.66 141.49 Q2201.21 141.49 2199.22 143.69 Q2197.23 145.889 2197.23 149.685 L2197.23 164.338 L2192.95 164.338 L2192.95 138.412 L2197.23 138.412 L2197.23 142.44 Q2198.76 140.102 2200.82 138.944 Q2202.9 137.787 2205.61 137.787 Q2210.08 137.787 2212.37 140.565 Q2214.66 143.319 2214.66 148.689 Z" fill="#000000" fill-rule="nonzero" fill-opacity="1"></path><path clip-path="url(#clip080)" d="M2234.94 151.305 Q2229.78 151.305 2227.79 152.486 Q2225.8 153.666 2225.8 156.514 Q2225.8 158.782 2227.28 160.125 Q2228.78 161.444 2231.35 161.444 Q2234.89 161.444 2237.02 158.944 Q2239.18 156.421 2239.18 152.254 L2239.18 151.305 L2234.94 151.305 M2243.44 149.546 L2243.44 164.338 L2239.18 164.338 L2239.18 160.402 Q2237.72 162.763 2235.54 163.898 Q2233.37 165.009 2230.22 165.009 Q2226.24 165.009 2223.88 162.787 Q2221.54 160.541 2221.54 156.791 Q2221.54 152.416 2224.45 150.194 Q2227.39 147.972 2233.2 147.972 L2239.18 147.972 L2239.18 147.555 Q2239.18 144.615 2237.23 143.018 Q2235.31 141.398 2231.82 141.398 Q2229.59 141.398 2227.49 141.93 Q2225.38 142.463 2223.44 143.527 L2223.44 139.592 Q2225.77 138.69 2227.97 138.25 Q2230.17 137.787 2232.25 137.787 Q2237.88 137.787 2240.66 140.703 Q2243.44 143.62 2243.44 149.546 Z" fill="#000000" fill-rule="nonzero" fill-opacity="1"></path><path clip-path="url(#clip080)" d="M2252.21 128.319 L2256.47 128.319 L2256.47 164.338 L2252.21 164.338 L2252.21 128.319 Z" fill="#000000" fill-rule="nonzero" fill-opacity="1"></path><polyline clip-path="url(#clip080)" style="stroke:#e26f46; stroke-linecap:round; stroke-linejoin:round; stroke-width:4; stroke-opacity:1; fill:none" points="1917.83,198.898 2062.26,198.898 "></polyline>
<path clip-path="url(#clip080)" d="M2106.84 191.247 L2106.84 195.229 Q2105.03 194.233 2103.2 193.747 Q2101.4 193.238 2099.55 193.238 Q2095.4 193.238 2093.11 195.877 Q2090.82 198.492 2090.82 203.238 Q2090.82 207.983 2093.11 210.622 Q2095.4 213.238 2099.55 213.238 Q2101.4 213.238 2103.2 212.752 Q2105.03 212.242 2106.84 211.247 L2106.84 215.182 Q2105.06 216.016 2103.14 216.432 Q2101.24 216.849 2099.08 216.849 Q2093.23 216.849 2089.78 213.168 Q2086.33 209.488 2086.33 203.238 Q2086.33 196.895 2089.8 193.261 Q2093.3 189.627 2099.36 189.627 Q2101.33 189.627 2103.2 190.043 Q2105.08 190.437 2106.84 191.247 Z" fill="#000000" fill-rule="nonzero" fill-opacity="1"></path><path clip-path="url(#clip080)" d="M2118.37 212.289 L2118.37 226.039 L2114.08 226.039 L2114.08 190.252 L2118.37 190.252 L2118.37 194.187 Q2119.71 191.872 2121.75 190.761 Q2123.81 189.627 2126.65 189.627 Q2131.38 189.627 2134.32 193.377 Q2137.28 197.127 2137.28 203.238 Q2137.28 209.349 2134.32 213.099 Q2131.38 216.849 2126.65 216.849 Q2123.81 216.849 2121.75 215.738 Q2119.71 214.603 2118.37 212.289 M2132.86 203.238 Q2132.86 198.539 2130.91 195.877 Q2128.99 193.192 2125.61 193.192 Q2122.23 193.192 2120.29 195.877 Q2118.37 198.539 2118.37 203.238 Q2118.37 207.937 2120.29 210.622 Q2122.23 213.284 2125.61 213.284 Q2128.99 213.284 2130.91 210.622 Q2132.86 207.937 2132.86 203.238 Z" fill="#000000" fill-rule="nonzero" fill-opacity="1"></path><path clip-path="url(#clip080)" d="M2160.87 191.016 L2160.87 195.043 Q2159.06 194.117 2157.12 193.655 Q2155.17 193.192 2153.09 193.192 Q2149.92 193.192 2148.32 194.164 Q2146.75 195.136 2146.75 197.08 Q2146.75 198.562 2147.88 199.418 Q2149.01 200.252 2152.44 201.016 L2153.9 201.34 Q2158.44 202.312 2160.33 204.094 Q2162.26 205.854 2162.26 209.025 Q2162.26 212.636 2159.39 214.742 Q2156.54 216.849 2151.54 216.849 Q2149.45 216.849 2147.19 216.432 Q2144.94 216.039 2142.44 215.228 L2142.44 210.83 Q2144.8 212.057 2147.09 212.682 Q2149.39 213.284 2151.63 213.284 Q2154.64 213.284 2156.26 212.266 Q2157.88 211.224 2157.88 209.349 Q2157.88 207.613 2156.7 206.687 Q2155.54 205.761 2151.58 204.904 L2150.1 204.557 Q2146.14 203.724 2144.39 202.011 Q2142.63 200.275 2142.63 197.266 Q2142.63 193.608 2145.22 191.618 Q2147.81 189.627 2152.58 189.627 Q2154.94 189.627 2157.02 189.974 Q2159.11 190.321 2160.87 191.016 Z" fill="#000000" fill-rule="nonzero" fill-opacity="1"></path></svg>