<svg xmlns="http://www.w3.org/2000/svg" xmlns:xlink="http://www.w3.org/1999/xlink" width="600" height="400" viewBox="0 0 2400 1600">
<defs>
  <clipPath id="clip270">
    <rect x="0" y="0" width="2400" height="1600"></rect>
  </clipPath>
</defs>
<path clip-path="url(#clip270)" d="M0 1600 L2400 1600 L2400 8.88178e-14 L0 8.88178e-14  Z" fill="#ffffff" fill-rule="evenodd" fill-opacity="1"></path>
<defs>
  <clipPath id="clip271">
    <rect x="480" y="0" width="1681" height="1600"></rect>
  </clipPath>
</defs>
<path clip-path="url(#clip270)" d="M194.422 1486.45 L2352.76 1486.45 L2352.76 47.2441 L194.422 47.2441  Z" fill="#ffffff" fill-rule="evenodd" fill-opacity="1"></path>
<defs>
  <clipPath id="clip272">
    <rect x="194" y="47" width="2159" height="1440"></rect>
  </clipPath>
</defs>
<polyline clip-path="url(#clip272)" style="stroke:#000000; stroke-linecap:round; stroke-linejoin:round; stroke-width:2; stroke-opacity:0.1; fill:none" points="510.028,1486.45 510.028,47.2441 "></polyline>
<polyline clip-path="url(#clip272)" style="stroke:#000000; stroke-linecap:round; stroke-linejoin:round; stroke-width:2; stroke-opacity:0.1; fill:none" points="891.808,1486.45 891.808,47.2441 "></polyline>
<polyline clip-path="url(#clip272)" style="stroke:#000000; stroke-linecap:round; stroke-linejoin:round; stroke-width:2; stroke-opacity:0.1; fill:none" points="1273.59,1486.45 1273.59,47.2441 "></polyline>
<polyline clip-path="url(#clip272)" style="stroke:#000000; stroke-linecap:round; stroke-linejoin:round; stroke-width:2; stroke-opacity:0.1; fill:none" points="1655.37,1486.45 1655.37,47.2441 "></polyline>
<polyline clip-path="url(#clip272)" style="stroke:#000000; stroke-linecap:round; stroke-linejoin:round; stroke-width:2; stroke-opacity:0.1; fill:none" points="2037.15,1486.45 2037.15,47.2441 "></polyline>
<polyline clip-path="url(#clip272)" style="stroke:#000000; stroke-linecap:round; stroke-linejoin:round; stroke-width:2; stroke-opacity:0.1; fill:none" points="194.422,1350.8 2352.76,1350.8 "></polyline>
<polyline clip-path="url(#clip272)" style="stroke:#000000; stroke-linecap:round; stroke-linejoin:round; stroke-width:2; stroke-opacity:0.1; fill:none" points="194.422,1151.55 2352.76,1151.55 "></polyline>
<polyline clip-path="url(#clip272)" style="stroke:#000000; stroke-linecap:round; stroke-linejoin:round; stroke-width:2; stroke-opacity:0.1; fill:none" points="194.422,952.29 2352.76,952.29 "></polyline>
<polyline clip-path="url(#clip272)" style="stroke:#000000; stroke-linecap:round; stroke-linejoin:round; stroke-width:2; stroke-opacity:0.1; fill:none" points="194.422,753.034 2352.76,753.034 "></polyline>
<polyline clip-path="url(#clip272)" style="stroke:#000000; stroke-linecap:round; stroke-linejoin:round; stroke-width:2; stroke-opacity:0.1; fill:none" points="194.422,553.778 2352.76,553.778 "></polyline>
<polyline clip-path="url(#clip272)" style="stroke:#000000; stroke-linecap:round; stroke-linejoin:round; stroke-width:2; stroke-opacity:0.1; fill:none" points="194.422,354.522 2352.76,354.522 "></polyline>
<polyline clip-path="url(#clip272)" style="stroke:#000000; stroke-linecap:round; stroke-linejoin:round; stroke-width:2; stroke-opacity:0.1; fill:none" points="194.422,155.266 2352.76,155.266 "></polyline>
<polyline clip-path="url(#clip270)" style="stroke:#000000; stroke-linecap:round; stroke-linejoin:round; stroke-width:4; stroke-opacity:1; fill:none" points="194.422,1486.45 2352.76,1486.45 "></polyline>
<polyline clip-path="url(#clip270)" style="stroke:#000000; stroke-linecap:round; stroke-linejoin:round; stroke-width:4; stroke-opacity:1; fill:none" points="510.028,1486.45 510.028,1467.55 "></polyline>
<polyline clip-path="url(#clip270)" style="stroke:#000000; stroke-linecap:round; stroke-linejoin:round; stroke-width:4; stroke-opacity:1; fill:none" points="891.808,1486.45 891.808,1467.55 "></polyline>
<polyline clip-path="url(#clip270)" style="stroke:#000000; stroke-linecap:round; stroke-linejoin:round; stroke-width:4; stroke-opacity:1; fill:none" points="1273.59,1486.45 1273.59,1467.55 "></polyline>
<polyline clip-path="url(#clip270)" style="stroke:#000000; stroke-linecap:round; stroke-linejoin:round; stroke-width:4; stroke-opacity:1; fill:none" points="1655.37,1486.45 1655.37,1467.55 "></polyline>
<polyline clip-path="url(#clip270)" style="stroke:#000000; stroke-linecap:round; stroke-linejoin:round; stroke-width:4; stroke-opacity:1; fill:none" points="2037.15,1486.45 2037.15,1467.55 "></polyline>
<path clip-path="url(#clip270)" d="M479.09 1532.02 L508.766 1532.02 L508.766 1535.95 L479.09 1535.95 L479.09 1532.02 Z" fill="#000000" fill-rule="nonzero" fill-opacity="1"></path><path clip-path="url(#clip270)" d="M529.437 1529.7 Q526.289 1529.7 524.437 1531.86 Q522.608 1534.01 522.608 1537.76 Q522.608 1541.49 524.437 1543.66 Q526.289 1545.82 529.437 1545.82 Q532.585 1545.82 534.414 1543.66 Q536.266 1541.49 536.266 1537.76 Q536.266 1534.01 534.414 1531.86 Q532.585 1529.7 529.437 1529.7 M538.719 1515.05 L538.719 1519.31 Q536.96 1518.48 535.155 1518.04 Q533.372 1517.6 531.613 1517.6 Q526.983 1517.6 524.53 1520.72 Q522.099 1523.85 521.752 1530.17 Q523.118 1528.15 525.178 1527.09 Q527.238 1526 529.715 1526 Q534.923 1526 537.932 1529.17 Q540.965 1532.32 540.965 1537.76 Q540.965 1543.08 537.817 1546.3 Q534.669 1549.52 529.437 1549.52 Q523.442 1549.52 520.271 1544.94 Q517.099 1540.33 517.099 1531.6 Q517.099 1523.41 520.988 1518.55 Q524.877 1513.66 531.428 1513.66 Q533.187 1513.66 534.97 1514.01 Q536.775 1514.36 538.719 1515.05 Z" fill="#000000" fill-rule="nonzero" fill-opacity="1"></path><path clip-path="url(#clip270)" d="M861.276 1532.02 L890.952 1532.02 L890.952 1535.95 L861.276 1535.95 L861.276 1532.02 Z" fill="#000000" fill-rule="nonzero" fill-opacity="1"></path><path clip-path="url(#clip270)" d="M915.211 1530.21 Q918.567 1530.93 920.442 1533.2 Q922.341 1535.47 922.341 1538.8 Q922.341 1543.92 918.822 1546.72 Q915.304 1549.52 908.822 1549.52 Q906.646 1549.52 904.331 1549.08 Q902.04 1548.66 899.586 1547.81 L899.586 1543.29 Q901.53 1544.43 903.845 1545.01 Q906.16 1545.58 908.683 1545.58 Q913.081 1545.58 915.373 1543.85 Q917.688 1542.11 917.688 1538.8 Q917.688 1535.75 915.535 1534.03 Q913.405 1532.3 909.586 1532.3 L905.558 1532.3 L905.558 1528.45 L909.771 1528.45 Q913.22 1528.45 915.049 1527.09 Q916.878 1525.7 916.878 1523.11 Q916.878 1520.45 914.979 1519.03 Q913.104 1517.6 909.586 1517.6 Q907.665 1517.6 905.466 1518.01 Q903.267 1518.43 900.628 1519.31 L900.628 1515.14 Q903.29 1514.4 905.604 1514.03 Q907.942 1513.66 910.003 1513.66 Q915.327 1513.66 918.428 1516.09 Q921.53 1518.5 921.53 1522.62 Q921.53 1525.49 919.887 1527.48 Q918.243 1529.45 915.211 1530.21 Z" fill="#000000" fill-rule="nonzero" fill-opacity="1"></path><path clip-path="url(#clip270)" d="M1273.59 1517.37 Q1269.98 1517.37 1268.15 1520.93 Q1266.34 1524.47 1266.34 1531.6 Q1266.34 1538.71 1268.15 1542.27 Q1269.98 1545.82 1273.59 1545.82 Q1277.22 1545.82 1279.03 1542.27 Q1280.86 1538.71 1280.86 1531.6 Q1280.86 1524.47 1279.03 1520.93 Q1277.22 1517.37 1273.59 1517.37 M1273.59 1513.66 Q1279.4 1513.66 1282.45 1518.27 Q1285.53 1522.85 1285.53 1531.6 Q1285.53 1540.33 1282.45 1544.94 Q1279.4 1549.52 1273.59 1549.52 Q1267.78 1549.52 1264.7 1544.94 Q1261.64 1540.33 1261.64 1531.6 Q1261.64 1522.85 1264.7 1518.27 Q1267.78 1513.66 1273.59 1513.66 Z" fill="#000000" fill-rule="nonzero" fill-opacity="1"></path><path clip-path="url(#clip270)" d="M1659.62 1530.21 Q1662.97 1530.93 1664.85 1533.2 Q1666.75 1535.47 1666.75 1538.8 Q1666.75 1543.92 1663.23 1546.72 Q1659.71 1549.52 1653.23 1549.52 Q1651.05 1549.52 1648.74 1549.08 Q1646.45 1548.66 1643.99 1547.81 L1643.99 1543.29 Q1645.94 1544.43 1648.25 1545.01 Q1650.57 1545.58 1653.09 1545.58 Q1657.49 1545.58 1659.78 1543.85 Q1662.09 1542.11 1662.09 1538.8 Q1662.09 1535.75 1659.94 1534.03 Q1657.81 1532.3 1653.99 1532.3 L1649.96 1532.3 L1649.96 1528.45 L1654.18 1528.45 Q1657.63 1528.45 1659.46 1527.09 Q1661.28 1525.7 1661.28 1523.11 Q1661.28 1520.45 1659.39 1519.03 Q1657.51 1517.6 1653.99 1517.6 Q1652.07 1517.6 1649.87 1518.01 Q1647.67 1518.43 1645.03 1519.31 L1645.03 1515.14 Q1647.7 1514.4 1650.01 1514.03 Q1652.35 1513.66 1654.41 1513.66 Q1659.73 1513.66 1662.83 1516.09 Q1665.94 1518.5 1665.94 1522.62 Q1665.94 1525.49 1664.29 1527.48 Q1662.65 1529.45 1659.62 1530.21 Z" fill="#000000" fill-rule="nonzero" fill-opacity="1"></path><path clip-path="url(#clip270)" d="M2037.56 1529.7 Q2034.41 1529.7 2032.56 1531.86 Q2030.73 1534.01 2030.73 1537.76 Q2030.73 1541.49 2032.56 1543.66 Q2034.41 1545.82 2037.56 1545.82 Q2040.7 1545.82 2042.53 1543.66 Q2044.38 1541.49 2044.38 1537.76 Q2044.38 1534.01 2042.53 1531.86 Q2040.7 1529.7 2037.56 1529.7 M2046.84 1515.05 L2046.84 1519.31 Q2045.08 1518.48 2043.27 1518.04 Q2041.49 1517.6 2039.73 1517.6 Q2035.1 1517.6 2032.65 1520.72 Q2030.22 1523.85 2029.87 1530.17 Q2031.24 1528.15 2033.3 1527.09 Q2035.36 1526 2037.83 1526 Q2043.04 1526 2046.05 1529.17 Q2049.08 1532.32 2049.08 1537.76 Q2049.08 1543.08 2045.94 1546.3 Q2042.79 1549.52 2037.56 1549.52 Q2031.56 1549.52 2028.39 1544.94 Q2025.22 1540.33 2025.22 1531.6 Q2025.22 1523.41 2029.11 1518.55 Q2033 1513.66 2039.55 1513.66 Q2041.31 1513.66 2043.09 1514.01 Q2044.89 1514.36 2046.84 1515.05 Z" fill="#000000" fill-rule="nonzero" fill-opacity="1"></path><polyline clip-path="url(#clip270)" style="stroke:#000000; stroke-linecap:round; stroke-linejoin:round; stroke-width:4; stroke-opacity:1; fill:none" points="194.422,1486.45 194.422,47.2441 "></polyline>
<polyline clip-path="url(#clip270)" style="stroke:#000000; stroke-linecap:round; stroke-linejoin:round; stroke-width:4; stroke-opacity:1; fill:none" points="194.422,1350.8 213.32,1350.8 "></polyline>
<polyline clip-path="url(#clip270)" style="stroke:#000000; stroke-linecap:round; stroke-linejoin:round; stroke-width:4; stroke-opacity:1; fill:none" points="194.422,1151.55 213.32,1151.55 "></polyline>
<polyline clip-path="url(#clip270)" style="stroke:#000000; stroke-linecap:round; stroke-linejoin:round; stroke-width:4; stroke-opacity:1; fill:none" points="194.422,952.29 213.32,952.29 "></polyline>
<polyline clip-path="url(#clip270)" style="stroke:#000000; stroke-linecap:round; stroke-linejoin:round; stroke-width:4; stroke-opacity:1; fill:none" points="194.422,753.034 213.32,753.034 "></polyline>
<polyline clip-path="url(#clip270)" style="stroke:#000000; stroke-linecap:round; stroke-linejoin:round; stroke-width:4; stroke-opacity:1; fill:none" points="194.422,553.778 213.32,553.778 "></polyline>
<polyline clip-path="url(#clip270)" style="stroke:#000000; stroke-linecap:round; stroke-linejoin:round; stroke-width:4; stroke-opacity:1; fill:none" points="194.422,354.522 213.32,354.522 "></polyline>
<polyline clip-path="url(#clip270)" style="stroke:#000000; stroke-linecap:round; stroke-linejoin:round; stroke-width:4; stroke-opacity:1; fill:none" points="194.422,155.266 213.32,155.266 "></polyline>
<path clip-path="url(#clip270)" d="M50.9921 1351.25 L80.6679 1351.25 L80.6679 1355.19 L50.9921 1355.19 L50.9921 1351.25 Z" fill="#000000" fill-rule="nonzero" fill-opacity="1"></path><path clip-path="url(#clip270)" d="M100.76 1336.6 Q97.1493 1336.6 95.3206 1340.17 Q93.515 1343.71 93.515 1350.84 Q93.515 1357.94 95.3206 1361.51 Q97.1493 1365.05 100.76 1365.05 Q104.395 1365.05 106.2 1361.51 Q108.029 1357.94 108.029 1350.84 Q108.029 1343.71 106.2 1340.17 Q104.395 1336.6 100.76 1336.6 M100.76 1332.9 Q106.571 1332.9 109.626 1337.5 Q112.705 1342.09 112.705 1350.84 Q112.705 1359.56 109.626 1364.17 Q106.571 1368.75 100.76 1368.75 Q94.9502 1368.75 91.8715 1364.17 Q88.816 1359.56 88.816 1350.84 Q88.816 1342.09 91.8715 1337.5 Q94.9502 1332.9 100.76 1332.9 Z" fill="#000000" fill-rule="nonzero" fill-opacity="1"></path><path clip-path="url(#clip270)" d="M120.922 1362.2 L125.807 1362.2 L125.807 1368.08 L120.922 1368.08 L120.922 1362.2 Z" fill="#000000" fill-rule="nonzero" fill-opacity="1"></path><path clip-path="url(#clip270)" d="M148.839 1337.6 L137.033 1356.05 L148.839 1356.05 L148.839 1337.6 M147.612 1333.52 L153.492 1333.52 L153.492 1356.05 L158.422 1356.05 L158.422 1359.93 L153.492 1359.93 L153.492 1368.08 L148.839 1368.08 L148.839 1359.93 L133.237 1359.93 L133.237 1355.42 L147.612 1333.52 Z" fill="#000000" fill-rule="nonzero" fill-opacity="1"></path><path clip-path="url(#clip270)" d="M53.0754 1152 L82.7512 1152 L82.7512 1155.93 L53.0754 1155.93 L53.0754 1152 Z" fill="#000000" fill-rule="nonzero" fill-opacity="1"></path><path clip-path="url(#clip270)" d="M102.844 1137.34 Q99.2326 1137.34 97.4039 1140.91 Q95.5984 1144.45 95.5984 1151.58 Q95.5984 1158.69 97.4039 1162.25 Q99.2326 1165.79 102.844 1165.79 Q106.478 1165.79 108.283 1162.25 Q110.112 1158.69 110.112 1151.58 Q110.112 1144.45 108.283 1140.91 Q106.478 1137.34 102.844 1137.34 M102.844 1133.64 Q108.654 1133.64 111.709 1138.25 Q114.788 1142.83 114.788 1151.58 Q114.788 1160.31 111.709 1164.91 Q108.654 1169.5 102.844 1169.5 Q97.0335 1169.5 93.9549 1164.91 Q90.8993 1160.31 90.8993 1151.58 Q90.8993 1142.83 93.9549 1138.25 Q97.0335 1133.64 102.844 1133.64 Z" fill="#000000" fill-rule="nonzero" fill-opacity="1"></path><path clip-path="url(#clip270)" d="M123.006 1162.95 L127.89 1162.95 L127.89 1168.83 L123.006 1168.83 L123.006 1162.95 Z" fill="#000000" fill-rule="nonzero" fill-opacity="1"></path><path clip-path="url(#clip270)" d="M142.103 1164.89 L158.422 1164.89 L158.422 1168.83 L136.478 1168.83 L136.478 1164.89 Q139.14 1162.14 143.723 1157.51 Q148.33 1152.85 149.51 1151.51 Q151.755 1148.99 152.635 1147.25 Q153.538 1145.49 153.538 1143.8 Q153.538 1141.05 151.593 1139.31 Q149.672 1137.58 146.57 1137.58 Q144.371 1137.58 141.918 1138.34 Q139.487 1139.1 136.709 1140.66 L136.709 1135.93 Q139.533 1134.8 141.987 1134.22 Q144.441 1133.64 146.478 1133.64 Q151.848 1133.64 155.042 1136.33 Q158.237 1139.01 158.237 1143.5 Q158.237 1145.63 157.427 1147.55 Q156.64 1149.45 154.533 1152.04 Q153.955 1152.72 150.853 1155.93 Q147.751 1159.13 142.103 1164.89 Z" fill="#000000" fill-rule="nonzero" fill-opacity="1"></path><path clip-path="url(#clip270)" d="M101.246 938.089 Q97.6354 938.089 95.8067 941.654 Q94.0012 945.195 94.0012 952.325 Q94.0012 959.431 95.8067 962.996 Q97.6354 966.538 101.246 966.538 Q104.881 966.538 106.686 962.996 Q108.515 959.431 108.515 952.325 Q108.515 945.195 106.686 941.654 Q104.881 938.089 101.246 938.089 M101.246 934.385 Q107.057 934.385 110.112 938.992 Q113.191 943.575 113.191 952.325 Q113.191 961.052 110.112 965.658 Q107.057 970.241 101.246 970.241 Q95.4363 970.241 92.3576 965.658 Q89.3021 961.052 89.3021 952.325 Q89.3021 943.575 92.3576 938.992 Q95.4363 934.385 101.246 934.385 Z" fill="#000000" fill-rule="nonzero" fill-opacity="1"></path><path clip-path="url(#clip270)" d="M121.408 963.691 L126.293 963.691 L126.293 969.57 L121.408 969.57 L121.408 963.691 Z" fill="#000000" fill-rule="nonzero" fill-opacity="1"></path><path clip-path="url(#clip270)" d="M146.478 938.089 Q142.867 938.089 141.038 941.654 Q139.232 945.195 139.232 952.325 Q139.232 959.431 141.038 962.996 Q142.867 966.538 146.478 966.538 Q150.112 966.538 151.918 962.996 Q153.746 959.431 153.746 952.325 Q153.746 945.195 151.918 941.654 Q150.112 938.089 146.478 938.089 M146.478 934.385 Q152.288 934.385 155.343 938.992 Q158.422 943.575 158.422 952.325 Q158.422 961.052 155.343 965.658 Q152.288 970.241 146.478 970.241 Q140.668 970.241 137.589 965.658 Q134.533 961.052 134.533 952.325 Q134.533 943.575 137.589 938.992 Q140.668 934.385 146.478 934.385 Z" fill="#000000" fill-rule="nonzero" fill-opacity="1"></path><path clip-path="url(#clip270)" d="M102.844 738.833 Q99.2326 738.833 97.4039 742.398 Q95.5984 745.939 95.5984 753.069 Q95.5984 760.175 97.4039 763.74 Q99.2326 767.282 102.844 767.282 Q106.478 767.282 108.283 763.74 Q110.112 760.175 110.112 753.069 Q110.112 745.939 108.283 742.398 Q106.478 738.833 102.844 738.833 M102.844 735.129 Q108.654 735.129 111.709 739.736 Q114.788 744.319 114.788 753.069 Q114.788 761.796 111.709 766.402 Q108.654 770.985 102.844 770.985 Q97.0335 770.985 93.9549 766.402 Q90.8993 761.796 90.8993 753.069 Q90.8993 744.319 93.9549 739.736 Q97.0335 735.129 102.844 735.129 Z" fill="#000000" fill-rule="nonzero" fill-opacity="1"></path><path clip-path="url(#clip270)" d="M123.006 764.435 L127.89 764.435 L127.89 770.314 L123.006 770.314 L123.006 764.435 Z" fill="#000000" fill-rule="nonzero" fill-opacity="1"></path><path clip-path="url(#clip270)" d="M142.103 766.379 L158.422 766.379 L158.422 770.314 L136.478 770.314 L136.478 766.379 Q139.14 763.624 143.723 758.995 Q148.33 754.342 149.51 752.999 Q151.755 750.476 152.635 748.74 Q153.538 746.981 153.538 745.291 Q153.538 742.537 151.593 740.8 Q149.672 739.064 146.57 739.064 Q144.371 739.064 141.918 739.828 Q139.487 740.592 136.709 742.143 L136.709 737.421 Q139.533 736.287 141.987 735.708 Q144.441 735.129 146.478 735.129 Q151.848 735.129 155.042 737.814 Q158.237 740.499 158.237 744.99 Q158.237 747.12 157.427 749.041 Q156.64 750.939 154.533 753.532 Q153.955 754.203 150.853 757.421 Q147.751 760.615 142.103 766.379 Z" fill="#000000" fill-rule="nonzero" fill-opacity="1"></path><path clip-path="url(#clip270)" d="M100.76 539.577 Q97.1493 539.577 95.3206 543.142 Q93.515 546.683 93.515 553.813 Q93.515 560.919 95.3206 564.484 Q97.1493 568.026 100.76 568.026 Q104.395 568.026 106.2 564.484 Q108.029 560.919 108.029 553.813 Q108.029 546.683 106.2 543.142 Q104.395 539.577 100.76 539.577 M100.76 535.873 Q106.571 535.873 109.626 540.48 Q112.705 545.063 112.705 553.813 Q112.705 562.54 109.626 567.146 Q106.571 571.729 100.76 571.729 Q94.9502 571.729 91.8715 567.146 Q88.816 562.54 88.816 553.813 Q88.816 545.063 91.8715 540.48 Q94.9502 535.873 100.76 535.873 Z" fill="#000000" fill-rule="nonzero" fill-opacity="1"></path><path clip-path="url(#clip270)" d="M120.922 565.179 L125.807 565.179 L125.807 571.058 L120.922 571.058 L120.922 565.179 Z" fill="#000000" fill-rule="nonzero" fill-opacity="1"></path><path clip-path="url(#clip270)" d="M148.839 540.572 L137.033 559.021 L148.839 559.021 L148.839 540.572 M147.612 536.498 L153.492 536.498 L153.492 559.021 L158.422 559.021 L158.422 562.91 L153.492 562.91 L153.492 571.058 L148.839 571.058 L148.839 562.91 L133.237 562.91 L133.237 558.396 L147.612 536.498 Z" fill="#000000" fill-rule="nonzero" fill-opacity="1"></path><path clip-path="url(#clip270)" d="M101.084 340.321 Q97.4734 340.321 95.6447 343.886 Q93.8391 347.427 93.8391 354.557 Q93.8391 361.663 95.6447 365.228 Q97.4734 368.77 101.084 368.77 Q104.719 368.77 106.524 365.228 Q108.353 361.663 108.353 354.557 Q108.353 347.427 106.524 343.886 Q104.719 340.321 101.084 340.321 M101.084 336.617 Q106.895 336.617 109.95 341.224 Q113.029 345.807 113.029 354.557 Q113.029 363.284 109.95 367.89 Q106.895 372.473 101.084 372.473 Q95.2743 372.473 92.1956 367.89 Q89.1401 363.284 89.1401 354.557 Q89.1401 345.807 92.1956 341.224 Q95.2743 336.617 101.084 336.617 Z" fill="#000000" fill-rule="nonzero" fill-opacity="1"></path><path clip-path="url(#clip270)" d="M121.246 365.922 L126.131 365.922 L126.131 371.802 L121.246 371.802 L121.246 365.922 Z" fill="#000000" fill-rule="nonzero" fill-opacity="1"></path><path clip-path="url(#clip270)" d="M146.894 352.659 Q143.746 352.659 141.894 354.811 Q140.066 356.964 140.066 360.714 Q140.066 364.441 141.894 366.617 Q143.746 368.77 146.894 368.77 Q150.043 368.77 151.871 366.617 Q153.723 364.441 153.723 360.714 Q153.723 356.964 151.871 354.811 Q150.043 352.659 146.894 352.659 M156.177 338.006 L156.177 342.265 Q154.417 341.432 152.612 340.992 Q150.83 340.552 149.07 340.552 Q144.441 340.552 141.987 343.677 Q139.556 346.802 139.209 353.122 Q140.575 351.108 142.635 350.043 Q144.695 348.955 147.172 348.955 Q152.38 348.955 155.39 352.126 Q158.422 355.274 158.422 360.714 Q158.422 366.038 155.274 369.256 Q152.126 372.473 146.894 372.473 Q140.899 372.473 137.728 367.89 Q134.556 363.284 134.556 354.557 Q134.556 346.362 138.445 341.501 Q142.334 336.617 148.885 336.617 Q150.644 336.617 152.427 336.964 Q154.232 337.312 156.177 338.006 Z" fill="#000000" fill-rule="nonzero" fill-opacity="1"></path><path clip-path="url(#clip270)" d="M101.339 141.065 Q97.728 141.065 95.8993 144.63 Q94.0937 148.171 94.0937 155.301 Q94.0937 162.407 95.8993 165.972 Q97.728 169.514 101.339 169.514 Q104.973 169.514 106.779 165.972 Q108.608 162.407 108.608 155.301 Q108.608 148.171 106.779 144.63 Q104.973 141.065 101.339 141.065 M101.339 137.361 Q107.149 137.361 110.205 141.968 Q113.283 146.551 113.283 155.301 Q113.283 164.028 110.205 168.634 Q107.149 173.217 101.339 173.217 Q95.5289 173.217 92.4502 168.634 Q89.3947 164.028 89.3947 155.301 Q89.3947 146.551 92.4502 141.968 Q95.5289 137.361 101.339 137.361 Z" fill="#000000" fill-rule="nonzero" fill-opacity="1"></path><path clip-path="url(#clip270)" d="M121.501 166.666 L126.385 166.666 L126.385 172.546 L121.501 172.546 L121.501 166.666 Z" fill="#000000" fill-rule="nonzero" fill-opacity="1"></path><path clip-path="url(#clip270)" d="M146.57 156.134 Q143.237 156.134 141.316 157.917 Q139.418 159.699 139.418 162.824 Q139.418 165.949 141.316 167.731 Q143.237 169.514 146.57 169.514 Q149.904 169.514 151.825 167.731 Q153.746 165.926 153.746 162.824 Q153.746 159.699 151.825 157.917 Q149.927 156.134 146.57 156.134 M141.894 154.143 Q138.885 153.403 137.195 151.342 Q135.529 149.282 135.529 146.319 Q135.529 142.176 138.469 139.768 Q141.431 137.361 146.57 137.361 Q151.732 137.361 154.672 139.768 Q157.612 142.176 157.612 146.319 Q157.612 149.282 155.922 151.342 Q154.255 153.403 151.269 154.143 Q154.649 154.93 156.524 157.222 Q158.422 159.514 158.422 162.824 Q158.422 167.847 155.343 170.532 Q152.288 173.217 146.57 173.217 Q140.853 173.217 137.774 170.532 Q134.719 167.847 134.719 162.824 Q134.719 159.514 136.617 157.222 Q138.515 154.93 141.894 154.143 M140.181 146.759 Q140.181 149.444 141.848 150.949 Q143.538 152.454 146.57 152.454 Q149.58 152.454 151.269 150.949 Q152.982 149.444 152.982 146.759 Q152.982 144.074 151.269 142.569 Q149.58 141.065 146.57 141.065 Q143.538 141.065 141.848 142.569 Q140.181 144.074 140.181 146.759 Z" fill="#000000" fill-rule="nonzero" fill-opacity="1"></path><polyline clip-path="url(#clip272)" style="stroke:#009af9; stroke-linecap:round; stroke-linejoin:round; stroke-width:4; stroke-opacity:1; fill:none" points="255.507,640.044 257.545,1085.2 259.583,962.108 261.622,1308.73 263.66,815.065 265.698,1012.94 267.736,745.37 269.774,810.78 271.813,808.865 273.851,1112.42 275.889,910.535 277.927,1025.81 279.965,905.744 282.004,1105.15 284.042,1033.21 286.08,640.81 288.118,1096.5 290.156,789.661 292.195,971.414 294.233,815.707 296.271,915.735 298.309,706.206 300.347,728.716 302.386,1077.52 304.424,1069.24 306.462,989.147 308.5,1107.97 310.538,711.598 312.577,1105 314.615,838.138 316.653,1102.41 318.691,1011.34 320.729,1071.09 322.768,1278.94 324.806,615.471 326.844,961.83 328.882,1063.89 330.921,1091.2 332.959,952.161 334.997,931.669 337.035,846.227 339.073,814.065 341.112,914.214 343.15,934.716 345.188,992.136 347.226,873.957 349.264,1242.58 351.303,878.703 353.341,1223.73 355.379,1082.12 357.417,1098.61 359.455,1160.22 361.494,918.841 363.532,969.356 365.57,1038.79 367.608,747.679 369.646,605.838 371.685,1094.69 373.723,707.914 375.761,788.913 377.799,1034.31 379.837,888.179 381.876,1060.8 383.914,943.225 385.952,850.943 387.99,800.826 390.028,1267.22 392.067,844.082 394.105,1120.53 396.143,1080.83 398.181,788.419 400.219,766.117 402.258,1053.88 404.296,938.345 406.334,1377.88 408.372,772.32 410.41,1166.53 412.449,913.31 414.487,1113.45 416.525,821.966 418.563,736.422 420.601,1051.59 422.64,1033.81 424.678,930.786 426.716,670.744 428.754,925.799 430.792,709.249 432.831,889.252 434.869,926.583 436.907,953.893 438.945,1049.42 440.983,1059.19 443.022,1135.67 445.06,949.213 447.098,969.595 449.136,1056.15 451.174,1025.41 453.213,1024.75 455.251,988.339 457.289,637.213 459.327,959.786 461.365,1063.38 463.404,862.034 465.442,741.658 467.48,1177.71 469.518,918.743 471.556,1036.26 473.595,929.777 475.633,962.266 477.671,999.149 479.709,824.326 481.747,947.774 483.786,837.507 485.824,889.287 487.862,1002.2 489.9,927.941 491.938,839.998 493.977,905.076 496.015,1071.79 498.053,792.693 500.091,1210.98 502.129,1001.7 504.168,1064.22 506.206,1040.29 508.244,836.689 510.282,794.764 512.32,874.883 514.359,1133.07 516.397,676.916 518.435,833.728 520.473,920.554 522.512,894.352 524.55,901.206 526.588,964.425 528.626,915.454 530.664,1103.62 532.703,1126.97 534.741,1018.7 536.779,871.607 538.817,992.857 540.855,1118.94 542.894,1012.31 544.932,794.156 546.97,862.193 549.008,1075.53 551.046,1251.23 553.085,781.995 555.123,1088.41 557.161,1145.3 559.199,1064.25 561.237,1012.13 563.276,876.262 565.314,1038.87 567.352,785.272 569.39,1089.42 571.428,1268.31 573.467,838.362 575.505,790.737 577.543,1107.8 579.581,860.342 581.619,920.578 583.658,1191.14 585.696,867.019 587.734,1110 589.772,1003.34 591.81,721.822 593.849,705.181 595.887,913.879 597.925,869.127 599.963,861.032 602.001,914.1 604.04,826.992 606.078,877.943 608.116,915.663 610.154,903.335 612.192,879.781 614.231,1147 616.269,716.492 618.307,707.645 620.345,745.031 622.383,807.98 624.422,856.518 626.46,912.981 628.498,1125.49 630.536,873.795 632.574,700.05 634.613,1055.97 636.651,912.186 638.689,1038.46 640.727,1080.05 642.765,1022.59 644.804,745.156 646.842,1075.08 648.88,826.69 650.918,964.624 652.956,909.453 654.995,961.466 657.033,1006.41 659.071,932.256 661.109,1127.58 663.147,1064.22 665.186,931.444 667.224,904.351 669.262,774.332 671.3,1013.19 673.338,1122.96 675.377,1078.07 677.415,919.751 679.453,917.195 681.491,1165.23 683.529,1029.25 685.568,950.816 687.606,1115.82 689.644,1002.85 691.682,883.702 693.72,1036.26 695.759,1036.35 697.797,887.971 699.835,955.406 701.873,809.036 703.912,1020.83 705.95,987.7 707.988,844.857 710.026,1009.36 712.064,868.589 714.103,950.283 716.141,1053.63 718.179,858.159 720.217,1067.68 722.255,947.139 724.294,759.441 726.332,970.216 728.37,946.279 730.408,1014.03 732.446,916.06 734.485,897.703 736.523,870.415 738.561,901.494 740.599,880.566 742.637,1038.03 744.676,900.636 746.714,871.163 748.752,917.991 750.79,1082.8 752.828,903.249 754.867,790.059 756.905,697.651 758.943,966.65 760.981,761.465 763.019,842.334 765.058,868.404 767.096,1048.18 769.134,814.567 771.172,794.008 773.21,724.851 775.249,873.388 777.287,863.207 779.325,945.72 781.363,908.255 783.401,908.954 785.44,853.329 787.478,1002.54 789.516,798.946 791.554,726.954 793.592,798.763 795.631,845.071 797.669,820.511 799.707,866.156 801.745,892.835 803.783,908.214 805.822,893.248 807.86,1041.36 809.898,1004.85 811.936,1037.01 813.974,703.281 816.013,1030.01 818.051,898.679 820.089,618.802 822.127,1042.33 824.165,859.651 826.204,869.848 828.242,787.02 830.28,817.419 832.318,874.166 834.356,896.796 836.395,943.099 838.433,722.622 840.471,727.97 842.509,873.769 844.547,788.603 846.586,742.045 848.624,768.933 850.662,844.122 852.7,651.344 854.738,856.779 856.777,882.235 858.815,761.46 860.853,786.163 862.891,696.5 864.929,777.087 866.968,853.015 869.006,942.073 871.044,760.971 873.082,821.997 875.12,842.176 877.159,601.177 879.197,827.671 881.235,729.731 883.273,520.718 885.311,651.018 887.35,769.087 889.388,587.972 891.426,740.485 893.464,727.748 895.503,821.518 897.541,807.682 899.579,745.96 901.617,702.846 903.655,791.84 905.694,704.633 907.732,700.879 909.77,646.532 911.808,629.415 913.846,736.58 915.885,738.201 917.923,640.604 919.961,580.16 921.999,670.467 924.037,746.631 926.076,684.114 928.114,729.857 930.152,706.669 932.19,617.813 934.228,663.583 936.267,498.256 938.305,617.468 940.343,699.221 942.381,746.39 944.419,661.116 946.458,746.201 948.496,625.6 950.534,681.36 952.572,635.563 954.61,808.852 956.649,609.13 958.687,864.227 960.725,613.505 962.763,767.429 964.801,585.929 966.84,717.985 968.878,723.82 970.916,605.684 972.954,654.655 974.992,795.736 977.031,721.743 979.069,681.794 981.107,563.61 983.145,532.103 985.183,589.795 987.222,684.668 989.26,618.873 991.298,661.802 993.336,681.015 995.374,673.042 997.413,681.564 999.451,823.754 1001.49,721.018 1003.53,722.447 1005.57,806.485 1007.6,802.132 1009.64,804.403 1011.68,684.199 1013.72,684.896 1015.76,880.821 1017.79,782.686 1019.83,606.549 1021.87,639.686 1023.91,786.061 1025.95,674.791 1027.99,701.593 1030.02,714.751 1032.06,725.496 1034.1,763.968 1036.14,724.75 1038.18,742.122 1040.21,800.573 1042.25,777.197 1044.29,911.403 1046.33,789.383 1048.37,811.158 1050.41,832.903 1052.44,823.688 1054.48,757.176 1056.52,731.996 1058.56,812.485 1060.6,789.221 1062.64,817.605 1064.67,856.296 1066.71,738.766 1068.75,867.951 1070.79,766.905 1072.83,834.751 1074.86,800.971 1076.9,746.997 1078.94,808.383 1080.98,835.928 1083.02,846.145 1085.06,942.515 1087.09,817.089 1089.13,947.025 1091.17,759.495 1093.21,946.671 1095.25,901.131 1097.28,833.556 1099.32,850.744 1101.36,849.236 1103.4,841.827 1105.44,814.106 1107.48,842.326 1109.51,872.83 1111.55,909.303 1113.59,893.233 1115.63,956.224 1117.67,856.875 1119.7,958.233 1121.74,869.801 1123.78,881.747 1125.82,851.708 1127.86,877.078 1129.9,935.558 1131.93,836.151 1133.97,841.053 1136.01,951.879 1138.05,870.696 1140.09,836.226 1142.12,801.042 1144.16,861.4 1146.2,864.526 1148.24,946.33 1150.28,818.066 1152.32,808.943 1154.35,844.586 1156.39,898.534 1158.43,889.638 1160.47,900.139 1162.51,935.04 1164.55,924.445 1166.58,870.881 1168.62,858.855 1170.66,879.038 1172.7,823.21 1174.74,889.803 1176.77,950.688 1178.81,989.593 1180.85,949.614 1182.89,959.775 1184.93,960.473 1186.97,957.052 1189,953.315 1191.04,1012.11 1193.08,971.908 1195.12,990.608 1197.16,968.887 1199.19,962.466 1201.23,967.799 1203.27,1002.05 1205.31,1027.67 1207.35,1026.46 1209.39,993.985 1211.42,971.142 1213.46,992.173 1215.5,994.947 1217.54,972.166 1219.58,938.637 1221.61,931.607 1223.65,930.967 1225.69,949.509 1227.73,896.774 1229.77,922.708 1231.81,938.892 1233.84,855.911 1235.88,871.801 1237.92,883.626 1239.96,914.491 1242,902.269 1244.04,889.827 1246.07,894.344 1248.11,937.323 1250.15,884.956 1252.19,904.021 1254.23,940.137 1256.26,922.6 1258.3,910.027 1260.34,940.566 1262.38,936.689 1264.42,974.857 1266.46,991.363 1268.49,990.404 1270.53,986.038 1272.57,976.335 1274.61,956.496 1276.65,972.238 1278.68,936.515 1280.72,899.914 1282.76,887.305 1284.8,823.005 1286.84,840.105 1288.88,812.23 1290.91,779.189 1292.95,750.032 1294.99,717.055 1297.03,665.47 1299.07,579.945 1301.1,568.434 1303.14,550.225 1305.18,463.57 1307.22,451.383 1309.26,325.608 1311.3,323.192 1313.33,231.673 1315.37,244.297 1317.41,225.084 1319.45,228.505 1321.49,159.657 1323.52,202.652 1325.56,172.169 1327.6,87.9763 1329.64,161.641 1331.68,129.905 1333.72,109 1335.75,203.107 1337.79,189.434 1339.83,180.897 1341.87,210.818 1343.91,148.966 1345.95,216.346 1347.98,235.458 1350.02,255.34 1352.06,248.986 1354.1,249.691 1356.14,327.892 1358.17,355.001 1360.21,415.594 1362.25,382.691 1364.29,423.898 1366.33,440.415 1368.37,433.836 1370.4,529.029 1372.44,518.741 1374.48,572.188 1376.52,662.717 1378.56,620.917 1380.59,629.861 1382.63,698.935 1384.67,663.312 1386.71,798.015 1388.75,767.531 1390.79,757.065 1392.82,794.704 1394.86,826.206 1396.9,887.181 1398.94,922.707 1400.98,860.535 1403.01,811.751 1405.05,843.606 1407.09,859.494 1409.13,843.838 1411.17,939.905 1413.21,968.978 1415.24,935.826 1417.28,985.444 1419.32,990.661 1421.36,1036.87 1423.4,890.831 1425.44,970.766 1427.47,979.43 1429.51,899.432 1431.55,909.251 1433.59,990.22 1435.63,989.42 1437.66,936.713 1439.7,1081.77 1441.74,954.486 1443.78,989.913 1445.82,1074.73 1447.86,1078.66 1449.89,935.414 1451.93,986.794 1453.97,1008.91 1456.01,1083.85 1458.05,937.657 1460.08,917.765 1462.12,1083.13 1464.16,999.794 1466.2,993.694 1468.24,916.415 1470.28,1027.07 1472.31,938.442 1474.35,1024.93 1476.39,1005.28 1478.43,1046.07 1480.47,990.907 1482.5,921.111 1484.54,988.568 1486.58,851.447 1488.62,904.633 1490.66,996.579 1492.7,942.956 1494.73,993.209 1496.77,944.058 1498.81,945.855 1500.85,946.553 1502.89,886.092 1504.92,1055.17 1506.96,939.093 1509,966.298 1511.04,1011.33 1513.08,981.2 1515.12,845.074 1517.15,878.149 1519.19,841.774 1521.23,831.646 1523.27,880.209 1525.31,1061.8 1527.35,1008.29 1529.38,857.621 1531.42,1038.13 1533.46,885.58 1535.5,898.72 1537.54,979.203 1539.57,886.453 1541.61,800.391 1543.65,1003.32 1545.69,837.316 1547.73,774.073 1549.77,1047.22 1551.8,917.311 1553.84,1030.55 1555.88,866.01 1557.92,961.039 1559.96,987.574 1561.99,1008.85 1564.03,784.104 1566.07,1022.39 1568.11,1043.76 1570.15,1065.59 1572.19,1023.12 1574.22,947.201 1576.26,792.205 1578.3,1099.98 1580.34,943.051 1582.38,935.077 1584.41,784.28 1586.45,1007.35 1588.49,785.232 1590.53,810.167 1592.57,944.63 1594.61,1022.99 1596.64,948.947 1598.68,1013.17 1600.72,957.536 1602.76,1051.53 1604.8,688.461 1606.84,808.002 1608.87,883.963 1610.91,1060.57 1612.95,982.576 1614.99,856.86 1617.03,976.662 1619.06,1000.8 1621.1,1046.83 1623.14,1057.46 1625.18,793.251 1627.22,1074.2 1629.26,855.445 1631.29,871.269 1633.33,1142.65 1635.37,1030.97 1637.41,1218.91 1639.45,968.866 1641.48,900.215 1643.52,871.471 1645.56,1064.43 1647.6,961.572 1649.64,849.386 1651.68,934.426 1653.71,997.536 1655.75,973.059 1657.79,1042.86 1659.83,865.552 1661.87,1035.78 1663.9,922.571 1665.94,1051.48 1667.98,841.612 1670.02,1099.45 1672.06,983.35 1674.1,809.244 1676.13,1065.88 1678.17,981.791 1680.21,864.865 1682.25,1115.03 1684.29,841.693 1686.32,917.073 1688.36,960.345 1690.4,856.167 1692.44,921.621 1694.48,1118.88 1696.52,904.845 1698.55,1035.01 1700.59,954.152 1702.63,961.793 1704.67,705.547 1706.71,1040.28 1708.75,1027.31 1710.78,1104.01 1712.82,1092.36 1714.86,856.879 1716.9,915.39 1718.94,1156.76 1720.97,1154.31 1723.01,854.953 1725.05,922.251 1727.09,1082.02 1729.13,788.197 1731.17,995.772 1733.2,1020.68 1735.24,881.092 1737.28,783.816 1739.32,833.775 1741.36,928.716 1743.39,959.916 1745.43,958.486 1747.47,932.351 1749.51,978.584 1751.55,945.443 1753.59,970.351 1755.62,1053.64 1757.66,997.092 1759.7,1033.98 1761.74,736.271 1763.78,819.669 1765.81,971.643 1767.85,993.368 1769.89,930.045 1771.93,1117 1773.97,866.237 1776.01,900.95 1778.04,777.419 1780.08,779.922 1782.12,1006.59 1784.16,701.616 1786.2,1006.19 1788.24,999.853 1790.27,1033.92 1792.31,841.235 1794.35,1059.45 1796.39,1048.14 1798.43,872.535 1800.46,896.6 1802.5,983.645 1804.54,971.56 1806.58,1259.82 1808.62,1015.63 1810.66,985.472 1812.69,934.117 1814.73,789.652 1816.77,767.52 1818.81,1021.64 1820.85,929.294 1822.88,931.338 1824.92,950.92 1826.96,1006.86 1829,892.177 1831.04,948.146 1833.08,1164.79 1835.11,958.584 1837.15,910.262 1839.19,1110.65 1841.23,946.546 1843.27,1019.99 1845.3,859.551 1847.34,908.216 1849.38,1105.82 1851.42,836.467 1853.46,996.783 1855.5,1051.6 1857.53,845.573 1859.57,1053.17 1861.61,793.332 1863.65,701.695 1865.69,1135.16 1867.72,1068.89 1869.76,1067.49 1871.8,1007.7 1873.84,921.78 1875.88,1026.4 1877.92,876.796 1879.95,910.308 1881.99,933.492 1884.03,989.662 1886.07,802.905 1888.11,916.215 1890.15,1003.64 1892.18,948.066 1894.22,801.609 1896.26,801.218 1898.3,919.72 1900.34,855.417 1902.37,944.429 1904.41,890.892 1906.45,833.259 1908.49,963.219 1910.53,1024.95 1912.57,831.735 1914.6,931.614 1916.64,1018.13 1918.68,699.016 1920.72,1011.33 1922.76,1102.81 1924.79,834.079 1926.83,759.804 1928.87,1124.34 1930.91,1084.96 1932.95,902.11 1934.99,1024.17 1937.02,975.387 1939.06,795.879 1941.1,1154.02 1943.14,1047.34 1945.18,951.977 1947.21,1153.84 1949.25,1086.03 1951.29,1032.94 1953.33,885.422 1955.37,977.669 1957.41,989.342 1959.44,1062.42 1961.48,774.689 1963.52,875.633 1965.56,947.744 1967.6,906.107 1969.64,683.435 1971.67,942.738 1973.71,971.044 1975.75,1068.4 1977.79,1120.47 1979.83,1034.03 1981.86,929.272 1983.9,800.835 1985.94,941.546 1987.98,891.768 1990.02,956.087 1992.06,944.157 1994.09,992.34 1996.13,1030.38 1998.17,891.399 2000.21,946.326 2002.25,707.75 2004.28,965.006 2006.32,852.928 2008.36,1011.59 2010.4,1133.17 2012.44,1054.48 2014.48,876.304 2016.51,893.544 2018.55,1049.36 2020.59,893.396 2022.63,993.072 2024.67,632.276 2026.7,864.536 2028.74,1021.16 2030.78,1069.97 2032.82,943.566 2034.86,809.41 2036.9,1177.9 2038.93,1092.71 2040.97,1114.04 2043.01,968.166 2045.05,1012.07 2047.09,858.739 2049.12,1158.31 2051.16,955.289 2053.2,1217.67 2055.24,1042.73 2057.28,1105.08 2059.32,861.196 2061.35,953.232 2063.39,1068.66 2065.43,1070.39 2067.47,861.019 2069.51,843.508 2071.55,990.213 2073.58,750.411 2075.62,813.222 2077.66,1062.62 2079.7,1017 2081.74,952.022 2083.77,1072.27 2085.81,958.663 2087.85,1048.75 2089.89,930.487 2091.93,741.799 2093.97,972.709 2096,678.597 2098.04,1135.64 2100.08,972.527 2102.12,1032 2104.16,804.514 2106.19,889.688 2108.23,789.374 2110.27,905.978 2112.31,1017.1 2114.35,769.926 2116.39,955.902 2118.42,1001.4 2120.46,887.894 2122.5,862.491 2124.54,984.563 2126.58,945.865 2128.61,790.798 2130.65,669.625 2132.69,908.48 2134.73,1445.72 2136.77,1091.08 2138.81,848.61 2140.84,1117.83 2142.88,1059.09 2144.92,944.572 2146.96,908.791 2149,1095.25 2151.04,937.168 2153.07,960.711 2155.11,790.814 2157.15,936.884 2159.19,817.528 2161.23,693.637 2163.26,899.49 2165.3,1118.99 2167.34,754.858 2169.38,874.287 2171.42,1088.54 2173.46,877.767 2175.49,1022.36 2177.53,757.252 2179.57,1107.75 2181.61,1088.42 2183.65,1046.7 2185.68,993.217 2187.72,834.461 2189.76,810.82 2191.8,1079.52 2193.84,939.428 2195.88,846.12 2197.91,1127.07 2199.95,1105.68 2201.99,1063.27 2204.03,915.84 2206.07,969.758 2208.1,1094.87 2210.14,1184.11 2212.18,832.268 2214.22,822.462 2216.26,1072.69 2218.3,871.062 2220.33,977.897 2222.37,926.674 2224.41,1094.48 2226.45,1124.12 2228.49,916.678 2230.52,802.658 2232.56,847.278 2234.6,942.57 2236.64,960.118 2238.68,864.581 2240.72,938.07 2242.75,1024.07 2244.79,888.849 2246.83,904.784 2248.87,876.069 2250.91,986.252 2252.95,1024.43 2254.98,943.435 2257.02,717.648 2259.06,1148.58 2261.1,706.45 2263.14,946.991 2265.17,798.78 2267.21,1131.53 2269.25,1018.71 2271.29,891.806 2273.33,822.48 2275.37,1120.05 2277.4,944.389 2279.44,1012.83 2281.48,785.034 2283.52,935.166 2285.56,1027.4 2287.59,931.323 2289.63,911.376 2291.67,1361.32 "></polyline>
<path clip-path="url(#clip270)" d="M1989.05 198.898 L2280.81 198.898 L2280.81 95.2176 L1989.05 95.2176  Z" fill="#ffffff" fill-rule="evenodd" fill-opacity="1"></path>
<polyline clip-path="url(#clip270)" style="stroke:#000000; stroke-linecap:round; stroke-linejoin:round; stroke-width:4; stroke-opacity:1; fill:none" points="1989.05,198.898 2280.81,198.898 2280.81,95.2176 1989.05,95.2176 1989.05,198.898 "></polyline>
<polyline clip-path="url(#clip270)" style="stroke:#009af9; stroke-linecap:round; stroke-linejoin:round; stroke-width:4; stroke-opacity:1; fill:none" points="2013.03,147.058 2156.92,147.058 "></polyline>
<path clip-path="url(#clip270)" d="M2201.41 139.407 L2201.41 143.389 Q2199.61 142.393 2197.78 141.907 Q2195.97 141.398 2194.12 141.398 Q2189.98 141.398 2187.69 144.037 Q2185.4 146.652 2185.4 151.398 Q2185.4 156.143 2187.69 158.782 Q2189.98 161.398 2194.12 161.398 Q2195.97 161.398 2197.78 160.912 Q2199.61 160.402 2201.41 159.407 L2201.41 163.342 Q2199.63 164.176 2197.71 164.592 Q2195.81 165.009 2193.66 165.009 Q2187.8 165.009 2184.35 161.328 Q2180.9 157.648 2180.9 151.398 Q2180.9 145.055 2184.38 141.421 Q2187.87 137.787 2193.94 137.787 Q2195.9 137.787 2197.78 138.203 Q2199.65 138.597 2201.41 139.407 Z" fill="#000000" fill-rule="nonzero" fill-opacity="1"></path><path clip-path="url(#clip270)" d="M2212.94 160.449 L2212.94 174.199 L2208.66 174.199 L2208.66 138.412 L2212.94 138.412 L2212.94 142.347 Q2214.28 140.032 2216.32 138.921 Q2218.38 137.787 2221.23 137.787 Q2225.95 137.787 2228.89 141.537 Q2231.85 145.287 2231.85 151.398 Q2231.85 157.509 2228.89 161.259 Q2225.95 165.009 2221.23 165.009 Q2218.38 165.009 2216.32 163.898 Q2214.28 162.763 2212.94 160.449 M2227.43 151.398 Q2227.43 146.699 2225.49 144.037 Q2223.57 141.352 2220.19 141.352 Q2216.81 141.352 2214.86 144.037 Q2212.94 146.699 2212.94 151.398 Q2212.94 156.097 2214.86 158.782 Q2216.81 161.444 2220.19 161.444 Q2223.57 161.444 2225.49 158.782 Q2227.43 156.097 2227.43 151.398 Z" fill="#000000" fill-rule="nonzero" fill-opacity="1"></path><path clip-path="url(#clip270)" d="M2255.44 139.176 L2255.44 143.203 Q2253.64 142.277 2251.69 141.815 Q2249.75 141.352 2247.66 141.352 Q2244.49 141.352 2242.89 142.324 Q2241.32 143.296 2241.32 145.24 Q2241.32 146.722 2242.46 147.578 Q2243.59 148.412 2247.02 149.176 L2248.47 149.5 Q2253.01 150.472 2254.91 152.254 Q2256.83 154.014 2256.83 157.185 Q2256.83 160.796 2253.96 162.902 Q2251.11 165.009 2246.11 165.009 Q2244.03 165.009 2241.76 164.592 Q2239.52 164.199 2237.02 163.388 L2237.02 158.99 Q2239.38 160.217 2241.67 160.842 Q2243.96 161.444 2246.21 161.444 Q2249.21 161.444 2250.83 160.426 Q2252.45 159.384 2252.45 157.509 Q2252.45 155.773 2251.27 154.847 Q2250.12 153.921 2246.16 153.064 L2244.68 152.717 Q2240.72 151.884 2238.96 150.171 Q2237.2 148.435 2237.2 145.426 Q2237.2 141.768 2239.79 139.778 Q2242.39 137.787 2247.15 137.787 Q2249.52 137.787 2251.6 138.134 Q2253.68 138.481 2255.44 139.176 Z" fill="#000000" fill-rule="nonzero" fill-opacity="1"></path></svg>