<svg xmlns="http://www.w3.org/2000/svg" xmlns:xlink="http://www.w3.org/1999/xlink" width="600" height="400" viewBox="0 0 2400 1600">
<defs>
  <clipPath id="clip180">
    <rect x="0" y="0" width="2400" height="1600"></rect>
  </clipPath>
</defs>
<path clip-path="url(#clip180)" d="M0 1600 L2400 1600 L2400 8.88178e-14 L0 8.88178e-14  Z" fill="#ffffff" fill-rule="evenodd" fill-opacity="1"></path>
<defs>
  <clipPath id="clip181">
    <rect x="480" y="0" width="1681" height="1600"></rect>
  </clipPath>
</defs>
<path clip-path="url(#clip180)" d="M286.371 1423.18 L2352.76 1423.18 L2352.76 123.472 L286.371 123.472  Z" fill="#ffffff" fill-rule="evenodd" fill-opacity="1"></path>
<defs>
  <clipPath id="clip182">
    <rect x="286" y="123" width="2067" height="1301"></rect>
  </clipPath>
</defs>
<polyline clip-path="url(#clip182)" style="stroke:#000000; stroke-linecap:round; stroke-linejoin:round; stroke-width:2; stroke-opacity:0.1; fill:none" points="588.531,1423.18 588.531,123.472 "></polyline>
<polyline clip-path="url(#clip182)" style="stroke:#000000; stroke-linecap:round; stroke-linejoin:round; stroke-width:2; stroke-opacity:0.1; fill:none" points="954.047,1423.18 954.047,123.472 "></polyline>
<polyline clip-path="url(#clip182)" style="stroke:#000000; stroke-linecap:round; stroke-linejoin:round; stroke-width:2; stroke-opacity:0.1; fill:none" points="1319.56,1423.18 1319.56,123.472 "></polyline>
<polyline clip-path="url(#clip182)" style="stroke:#000000; stroke-linecap:round; stroke-linejoin:round; stroke-width:2; stroke-opacity:0.1; fill:none" points="1685.08,1423.18 1685.08,123.472 "></polyline>
<polyline clip-path="url(#clip182)" style="stroke:#000000; stroke-linecap:round; stroke-linejoin:round; stroke-width:2; stroke-opacity:0.1; fill:none" points="2050.6,1423.18 2050.6,123.472 "></polyline>
<polyline clip-path="url(#clip182)" style="stroke:#000000; stroke-linecap:round; stroke-linejoin:round; stroke-width:2; stroke-opacity:0.1; fill:none" points="286.371,1318.3 2352.76,1318.3 "></polyline>
<polyline clip-path="url(#clip182)" style="stroke:#000000; stroke-linecap:round; stroke-linejoin:round; stroke-width:2; stroke-opacity:0.1; fill:none" points="286.371,1068 2352.76,1068 "></polyline>
<polyline clip-path="url(#clip182)" style="stroke:#000000; stroke-linecap:round; stroke-linejoin:round; stroke-width:2; stroke-opacity:0.1; fill:none" points="286.371,817.714 2352.76,817.714 "></polyline>
<polyline clip-path="url(#clip182)" style="stroke:#000000; stroke-linecap:round; stroke-linejoin:round; stroke-width:2; stroke-opacity:0.1; fill:none" points="286.371,567.422 2352.76,567.422 "></polyline>
<polyline clip-path="url(#clip182)" style="stroke:#000000; stroke-linecap:round; stroke-linejoin:round; stroke-width:2; stroke-opacity:0.1; fill:none" points="286.371,317.131 2352.76,317.131 "></polyline>
<polyline clip-path="url(#clip180)" style="stroke:#000000; stroke-linecap:round; stroke-linejoin:round; stroke-width:4; stroke-opacity:1; fill:none" points="286.371,1423.18 2352.76,1423.18 "></polyline>
<polyline clip-path="url(#clip180)" style="stroke:#000000; stroke-linecap:round; stroke-linejoin:round; stroke-width:4; stroke-opacity:1; fill:none" points="588.531,1423.18 588.531,1404.28 "></polyline>
<polyline clip-path="url(#clip180)" style="stroke:#000000; stroke-linecap:round; stroke-linejoin:round; stroke-width:4; stroke-opacity:1; fill:none" points="954.047,1423.18 954.047,1404.28 "></polyline>
<polyline clip-path="url(#clip180)" style="stroke:#000000; stroke-linecap:round; stroke-linejoin:round; stroke-width:4; stroke-opacity:1; fill:none" points="1319.56,1423.18 1319.56,1404.28 "></polyline>
<polyline clip-path="url(#clip180)" style="stroke:#000000; stroke-linecap:round; stroke-linejoin:round; stroke-width:4; stroke-opacity:1; fill:none" points="1685.08,1423.18 1685.08,1404.28 "></polyline>
<polyline clip-path="url(#clip180)" style="stroke:#000000; stroke-linecap:round; stroke-linejoin:round; stroke-width:4; stroke-opacity:1; fill:none" points="2050.6,1423.18 2050.6,1404.28 "></polyline>
<path clip-path="url(#clip180)" d="M557.593 1468.75 L587.269 1468.75 L587.269 1472.69 L557.593 1472.69 L557.593 1468.75 Z" fill="#000000" fill-rule="nonzero" fill-opacity="1"></path><path clip-path="url(#clip180)" d="M607.94 1466.44 Q604.792 1466.44 602.94 1468.59 Q601.112 1470.74 601.112 1474.49 Q601.112 1478.22 602.94 1480.39 Q604.792 1482.55 607.94 1482.55 Q611.088 1482.55 612.917 1480.39 Q614.769 1478.22 614.769 1474.49 Q614.769 1470.74 612.917 1468.59 Q611.088 1466.44 607.94 1466.44 M617.223 1451.78 L617.223 1456.04 Q615.463 1455.21 613.658 1454.77 Q611.875 1454.33 610.116 1454.33 Q605.487 1454.33 603.033 1457.45 Q600.602 1460.58 600.255 1466.9 Q601.621 1464.89 603.681 1463.82 Q605.741 1462.73 608.218 1462.73 Q613.426 1462.73 616.436 1465.9 Q619.468 1469.05 619.468 1474.49 Q619.468 1479.82 616.32 1483.03 Q613.172 1486.25 607.94 1486.25 Q601.945 1486.25 598.774 1481.67 Q595.602 1477.06 595.602 1468.33 Q595.602 1460.14 599.491 1455.28 Q603.38 1450.39 609.931 1450.39 Q611.69 1450.39 613.473 1450.74 Q615.278 1451.09 617.223 1451.78 Z" fill="#000000" fill-rule="nonzero" fill-opacity="1"></path><path clip-path="url(#clip180)" d="M923.515 1468.75 L953.19 1468.75 L953.19 1472.69 L923.515 1472.69 L923.515 1468.75 Z" fill="#000000" fill-rule="nonzero" fill-opacity="1"></path><path clip-path="url(#clip180)" d="M977.45 1466.95 Q980.806 1467.66 982.681 1469.93 Q984.579 1472.2 984.579 1475.53 Q984.579 1480.65 981.061 1483.45 Q977.542 1486.25 971.061 1486.25 Q968.885 1486.25 966.57 1485.81 Q964.278 1485.39 961.825 1484.54 L961.825 1480.02 Q963.769 1481.16 966.084 1481.74 Q968.399 1482.32 970.922 1482.32 Q975.32 1482.32 977.612 1480.58 Q979.926 1478.84 979.926 1475.53 Q979.926 1472.48 977.774 1470.77 Q975.644 1469.03 971.825 1469.03 L967.797 1469.03 L967.797 1465.19 L972.01 1465.19 Q975.459 1465.19 977.288 1463.82 Q979.116 1462.43 979.116 1459.84 Q979.116 1457.18 977.218 1455.77 Q975.343 1454.33 971.825 1454.33 Q969.903 1454.33 967.704 1454.75 Q965.505 1455.16 962.866 1456.04 L962.866 1451.88 Q965.528 1451.14 967.843 1450.77 Q970.181 1450.39 972.241 1450.39 Q977.565 1450.39 980.667 1452.83 Q983.769 1455.23 983.769 1459.35 Q983.769 1462.22 982.125 1464.21 Q980.482 1466.18 977.45 1466.95 Z" fill="#000000" fill-rule="nonzero" fill-opacity="1"></path><path clip-path="url(#clip180)" d="M1319.56 1454.1 Q1315.95 1454.1 1314.12 1457.66 Q1312.32 1461.2 1312.32 1468.33 Q1312.32 1475.44 1314.12 1479.01 Q1315.95 1482.55 1319.56 1482.55 Q1323.2 1482.55 1325 1479.01 Q1326.83 1475.44 1326.83 1468.33 Q1326.83 1461.2 1325 1457.66 Q1323.2 1454.1 1319.56 1454.1 M1319.56 1450.39 Q1325.37 1450.39 1328.43 1455 Q1331.51 1459.58 1331.51 1468.33 Q1331.51 1477.06 1328.43 1481.67 Q1325.37 1486.25 1319.56 1486.25 Q1313.75 1486.25 1310.67 1481.67 Q1307.62 1477.06 1307.62 1468.33 Q1307.62 1459.58 1310.67 1455 Q1313.75 1450.39 1319.56 1450.39 Z" fill="#000000" fill-rule="nonzero" fill-opacity="1"></path><path clip-path="url(#clip180)" d="M1689.33 1466.95 Q1692.68 1467.66 1694.56 1469.93 Q1696.46 1472.2 1696.46 1475.53 Q1696.46 1480.65 1692.94 1483.45 Q1689.42 1486.25 1682.94 1486.25 Q1680.76 1486.25 1678.45 1485.81 Q1676.16 1485.39 1673.7 1484.54 L1673.7 1480.02 Q1675.65 1481.16 1677.96 1481.74 Q1680.28 1482.32 1682.8 1482.32 Q1687.2 1482.32 1689.49 1480.58 Q1691.8 1478.84 1691.8 1475.53 Q1691.8 1472.48 1689.65 1470.77 Q1687.52 1469.03 1683.7 1469.03 L1679.67 1469.03 L1679.67 1465.19 L1683.89 1465.19 Q1687.34 1465.19 1689.17 1463.82 Q1690.99 1462.43 1690.99 1459.84 Q1690.99 1457.18 1689.1 1455.77 Q1687.22 1454.33 1683.7 1454.33 Q1681.78 1454.33 1679.58 1454.75 Q1677.38 1455.16 1674.74 1456.04 L1674.74 1451.88 Q1677.41 1451.14 1679.72 1450.77 Q1682.06 1450.39 1684.12 1450.39 Q1689.44 1450.39 1692.54 1452.83 Q1695.65 1455.23 1695.65 1459.35 Q1695.65 1462.22 1694 1464.21 Q1692.36 1466.18 1689.33 1466.95 Z" fill="#000000" fill-rule="nonzero" fill-opacity="1"></path><path clip-path="url(#clip180)" d="M2051 1466.44 Q2047.85 1466.44 2046 1468.59 Q2044.17 1470.74 2044.17 1474.49 Q2044.17 1478.22 2046 1480.39 Q2047.85 1482.55 2051 1482.55 Q2054.15 1482.55 2055.98 1480.39 Q2057.83 1478.22 2057.83 1474.49 Q2057.83 1470.74 2055.98 1468.59 Q2054.15 1466.44 2051 1466.44 M2060.28 1451.78 L2060.28 1456.04 Q2058.52 1455.21 2056.72 1454.77 Q2054.94 1454.33 2053.18 1454.33 Q2048.55 1454.33 2046.09 1457.45 Q2043.66 1460.58 2043.32 1466.9 Q2044.68 1464.89 2046.74 1463.82 Q2048.8 1462.73 2051.28 1462.73 Q2056.49 1462.73 2059.5 1465.9 Q2062.53 1469.05 2062.53 1474.49 Q2062.53 1479.82 2059.38 1483.03 Q2056.23 1486.25 2051 1486.25 Q2045.01 1486.25 2041.83 1481.67 Q2038.66 1477.06 2038.66 1468.33 Q2038.66 1460.14 2042.55 1455.28 Q2046.44 1450.39 2052.99 1450.39 Q2054.75 1450.39 2056.53 1450.74 Q2058.34 1451.09 2060.28 1451.78 Z" fill="#000000" fill-rule="nonzero" fill-opacity="1"></path><path clip-path="url(#clip180)" d="M1309.86 1568.97 Q1296.65 1568.97 1296.65 1550.06 Q1296.65 1542.58 1301.58 1532.4 L1307.88 1532.4 Q1303.33 1542.58 1303.33 1550.22 Q1303.33 1564 1310.4 1564 Q1316.86 1564 1316.86 1546.88 L1322.27 1546.88 Q1322.27 1564 1328.73 1564 Q1335.8 1564 1335.8 1550.22 Q1335.8 1542.58 1331.24 1532.4 L1337.55 1532.4 Q1342.48 1542.58 1342.48 1550.06 Q1342.48 1568.97 1329.27 1568.97 Q1320.61 1568.97 1319.56 1559.45 Q1318.26 1568.97 1309.86 1568.97 Z" fill="#000000" fill-rule="nonzero" fill-opacity="1"></path><polyline clip-path="url(#clip180)" style="stroke:#000000; stroke-linecap:round; stroke-linejoin:round; stroke-width:4; stroke-opacity:1; fill:none" points="286.371,1423.18 286.371,123.472 "></polyline>
<polyline clip-path="url(#clip180)" style="stroke:#000000; stroke-linecap:round; stroke-linejoin:round; stroke-width:4; stroke-opacity:1; fill:none" points="286.371,1318.3 305.268,1318.3 "></polyline>
<polyline clip-path="url(#clip180)" style="stroke:#000000; stroke-linecap:round; stroke-linejoin:round; stroke-width:4; stroke-opacity:1; fill:none" points="286.371,1068 305.268,1068 "></polyline>
<polyline clip-path="url(#clip180)" style="stroke:#000000; stroke-linecap:round; stroke-linejoin:round; stroke-width:4; stroke-opacity:1; fill:none" points="286.371,817.714 305.268,817.714 "></polyline>
<polyline clip-path="url(#clip180)" style="stroke:#000000; stroke-linecap:round; stroke-linejoin:round; stroke-width:4; stroke-opacity:1; fill:none" points="286.371,567.422 305.268,567.422 "></polyline>
<polyline clip-path="url(#clip180)" style="stroke:#000000; stroke-linecap:round; stroke-linejoin:round; stroke-width:4; stroke-opacity:1; fill:none" points="286.371,317.131 305.268,317.131 "></polyline>
<path clip-path="url(#clip180)" d="M114.26 1318.75 L143.936 1318.75 L143.936 1322.68 L114.26 1322.68 L114.26 1318.75 Z" fill="#000000" fill-rule="nonzero" fill-opacity="1"></path><path clip-path="url(#clip180)" d="M164.028 1304.09 Q160.417 1304.09 158.589 1307.66 Q156.783 1311.2 156.783 1318.33 Q156.783 1325.44 158.589 1329 Q160.417 1332.54 164.028 1332.54 Q167.663 1332.54 169.468 1329 Q171.297 1325.44 171.297 1318.33 Q171.297 1311.2 169.468 1307.66 Q167.663 1304.09 164.028 1304.09 M164.028 1300.39 Q169.839 1300.39 172.894 1305 Q175.973 1309.58 175.973 1318.33 Q175.973 1327.06 172.894 1331.66 Q169.839 1336.25 164.028 1336.25 Q158.218 1336.25 155.14 1331.66 Q152.084 1327.06 152.084 1318.33 Q152.084 1309.58 155.14 1305 Q158.218 1300.39 164.028 1300.39 Z" fill="#000000" fill-rule="nonzero" fill-opacity="1"></path><path clip-path="url(#clip180)" d="M184.19 1329.7 L189.075 1329.7 L189.075 1335.58 L184.19 1335.58 L184.19 1329.7 Z" fill="#000000" fill-rule="nonzero" fill-opacity="1"></path><path clip-path="url(#clip180)" d="M203.287 1331.64 L219.607 1331.64 L219.607 1335.58 L197.662 1335.58 L197.662 1331.64 Q200.325 1328.89 204.908 1324.26 Q209.514 1319.6 210.695 1318.26 Q212.94 1315.74 213.82 1314 Q214.723 1312.24 214.723 1310.55 Q214.723 1307.8 212.778 1306.06 Q210.857 1304.33 207.755 1304.33 Q205.556 1304.33 203.102 1305.09 Q200.672 1305.85 197.894 1307.4 L197.894 1302.68 Q200.718 1301.55 203.172 1300.97 Q205.625 1300.39 207.662 1300.39 Q213.033 1300.39 216.227 1303.08 Q219.422 1305.76 219.422 1310.25 Q219.422 1312.38 218.611 1314.3 Q217.824 1316.2 215.718 1318.79 Q215.139 1319.46 212.037 1322.68 Q208.936 1325.88 203.287 1331.64 Z" fill="#000000" fill-rule="nonzero" fill-opacity="1"></path><path clip-path="url(#clip180)" d="M229.468 1301.02 L247.824 1301.02 L247.824 1304.95 L233.75 1304.95 L233.75 1313.42 Q234.769 1313.08 235.787 1312.91 Q236.806 1312.73 237.824 1312.73 Q243.611 1312.73 246.991 1315.9 Q250.371 1319.07 250.371 1324.49 Q250.371 1330.07 246.898 1333.17 Q243.426 1336.25 237.107 1336.25 Q234.931 1336.25 232.662 1335.88 Q230.417 1335.51 228.01 1334.77 L228.01 1330.07 Q230.093 1331.2 232.315 1331.76 Q234.537 1332.31 237.014 1332.31 Q241.019 1332.31 243.357 1330.21 Q245.695 1328.1 245.695 1324.49 Q245.695 1320.88 243.357 1318.77 Q241.019 1316.66 237.014 1316.66 Q235.139 1316.66 233.264 1317.08 Q231.412 1317.5 229.468 1318.38 L229.468 1301.02 Z" fill="#000000" fill-rule="nonzero" fill-opacity="1"></path><path clip-path="url(#clip180)" d="M163.033 1053.8 Q159.422 1053.8 157.593 1057.37 Q155.788 1060.91 155.788 1068.04 Q155.788 1075.15 157.593 1078.71 Q159.422 1082.25 163.033 1082.25 Q166.667 1082.25 168.473 1078.71 Q170.302 1075.15 170.302 1068.04 Q170.302 1060.91 168.473 1057.37 Q166.667 1053.8 163.033 1053.8 M163.033 1050.1 Q168.843 1050.1 171.899 1054.71 Q174.977 1059.29 174.977 1068.04 Q174.977 1076.77 171.899 1081.37 Q168.843 1085.96 163.033 1085.96 Q157.223 1085.96 154.144 1081.37 Q151.089 1076.77 151.089 1068.04 Q151.089 1059.29 154.144 1054.71 Q157.223 1050.1 163.033 1050.1 Z" fill="#000000" fill-rule="nonzero" fill-opacity="1"></path><path clip-path="url(#clip180)" d="M183.195 1079.41 L188.079 1079.41 L188.079 1085.28 L183.195 1085.28 L183.195 1079.41 Z" fill="#000000" fill-rule="nonzero" fill-opacity="1"></path><path clip-path="url(#clip180)" d="M208.264 1053.8 Q204.653 1053.8 202.824 1057.37 Q201.019 1060.91 201.019 1068.04 Q201.019 1075.15 202.824 1078.71 Q204.653 1082.25 208.264 1082.25 Q211.899 1082.25 213.704 1078.71 Q215.533 1075.15 215.533 1068.04 Q215.533 1060.91 213.704 1057.37 Q211.899 1053.8 208.264 1053.8 M208.264 1050.1 Q214.074 1050.1 217.13 1054.71 Q220.209 1059.29 220.209 1068.04 Q220.209 1076.77 217.13 1081.37 Q214.074 1085.96 208.264 1085.96 Q202.454 1085.96 199.375 1081.37 Q196.32 1076.77 196.32 1068.04 Q196.32 1059.29 199.375 1054.71 Q202.454 1050.1 208.264 1050.1 Z" fill="#000000" fill-rule="nonzero" fill-opacity="1"></path><path clip-path="url(#clip180)" d="M238.426 1053.8 Q234.815 1053.8 232.986 1057.37 Q231.181 1060.91 231.181 1068.04 Q231.181 1075.15 232.986 1078.71 Q234.815 1082.25 238.426 1082.25 Q242.06 1082.25 243.866 1078.71 Q245.695 1075.15 245.695 1068.04 Q245.695 1060.91 243.866 1057.37 Q242.06 1053.8 238.426 1053.8 M238.426 1050.1 Q244.236 1050.1 247.292 1054.71 Q250.371 1059.29 250.371 1068.04 Q250.371 1076.77 247.292 1081.37 Q244.236 1085.96 238.426 1085.96 Q232.616 1085.96 229.537 1081.37 Q226.482 1076.77 226.482 1068.04 Q226.482 1059.29 229.537 1054.71 Q232.616 1050.1 238.426 1050.1 Z" fill="#000000" fill-rule="nonzero" fill-opacity="1"></path><path clip-path="url(#clip180)" d="M164.028 803.512 Q160.417 803.512 158.589 807.077 Q156.783 810.619 156.783 817.748 Q156.783 824.855 158.589 828.42 Q160.417 831.961 164.028 831.961 Q167.663 831.961 169.468 828.42 Q171.297 824.855 171.297 817.748 Q171.297 810.619 169.468 807.077 Q167.663 803.512 164.028 803.512 M164.028 799.809 Q169.839 799.809 172.894 804.415 Q175.973 808.998 175.973 817.748 Q175.973 826.475 172.894 831.082 Q169.839 835.665 164.028 835.665 Q158.218 835.665 155.14 831.082 Q152.084 826.475 152.084 817.748 Q152.084 808.998 155.14 804.415 Q158.218 799.809 164.028 799.809 Z" fill="#000000" fill-rule="nonzero" fill-opacity="1"></path><path clip-path="url(#clip180)" d="M184.19 829.114 L189.075 829.114 L189.075 834.994 L184.19 834.994 L184.19 829.114 Z" fill="#000000" fill-rule="nonzero" fill-opacity="1"></path><path clip-path="url(#clip180)" d="M203.287 831.058 L219.607 831.058 L219.607 834.994 L197.662 834.994 L197.662 831.058 Q200.325 828.304 204.908 823.674 Q209.514 819.021 210.695 817.679 Q212.94 815.156 213.82 813.42 Q214.723 811.66 214.723 809.971 Q214.723 807.216 212.778 805.48 Q210.857 803.744 207.755 803.744 Q205.556 803.744 203.102 804.508 Q200.672 805.272 197.894 806.822 L197.894 802.1 Q200.718 800.966 203.172 800.387 Q205.625 799.809 207.662 799.809 Q213.033 799.809 216.227 802.494 Q219.422 805.179 219.422 809.67 Q219.422 811.799 218.611 813.721 Q217.824 815.619 215.718 818.211 Q215.139 818.883 212.037 822.1 Q208.936 825.295 203.287 831.058 Z" fill="#000000" fill-rule="nonzero" fill-opacity="1"></path><path clip-path="url(#clip180)" d="M229.468 800.434 L247.824 800.434 L247.824 804.369 L233.75 804.369 L233.75 812.841 Q234.769 812.494 235.787 812.332 Q236.806 812.147 237.824 812.147 Q243.611 812.147 246.991 815.318 Q250.371 818.489 250.371 823.906 Q250.371 829.484 246.898 832.586 Q243.426 835.665 237.107 835.665 Q234.931 835.665 232.662 835.295 Q230.417 834.924 228.01 834.183 L228.01 829.484 Q230.093 830.619 232.315 831.174 Q234.537 831.73 237.014 831.73 Q241.019 831.73 243.357 829.623 Q245.695 827.517 245.695 823.906 Q245.695 820.295 243.357 818.188 Q241.019 816.082 237.014 816.082 Q235.139 816.082 233.264 816.498 Q231.412 816.915 229.468 817.795 L229.468 800.434 Z" fill="#000000" fill-rule="nonzero" fill-opacity="1"></path><path clip-path="url(#clip180)" d="M163.033 553.221 Q159.422 553.221 157.593 556.786 Q155.788 560.328 155.788 567.457 Q155.788 574.564 157.593 578.128 Q159.422 581.67 163.033 581.67 Q166.667 581.67 168.473 578.128 Q170.302 574.564 170.302 567.457 Q170.302 560.328 168.473 556.786 Q166.667 553.221 163.033 553.221 M163.033 549.517 Q168.843 549.517 171.899 554.124 Q174.977 558.707 174.977 567.457 Q174.977 576.184 171.899 580.79 Q168.843 585.374 163.033 585.374 Q157.223 585.374 154.144 580.79 Q151.089 576.184 151.089 567.457 Q151.089 558.707 154.144 554.124 Q157.223 549.517 163.033 549.517 Z" fill="#000000" fill-rule="nonzero" fill-opacity="1"></path><path clip-path="url(#clip180)" d="M183.195 578.823 L188.079 578.823 L188.079 584.702 L183.195 584.702 L183.195 578.823 Z" fill="#000000" fill-rule="nonzero" fill-opacity="1"></path><path clip-path="url(#clip180)" d="M198.311 550.142 L216.667 550.142 L216.667 554.078 L202.593 554.078 L202.593 562.55 Q203.612 562.203 204.63 562.041 Q205.649 561.855 206.667 561.855 Q212.454 561.855 215.834 565.027 Q219.213 568.198 219.213 573.615 Q219.213 579.193 215.741 582.295 Q212.269 585.374 205.949 585.374 Q203.774 585.374 201.505 585.003 Q199.26 584.633 196.852 583.892 L196.852 579.193 Q198.936 580.327 201.158 580.883 Q203.38 581.439 205.857 581.439 Q209.861 581.439 212.199 579.332 Q214.537 577.226 214.537 573.615 Q214.537 570.003 212.199 567.897 Q209.861 565.791 205.857 565.791 Q203.982 565.791 202.107 566.207 Q200.255 566.624 198.311 567.503 L198.311 550.142 Z" fill="#000000" fill-rule="nonzero" fill-opacity="1"></path><path clip-path="url(#clip180)" d="M238.426 553.221 Q234.815 553.221 232.986 556.786 Q231.181 560.328 231.181 567.457 Q231.181 574.564 232.986 578.128 Q234.815 581.67 238.426 581.67 Q242.06 581.67 243.866 578.128 Q245.695 574.564 245.695 567.457 Q245.695 560.328 243.866 556.786 Q242.06 553.221 238.426 553.221 M238.426 549.517 Q244.236 549.517 247.292 554.124 Q250.371 558.707 250.371 567.457 Q250.371 576.184 247.292 580.79 Q244.236 585.374 238.426 585.374 Q232.616 585.374 229.537 580.79 Q226.482 576.184 226.482 567.457 Q226.482 558.707 229.537 554.124 Q232.616 549.517 238.426 549.517 Z" fill="#000000" fill-rule="nonzero" fill-opacity="1"></path><path clip-path="url(#clip180)" d="M164.028 302.93 Q160.417 302.93 158.589 306.495 Q156.783 310.036 156.783 317.166 Q156.783 324.272 158.589 327.837 Q160.417 331.379 164.028 331.379 Q167.663 331.379 169.468 327.837 Q171.297 324.272 171.297 317.166 Q171.297 310.036 169.468 306.495 Q167.663 302.93 164.028 302.93 M164.028 299.226 Q169.839 299.226 172.894 303.833 Q175.973 308.416 175.973 317.166 Q175.973 325.893 172.894 330.499 Q169.839 335.083 164.028 335.083 Q158.218 335.083 155.14 330.499 Q152.084 325.893 152.084 317.166 Q152.084 308.416 155.14 303.833 Q158.218 299.226 164.028 299.226 Z" fill="#000000" fill-rule="nonzero" fill-opacity="1"></path><path clip-path="url(#clip180)" d="M184.19 328.532 L189.075 328.532 L189.075 334.411 L184.19 334.411 L184.19 328.532 Z" fill="#000000" fill-rule="nonzero" fill-opacity="1"></path><path clip-path="url(#clip180)" d="M198.079 299.851 L220.301 299.851 L220.301 301.842 L207.755 334.411 L202.871 334.411 L214.676 303.786 L198.079 303.786 L198.079 299.851 Z" fill="#000000" fill-rule="nonzero" fill-opacity="1"></path><path clip-path="url(#clip180)" d="M229.468 299.851 L247.824 299.851 L247.824 303.786 L233.75 303.786 L233.75 312.259 Q234.769 311.911 235.787 311.749 Q236.806 311.564 237.824 311.564 Q243.611 311.564 246.991 314.735 Q250.371 317.907 250.371 323.323 Q250.371 328.902 246.898 332.004 Q243.426 335.083 237.107 335.083 Q234.931 335.083 232.662 334.712 Q230.417 334.342 228.01 333.601 L228.01 328.902 Q230.093 330.036 232.315 330.592 Q234.537 331.147 237.014 331.147 Q241.019 331.147 243.357 329.041 Q245.695 326.934 245.695 323.323 Q245.695 319.712 243.357 317.606 Q241.019 315.499 237.014 315.499 Q235.139 315.499 233.264 315.916 Q231.412 316.333 229.468 317.212 L229.468 299.851 Z" fill="#000000" fill-rule="nonzero" fill-opacity="1"></path><path clip-path="url(#clip180)" d="M22.818 823.52 L46.4666 832.241 L46.4666 814.767 L22.818 823.52 M16.4842 827.148 L16.4842 819.859 L64.0042 801.749 L64.0042 808.433 L51.8138 812.762 L51.8138 834.182 L64.0042 838.511 L64.0042 845.29 L16.4842 827.148 Z" fill="#000000" fill-rule="nonzero" fill-opacity="1"></path><path clip-path="url(#clip180)" d="M14.5426 780.997 Q21.8632 785.262 29.0246 787.331 Q36.186 789.399 43.5384 789.399 Q50.8908 789.399 58.1159 787.331 Q65.3091 785.23 72.5979 780.997 L72.5979 786.089 Q65.1182 790.864 57.8931 793.251 Q50.668 795.606 43.5384 795.606 Q36.4406 795.606 29.2474 793.251 Q22.0542 790.895 14.5426 786.089 L14.5426 780.997 Z" fill="#000000" fill-rule="nonzero" fill-opacity="1"></path><path clip-path="url(#clip180)" d="M64.9272 758.271 Q64.9272 771.48 46.021 771.48 Q38.5413 771.48 28.3562 766.547 L28.3562 760.244 Q38.5413 764.796 46.1802 764.796 Q59.9619 764.796 59.9619 757.73 Q59.9619 751.269 42.8382 751.269 L42.8382 745.858 Q59.9619 745.858 59.9619 739.397 Q59.9619 732.331 46.1802 732.331 Q38.5413 732.331 28.3562 736.882 L28.3562 730.58 Q38.5413 725.647 46.021 725.647 Q64.9272 725.647 64.9272 738.856 Q64.9272 747.513 55.4105 748.563 Q64.9272 749.868 64.9272 758.271 Z" fill="#000000" fill-rule="nonzero" fill-opacity="1"></path><path clip-path="url(#clip180)" d="M14.5426 715.971 L14.5426 710.878 Q22.0542 706.104 29.2474 703.749 Q36.4406 701.362 43.5384 701.362 Q50.668 701.362 57.8931 703.749 Q65.1182 706.104 72.5979 710.878 L72.5979 715.971 Q65.3091 711.738 58.1159 709.669 Q50.8908 707.568 43.5384 707.568 Q36.186 707.568 29.0246 709.669 Q21.8632 711.738 14.5426 715.971 Z" fill="#000000" fill-rule="nonzero" fill-opacity="1"></path><path clip-path="url(#clip180)" d="M1126.66 45.1919 L1126.66 72.576 L1119.21 72.576 L1119.21 45.4349 Q1119.21 38.994 1116.69 35.7938 Q1114.18 32.5936 1109.16 32.5936 Q1103.12 32.5936 1099.64 36.4419 Q1096.16 40.2903 1096.16 46.9338 L1096.16 72.576 L1088.66 72.576 L1088.66 27.2059 L1096.16 27.2059 L1096.16 34.2544 Q1098.83 30.163 1102.43 28.1376 Q1106.08 26.1121 1110.82 26.1121 Q1118.64 26.1121 1122.65 30.9732 Q1126.66 35.7938 1126.66 45.1919 Z" fill="#000000" fill-rule="nonzero" fill-opacity="1"></path><path clip-path="url(#clip180)" d="M1159.11 32.4315 Q1153.11 32.4315 1149.63 37.1306 Q1146.14 41.7891 1146.14 49.9314 Q1146.14 58.0738 1149.59 62.7728 Q1153.07 67.4314 1159.11 67.4314 Q1165.06 67.4314 1168.55 62.7323 Q1172.03 58.0333 1172.03 49.9314 Q1172.03 41.8701 1168.55 37.1711 Q1165.06 32.4315 1159.11 32.4315 M1159.11 26.1121 Q1168.83 26.1121 1174.38 32.4315 Q1179.93 38.7509 1179.93 49.9314 Q1179.93 61.0714 1174.38 67.4314 Q1168.83 73.7508 1159.11 73.7508 Q1149.34 73.7508 1143.79 67.4314 Q1138.29 61.0714 1138.29 49.9314 Q1138.29 38.7509 1143.79 32.4315 Q1149.34 26.1121 1159.11 26.1121 Z" fill="#000000" fill-rule="nonzero" fill-opacity="1"></path><path clip-path="url(#clip180)" d="M1192.28 27.2059 L1199.74 27.2059 L1199.74 72.576 L1192.28 72.576 L1192.28 27.2059 M1192.28 9.54393 L1199.74 9.54393 L1199.74 18.9825 L1192.28 18.9825 L1192.28 9.54393 Z" fill="#000000" fill-rule="nonzero" fill-opacity="1"></path><path clip-path="url(#clip180)" d="M1244.26 28.5427 L1244.26 35.5912 Q1241.1 33.9709 1237.69 33.1607 Q1234.29 32.3505 1230.65 32.3505 Q1225.1 32.3505 1222.3 34.0519 Q1219.55 35.7533 1219.55 39.156 Q1219.55 41.7486 1221.53 43.2475 Q1223.52 44.7058 1229.51 46.0426 L1232.06 46.6097 Q1240 48.3111 1243.33 51.4303 Q1246.69 54.509 1246.69 60.0587 Q1246.69 66.3781 1241.66 70.0644 Q1236.68 73.7508 1227.93 73.7508 Q1224.29 73.7508 1220.32 73.0216 Q1216.39 72.3329 1212.01 70.9151 L1212.01 63.2184 Q1216.14 65.3654 1220.15 66.4591 Q1224.16 67.5124 1228.09 67.5124 Q1233.36 67.5124 1236.2 65.73 Q1239.03 63.9071 1239.03 60.6258 Q1239.03 57.5877 1236.97 55.9673 Q1234.94 54.3469 1228.01 52.8481 L1225.42 52.2405 Q1218.49 50.7821 1215.41 47.7845 Q1212.34 44.7463 1212.34 39.4801 Q1212.34 33.0797 1216.87 29.5959 Q1221.41 26.1121 1229.75 26.1121 Q1233.89 26.1121 1237.53 26.7198 Q1241.18 27.3274 1244.26 28.5427 Z" fill="#000000" fill-rule="nonzero" fill-opacity="1"></path><path clip-path="url(#clip180)" d="M1297.36 48.0275 L1297.36 51.6733 L1263.09 51.6733 Q1263.58 59.3701 1267.71 63.421 Q1271.88 67.4314 1279.3 67.4314 Q1283.59 67.4314 1287.6 66.3781 Q1291.65 65.3249 1295.62 63.2184 L1295.62 70.267 Q1291.61 71.9684 1287.4 72.8596 Q1283.19 73.7508 1278.85 73.7508 Q1268 73.7508 1261.64 67.4314 Q1255.32 61.1119 1255.32 50.3365 Q1255.32 39.1965 1261.31 32.6746 Q1267.35 26.1121 1277.56 26.1121 Q1286.71 26.1121 1292.02 32.0264 Q1297.36 37.9003 1297.36 48.0275 M1289.91 45.84 Q1289.83 39.7232 1286.47 36.0774 Q1283.15 32.4315 1277.64 32.4315 Q1271.4 32.4315 1267.63 35.9558 Q1263.9 39.4801 1263.34 45.8805 L1289.91 45.84 Z" fill="#000000" fill-rule="nonzero" fill-opacity="1"></path><path clip-path="url(#clip180)" d="M1336.94 34.9026 L1388.87 34.9026 L1388.87 41.7081 L1336.94 41.7081 L1336.94 34.9026 M1336.94 51.4303 L1388.87 51.4303 L1388.87 58.3168 L1336.94 58.3168 L1336.94 51.4303 Z" fill="#000000" fill-rule="nonzero" fill-opacity="1"></path><path clip-path="url(#clip180)" d="M1450.41 17.4837 Q1444.09 17.4837 1440.89 23.7221 Q1437.73 29.92 1437.73 42.3968 Q1437.73 54.833 1440.89 61.0714 Q1444.09 67.2693 1450.41 67.2693 Q1456.77 67.2693 1459.93 61.0714 Q1463.13 54.833 1463.13 42.3968 Q1463.13 29.92 1459.93 23.7221 Q1456.77 17.4837 1450.41 17.4837 M1450.41 11.0023 Q1460.58 11.0023 1465.92 19.0636 Q1471.31 27.0843 1471.31 42.3968 Q1471.31 57.6687 1465.92 65.73 Q1460.58 73.7508 1450.41 73.7508 Q1440.24 73.7508 1434.85 65.73 Q1429.5 57.6687 1429.5 42.3968 Q1429.5 27.0843 1434.85 19.0636 Q1440.24 11.0023 1450.41 11.0023 Z" fill="#000000" fill-rule="nonzero" fill-opacity="1"></path><path clip-path="url(#clip180)" d="M1485.69 62.2867 L1494.24 62.2867 L1494.24 72.576 L1485.69 72.576 L1485.69 62.2867 Z" fill="#000000" fill-rule="nonzero" fill-opacity="1"></path><path clip-path="url(#clip180)" d="M1529.56 17.4837 Q1523.24 17.4837 1520.04 23.7221 Q1516.88 29.92 1516.88 42.3968 Q1516.88 54.833 1520.04 61.0714 Q1523.24 67.2693 1529.56 67.2693 Q1535.92 67.2693 1539.08 61.0714 Q1542.28 54.833 1542.28 42.3968 Q1542.28 29.92 1539.08 23.7221 Q1535.92 17.4837 1529.56 17.4837 M1529.56 11.0023 Q1539.73 11.0023 1545.08 19.0636 Q1550.46 27.0843 1550.46 42.3968 Q1550.46 57.6687 1545.08 65.73 Q1539.73 73.7508 1529.56 73.7508 Q1519.39 73.7508 1514.01 65.73 Q1508.66 57.6687 1508.66 42.3968 Q1508.66 27.0843 1514.01 19.0636 Q1519.39 11.0023 1529.56 11.0023 Z" fill="#000000" fill-rule="nonzero" fill-opacity="1"></path><polyline clip-path="url(#clip182)" style="stroke:#009af9; stroke-linecap:round; stroke-linejoin:round; stroke-width:4; stroke-opacity:1; fill:none" points="344.853,1068 346.805,1068 348.756,1068 350.707,1068 352.659,1068 354.61,1068 356.561,1068 358.513,1068 360.464,1068 362.415,1068 364.367,1068 366.318,1068 368.27,1068 370.221,1068 372.172,1068 374.124,1068 376.075,1068 378.026,1068 379.978,1068 381.929,1068 383.881,1068 385.832,1068 387.783,1068 389.735,1068 391.686,1068 393.637,1068 395.589,1068 397.54,1068 399.492,1068 401.443,1068 403.394,1068 405.346,1068 407.297,1068 409.248,1068 411.2,1068 413.151,1068 415.103,1068 417.054,1068 419.005,1068 420.957,1068 422.908,1068 424.859,1068 426.811,1068 428.762,1068 430.713,1068 432.665,1068 434.616,1068 436.568,1068 438.519,1068 440.47,1068 442.422,1068 444.373,1068 446.324,1068 448.276,1068 450.227,1068 452.179,1068 454.13,1068 456.081,1068 458.033,1068 459.984,1068 461.935,1068 463.887,1068 465.838,1068 467.79,1068 469.741,1068 471.692,1068 473.644,1068 475.595,1068 477.546,1068 479.498,1068 481.449,1068 483.401,1068 485.352,1068 487.303,1068 489.255,1068 491.206,1068 493.157,1068 495.109,1068 497.06,1068 499.011,1068 500.963,1068 502.914,1068 504.866,1068 506.817,1068 508.768,1068 510.72,1068 512.671,1068 514.622,1068 516.574,1068 518.525,1068 520.477,1068 522.428,1068 524.379,1068 526.331,1068 528.282,1068 530.233,1068 532.185,1068 534.136,1068 536.088,1068 538.039,1068 539.99,1068 541.942,1068 543.893,1068 545.844,1068 547.796,1068 549.747,1068 551.699,1068 553.65,1068 555.601,1068 557.553,1068 559.504,1068 561.455,1068 563.407,1068 565.358,1068 567.309,1068 569.261,1068 571.212,1068 573.164,1068 575.115,1067.99 577.066,1067.99 579.018,1067.99 580.969,1067.99 582.92,1067.99 584.872,1067.99 586.823,1067.99 588.775,1067.99 590.726,1067.98 592.677,1067.98 594.629,1067.98 596.58,1067.98 598.531,1067.98 600.483,1067.97 602.434,1067.97 604.386,1067.97 606.337,1067.96 608.288,1067.96 610.24,1067.96 612.191,1067.95 614.142,1067.95 616.094,1067.94 618.045,1067.94 619.997,1067.93 621.948,1067.92 623.899,1067.92 625.851,1067.91 627.802,1067.9 629.753,1067.89 631.705,1067.89 633.656,1067.88 635.608,1067.86 637.559,1067.85 639.51,1067.84 641.462,1067.83 643.413,1067.81 645.364,1067.8 647.316,1067.78 649.267,1067.77 651.218,1067.75 653.17,1067.73 655.121,1067.71 657.073,1067.68 659.024,1067.66 660.975,1067.63 662.927,1067.6 664.878,1067.57 666.829,1067.54 668.781,1067.51 670.732,1067.47 672.684,1067.43 674.635,1067.39 676.586,1067.35 678.538,1067.3 680.489,1067.25 682.44,1067.2 684.392,1067.14 686.343,1067.08 688.295,1067.01 690.246,1066.95 692.197,1066.87 694.149,1066.8 696.1,1066.71 698.051,1066.63 700.003,1066.53 701.954,1066.44 703.906,1066.33 705.857,1066.22 707.808,1066.11 709.76,1065.98 711.711,1065.85 713.662,1065.71 715.614,1065.57 717.565,1065.41 719.516,1065.25 721.468,1065.08 723.419,1064.9 725.371,1064.71 727.322,1064.51 729.273,1064.29 731.225,1064.07 733.176,1063.83 735.127,1063.59 737.079,1063.33 739.03,1063.05 740.982,1062.76 742.933,1062.46 744.884,1062.15 746.836,1061.81 748.787,1061.46 750.738,1061.1 752.69,1060.71 754.641,1060.31 756.593,1059.89 758.544,1059.45 760.495,1058.99 762.447,1058.51 764.398,1058 766.349,1057.48 768.301,1056.93 770.252,1056.35 772.204,1055.76 774.155,1055.13 776.106,1054.48 778.058,1053.81 780.009,1053.1 781.96,1052.37 783.912,1051.6 785.863,1050.81 787.814,1049.98 789.766,1049.13 791.717,1048.24 793.669,1047.32 795.62,1046.36 797.571,1045.36 799.523,1044.34 801.474,1043.27 803.425,1042.17 805.377,1041.02 807.328,1039.84 809.28,1038.62 811.231,1037.36 813.182,1036.06 815.134,1034.71 817.085,1033.32 819.036,1031.89 820.988,1030.42 822.939,1028.9 824.891,1027.33 826.842,1025.72 828.793,1024.06 830.745,1022.36 832.696,1020.61 834.647,1018.81 836.599,1016.96 838.55,1015.07 840.502,1013.13 842.453,1011.14 844.404,1009.1 846.356,1007.01 848.307,1004.87 850.258,1002.69 852.21,1000.45 854.161,998.172 856.112,995.841 858.064,993.463 860.015,991.037 861.967,988.564 863.918,986.044 865.869,983.478 867.821,980.867 869.772,978.211 871.723,975.512 873.675,972.769 875.626,969.984 877.578,967.159 879.529,964.293 881.48,961.389 883.432,958.447 885.383,955.47 887.334,952.458 889.286,949.412 891.237,946.335 893.189,943.229 895.14,940.094 897.091,936.933 899.043,933.748 900.994,930.541 902.945,927.313 904.897,924.067 906.848,920.805 908.8,917.53 910.751,914.244 912.702,910.948 914.654,907.647 916.605,904.341 918.556,901.035 920.508,897.729 922.459,894.428 924.41,891.134 926.362,887.85 928.313,884.578 930.265,881.322 932.216,878.083 934.167,874.867 936.119,871.674 938.07,868.508 940.021,865.373 941.973,862.271 943.924,859.205 945.876,856.179 947.827,853.194 949.778,850.255 951.73,847.364 953.681,844.525 955.632,841.739 957.584,839.011 959.535,836.342 961.487,833.736 963.438,831.196 965.389,828.725 967.341,826.324 969.292,823.997 971.243,821.747 973.195,819.575 975.146,817.485 977.098,815.478 979.049,813.557 981,811.725 982.952,809.982 984.903,808.332 986.854,806.776 988.806,805.316 990.757,803.953 992.708,802.69 994.66,801.528 996.611,800.468 998.563,799.511 1000.51,798.659 1002.47,797.912 1004.42,797.272 1006.37,796.739 1008.32,796.314 1010.27,795.998 1012.22,795.79 1014.17,795.691 1016.12,795.701 1018.08,795.82 1020.03,796.049 1021.98,796.386 1023.93,796.831 1025.88,797.384 1027.83,798.044 1029.78,798.811 1031.74,799.683 1033.69,800.659 1035.64,801.738 1037.59,802.919 1039.54,804.201 1041.49,805.582 1043.44,807.06 1045.4,808.634 1047.35,810.302 1049.3,812.061 1051.25,813.911 1053.2,815.848 1055.15,817.87 1057.1,819.976 1059.06,822.163 1061.01,824.428 1062.96,826.769 1064.91,829.183 1066.86,831.668 1068.81,834.22 1070.76,836.838 1072.71,839.518 1074.67,842.257 1076.62,845.053 1078.57,847.903 1080.52,850.803 1082.47,853.751 1084.42,856.743 1086.37,859.777 1088.33,862.85 1090.28,865.959 1092.23,869.1 1094.18,872.271 1096.13,875.468 1098.08,878.689 1100.03,881.931 1101.99,885.19 1103.94,888.465 1105.89,891.751 1107.84,895.047 1109.79,898.349 1111.74,901.655 1113.69,904.961 1115.64,908.266 1117.6,911.567 1119.55,914.861 1121.5,918.145 1123.45,921.418 1125.4,924.677 1127.35,927.919 1129.3,931.144 1131.26,934.347 1133.21,937.528 1135.16,940.684 1137.11,943.813 1139.06,946.915 1141.01,949.986 1142.96,953.025 1144.92,956.031 1146.87,959.002 1148.82,961.937 1150.77,964.834 1152.72,967.692 1154.67,970.51 1156.62,973.287 1158.58,976.021 1160.53,978.713 1162.48,981.36 1164.43,983.963 1166.38,986.52 1168.33,989.031 1170.28,991.495 1172.23,993.912 1174.19,996.282 1176.14,998.603 1178.09,1000.88 1180.04,1003.1 1181.99,1005.28 1183.94,1007.41 1185.89,1009.48 1187.85,1011.51 1189.8,1013.5 1191.75,1015.43 1193.7,1017.31 1195.65,1019.15 1197.6,1020.94 1199.55,1022.68 1201.51,1024.38 1203.46,1026.03 1205.41,1027.63 1207.36,1029.18 1209.31,1030.7 1211.26,1032.16 1213.21,1033.59 1215.16,1034.97 1217.12,1036.3 1219.07,1037.6 1221.02,1038.85 1222.97,1040.07 1224.92,1041.24 1226.87,1042.38 1228.82,1043.47 1230.78,1044.53 1232.73,1045.55 1234.68,1046.54 1236.63,1047.49 1238.58,1048.41 1240.53,1049.29 1242.48,1050.14 1244.44,1050.96 1246.39,1051.75 1248.34,1052.51 1250.29,1053.23 1252.24,1053.93 1254.19,1054.61 1256.14,1055.25 1258.1,1055.87 1260.05,1056.46 1262,1057.03 1263.95,1057.57 1265.9,1058.08 1267.85,1058.58 1269.8,1059.05 1271.75,1059.49 1273.71,1059.91 1275.66,1060.3 1277.61,1060.66 1279.56,1061 1281.51,1061.29 1283.46,1061.55 1285.41,1061.76 1287.37,1061.91 1289.32,1061.99 1291.27,1061.99 1293.22,1061.89 1295.17,1061.66 1297.12,1061.27 1299.07,1060.69 1301.03,1059.88 1302.98,1058.77 1304.93,1057.32 1306.88,1055.45 1308.83,1053.08 1310.78,1050.1 1312.73,1046.41 1314.68,1041.9 1316.64,1036.41 1318.59,1029.82 1320.54,1021.96 1322.49,1012.66 1324.44,1001.76 1326.39,989.076 1328.34,974.441 1330.3,957.691 1332.25,938.673 1334.2,917.258 1336.15,893.341 1338.1,866.853 1340.05,837.767 1342,806.106 1343.96,771.946 1345.91,735.429 1347.86,696.757 1349.81,656.205 1351.76,614.115 1353.71,570.896 1355.66,527.02 1357.61,483.016 1359.57,439.459 1361.52,396.962 1363.47,356.159 1365.42,317.69 1367.37,282.19 1369.32,250.262 1371.27,222.47 1373.23,199.316 1375.18,181.228 1377.13,168.546 1379.08,161.51 1381.03,160.256 1382.98,164.809 1384.93,175.081 1386.89,190.877 1388.84,211.899 1390.79,237.758 1392.74,267.981 1394.69,302.031 1396.64,339.318 1398.59,379.221 1400.55,421.1 1402.5,464.316 1404.45,508.245 1406.4,552.295 1408.35,595.915 1410.3,638.608 1412.25,679.936 1414.2,719.528 1416.16,757.08 1418.11,792.359 1420.06,825.197 1422.01,855.489 1423.96,883.191 1425.91,908.309 1427.86,930.895 1429.82,951.039 1431.77,968.861 1433.72,984.504 1435.67,998.128 1437.62,1009.9 1439.57,1020 1441.52,1028.6 1443.48,1035.86 1445.43,1041.95 1447.38,1047.03 1449.33,1051.22 1451.28,1054.66 1453.23,1057.46 1455.18,1059.73 1457.13,1061.55 1459.09,1063 1461.04,1064.15 1462.99,1065.06 1464.94,1065.76 1466.89,1066.31 1468.84,1066.73 1470.79,1067.06 1472.75,1067.3 1474.7,1067.49 1476.65,1067.62 1478.6,1067.73 1480.55,1067.8 1482.5,1067.86 1484.45,1067.9 1486.41,1067.93 1488.36,1067.95 1490.31,1067.97 1492.26,1067.98 1494.21,1067.99 1496.16,1067.99 1498.11,1068 1500.07,1068 1502.02,1068 1503.97,1068 1505.92,1068 1507.87,1068 1509.82,1068 1511.77,1068 1513.72,1068 1515.68,1068 1517.63,1068 1519.58,1068 1521.53,1068 1523.48,1068 1525.43,1068 1527.38,1068 1529.34,1068 1531.29,1068 1533.24,1068 1535.19,1068 1537.14,1068 1539.09,1068 1541.04,1068 1543,1068 1544.95,1068 1546.9,1068 1548.85,1068 1550.8,1068 1552.75,1068 1554.7,1068 1556.65,1068 1558.61,1068 1560.56,1068 1562.51,1068 1564.46,1068 1566.41,1068 1568.36,1068 1570.31,1068 1572.27,1068 1574.22,1068 1576.17,1068 1578.12,1068 1580.07,1068 1582.02,1068 1583.97,1068 1585.93,1068 1587.88,1068 1589.83,1068 1591.78,1068 1593.73,1068 1595.68,1068 1597.63,1068 1599.59,1068 1601.54,1068 1603.49,1068 1605.44,1068 1607.39,1068 1609.34,1068 1611.29,1068 1613.24,1068 1615.2,1068 1617.15,1068 1619.1,1068 1621.05,1068 1623,1068 1624.95,1068 1626.9,1068 1628.86,1068 1630.81,1068 1632.76,1068 1634.71,1068 1636.66,1068 1638.61,1068 1640.56,1068 1642.52,1068 1644.47,1068 1646.42,1068 1648.37,1068 1650.32,1068 1652.27,1068 1654.22,1068 1656.17,1068 1658.13,1068 1660.08,1068 1662.03,1068 1663.98,1068 1665.93,1068 1667.88,1068 1669.83,1068 1671.79,1068 1673.74,1068 1675.69,1068 1677.64,1068 1679.59,1068 1681.54,1068 1683.49,1068 1685.45,1068 1687.4,1068 1689.35,1068 1691.3,1068 1693.25,1068 1695.2,1068 1697.15,1068 1699.1,1068 1701.06,1068 1703.01,1068 1704.96,1068 1706.91,1068 1708.86,1068 1710.81,1068 1712.76,1068 1714.72,1068 1716.67,1068 1718.62,1068 1720.57,1068 1722.52,1068 1724.47,1068 1726.42,1068 1728.38,1068 1730.33,1068 1732.28,1068 1734.23,1068 1736.18,1068 1738.13,1068 1740.08,1068 1742.04,1068 1743.99,1068 1745.94,1068 1747.89,1068 1749.84,1068 1751.79,1068 1753.74,1068 1755.69,1068 1757.65,1068 1759.6,1068 1761.55,1068 1763.5,1068 1765.45,1068 1767.4,1068 1769.35,1068 1771.31,1068 1773.26,1068 1775.21,1068 1777.16,1068 1779.11,1068 1781.06,1068 1783.01,1068 1784.97,1068 1786.92,1068 1788.87,1068 1790.82,1068 1792.77,1068 1794.72,1068 1796.67,1068 1798.62,1068 1800.58,1068 1802.53,1068 1804.48,1068 1806.43,1068 1808.38,1068 1810.33,1068 1812.28,1068 1814.24,1068 1816.19,1068 1818.14,1068 1820.09,1068 1822.04,1068 1823.99,1068 1825.94,1068 1827.9,1068 1829.85,1068 1831.8,1068 1833.75,1068 1835.7,1068 1837.65,1068 1839.6,1068 1841.56,1068 1843.51,1068 1845.46,1068 1847.41,1068 1849.36,1068 1851.31,1068 1853.26,1068 1855.21,1068 1857.17,1068 1859.12,1068 1861.07,1068 1863.02,1068 1864.97,1068 1866.92,1068 1868.87,1068 1870.83,1068 1872.78,1068 1874.73,1068 1876.68,1068 1878.63,1068 1880.58,1068 1882.53,1068 1884.49,1068 1886.44,1068 1888.39,1068 1890.34,1068 1892.29,1068 1894.24,1068 1896.19,1068 1898.14,1068 1900.1,1068 1902.05,1068 1904,1068 1905.95,1068 1907.9,1068 1909.85,1068 1911.8,1068 1913.76,1068 1915.71,1068 1917.66,1068 1919.61,1068 1921.56,1068 1923.51,1068 1925.46,1068 1927.42,1068 1929.37,1068 1931.32,1068 1933.27,1068 1935.22,1068 1937.17,1068 1939.12,1068 1941.08,1068 1943.03,1068 1944.98,1068 1946.93,1068 1948.88,1068 1950.83,1068 1952.78,1068 1954.73,1068 1956.69,1068 1958.64,1068 1960.59,1068 1962.54,1068 1964.49,1068 1966.44,1068 1968.39,1068 1970.35,1068 1972.3,1068 1974.25,1068 1976.2,1068 1978.15,1068 1980.1,1068 1982.05,1068 1984.01,1068 1985.96,1068 1987.91,1068 1989.86,1068 1991.81,1068 1993.76,1068 1995.71,1068 1997.66,1068 1999.62,1068 2001.57,1068 2003.52,1068 2005.47,1068 2007.42,1068 2009.37,1068 2011.32,1068 2013.28,1068 2015.23,1068 2017.18,1068 2019.13,1068 2021.08,1068 2023.03,1068 2024.98,1068 2026.94,1068 2028.89,1068 2030.84,1068 2032.79,1068 2034.74,1068 2036.69,1068 2038.64,1068 2040.6,1068 2042.55,1068 2044.5,1068 2046.45,1068 2048.4,1068 2050.35,1068 2052.3,1068 2054.25,1068 2056.21,1068 2058.16,1068 2060.11,1068 2062.06,1068 2064.01,1068 2065.96,1068 2067.91,1068 2069.87,1068 2071.82,1068 2073.77,1068 2075.72,1068 2077.67,1068 2079.62,1068 2081.57,1068 2083.53,1068 2085.48,1068 2087.43,1068 2089.38,1068 2091.33,1068 2093.28,1068 2095.23,1068 2097.18,1068 2099.14,1068 2101.09,1068 2103.04,1068 2104.99,1068 2106.94,1068 2108.89,1068 2110.84,1068 2112.8,1068 2114.75,1068 2116.7,1068 2118.65,1068 2120.6,1068 2122.55,1068 2124.5,1068 2126.46,1068 2128.41,1068 2130.36,1068 2132.31,1068 2134.26,1068 2136.21,1068 2138.16,1068 2140.11,1068 2142.07,1068 2144.02,1068 2145.97,1068 2147.92,1068 2149.87,1068 2151.82,1068 2153.77,1068 2155.73,1068 2157.68,1068 2159.63,1068 2161.58,1068 2163.53,1068 2165.48,1068 2167.43,1068 2169.39,1068 2171.34,1068 2173.29,1068 2175.24,1068 2177.19,1068 2179.14,1068 2181.09,1068 2183.05,1068 2185,1068 2186.95,1068 2188.9,1068 2190.85,1068 2192.8,1068 2194.75,1068 2196.7,1068 2198.66,1068 2200.61,1068 2202.56,1068 2204.51,1068 2206.46,1068 2208.41,1068 2210.36,1068 2212.32,1068 2214.27,1068 2216.22,1068 2218.17,1068 2220.12,1068 2222.07,1068 2224.02,1068 2225.98,1068 2227.93,1068 2229.88,1068 2231.83,1068 2233.78,1068 2235.73,1068 2237.68,1068 2239.63,1068 2241.59,1068 2243.54,1068 2245.49,1068 2247.44,1068 2249.39,1068 2251.34,1068 2253.29,1068 2255.25,1068 2257.2,1068 2259.15,1068 2261.1,1068 2263.05,1068 2265,1068 2266.95,1068 2268.91,1068 2270.86,1068 2272.81,1068 2274.76,1068 2276.71,1068 2278.66,1068 2280.61,1068 2282.57,1068 2284.52,1068 2286.47,1068 2288.42,1068 2290.37,1068 2292.32,1068 2294.27,1068 "></polyline>
<polyline clip-path="url(#clip182)" style="stroke:#e26f46; stroke-linecap:round; stroke-linejoin:round; stroke-width:4; stroke-opacity:1; fill:none" points="344.853,776.022 346.805,777.502 348.756,780.425 350.707,784.791 352.659,790.579 354.61,797.76 356.561,806.3 358.513,816.155 360.464,827.277 362.415,839.612 364.367,853.099 366.318,867.672 368.27,883.259 370.221,899.784 372.172,917.166 374.124,935.32 376.075,954.158 378.026,973.588 379.978,993.517 381.929,1013.85 383.881,1034.48 385.832,1055.32 387.783,1076.26 389.735,1097.21 391.686,1118.06 393.637,1138.72 395.589,1159.08 397.54,1179.06 399.492,1198.56 401.443,1217.49 403.394,1235.76 405.346,1253.3 407.297,1270.01 409.248,1285.83 411.2,1300.69 413.151,1314.52 415.103,1327.26 417.054,1338.86 419.005,1349.28 420.957,1358.47 422.908,1366.4 424.859,1373.04 426.811,1378.37 428.762,1382.37 430.713,1385.04 432.665,1386.38 434.616,1386.4 436.568,1385.09 438.519,1382.49 440.47,1378.63 442.422,1373.52 444.373,1367.21 446.324,1359.74 448.276,1351.16 450.227,1341.52 452.179,1330.88 454.13,1319.31 456.081,1306.87 458.033,1293.62 459.984,1279.65 461.935,1265.02 463.887,1249.82 465.838,1234.13 467.79,1218.03 469.741,1201.59 471.692,1184.9 473.644,1168.05 475.595,1151.11 477.546,1134.17 479.498,1117.31 481.449,1100.6 483.401,1084.11 485.352,1067.93 487.303,1052.11 489.255,1036.74 491.206,1021.85 493.157,1007.53 495.109,993.813 497.06,980.755 499.011,968.4 500.963,956.786 502.914,945.947 504.866,935.913 506.817,926.705 508.768,918.343 510.72,910.839 512.671,904.198 514.622,898.423 516.574,893.51 518.525,889.449 520.477,886.226 522.428,883.823 524.379,882.215 526.331,881.375 528.282,881.27 530.233,881.864 532.185,883.117 534.136,884.986 536.088,887.426 538.039,890.388 539.99,893.822 541.942,897.676 543.893,901.895 545.844,906.427 547.796,911.216 549.747,916.207 551.699,921.346 553.65,926.578 555.601,931.851 557.553,937.113 559.504,942.316 561.455,947.412 563.407,952.355 565.358,957.105 567.309,961.623 569.261,965.873 571.212,969.823 573.164,973.447 575.115,976.719 577.066,979.621 579.018,982.138 580.969,984.258 582.92,985.974 584.872,987.286 586.823,988.195 588.775,988.707 590.726,988.836 592.677,988.594 594.629,988.002 596.58,987.084 598.531,985.865 600.483,984.376 602.434,982.65 604.386,980.724 606.337,978.636 608.288,976.428 610.24,974.142 612.191,971.822 614.142,969.514 616.094,967.265 618.045,965.12 619.997,963.127 621.948,961.331 623.899,959.778 625.851,958.512 627.802,957.574 629.753,957.006 631.705,956.845 633.656,957.126 635.608,957.882 637.559,959.142 639.51,960.93 641.462,963.268 643.413,966.173 645.364,969.658 647.316,973.731 649.267,978.396 651.218,983.651 653.17,989.491 655.121,995.904 657.073,1002.88 659.024,1010.38 660.975,1018.41 662.927,1026.91 664.878,1035.86 666.829,1045.22 668.781,1054.95 670.732,1064.99 672.684,1075.31 674.635,1085.84 676.586,1096.54 678.538,1107.33 680.489,1118.16 682.44,1128.97 684.392,1139.7 686.343,1150.27 688.295,1160.63 690.246,1170.7 692.197,1180.43 694.149,1189.75 696.1,1198.59 698.051,1206.91 700.003,1214.63 701.954,1221.7 703.906,1228.08 705.857,1233.71 707.808,1238.55 709.76,1242.55 711.711,1245.7 713.662,1247.95 715.614,1249.28 717.565,1249.67 719.516,1249.1 721.468,1247.59 723.419,1245.11 725.371,1241.67 727.322,1237.3 729.273,1232 731.225,1225.8 733.176,1218.73 735.127,1210.82 737.079,1202.13 739.03,1192.69 740.982,1182.56 742.933,1171.79 744.884,1160.46 746.836,1148.63 748.787,1136.37 750.738,1123.76 752.69,1110.87 754.641,1097.78 756.593,1084.58 758.544,1071.36 760.495,1058.19 762.447,1045.17 764.398,1032.38 766.349,1019.9 768.301,1007.82 770.252,996.228 772.204,985.193 774.155,974.795 776.106,965.107 778.058,956.198 780.009,948.132 781.96,940.968 783.912,934.76 785.863,929.554 787.814,925.392 789.766,922.309 791.717,920.33 793.669,919.477 795.62,919.762 797.571,921.189 799.523,923.754 801.474,927.448 803.425,932.25 805.377,938.134 807.328,945.065 809.28,953 811.231,961.89 813.182,971.678 815.134,982.298 817.085,993.682 819.036,1005.75 820.988,1018.42 822.939,1031.61 824.891,1045.22 826.842,1059.15 828.793,1073.31 830.745,1087.59 832.696,1101.89 834.647,1116.09 836.599,1130.09 838.55,1143.78 840.502,1157.06 842.453,1169.8 844.404,1181.92 846.356,1193.29 848.307,1203.84 850.258,1213.45 852.21,1222.03 854.161,1229.51 856.112,1235.8 858.064,1240.82 860.015,1244.51 861.967,1246.81 863.918,1247.66 865.869,1247.03 867.821,1244.87 869.772,1241.17 871.723,1235.89 873.675,1229.04 875.626,1220.62 877.578,1210.64 879.529,1199.12 881.48,1186.09 883.432,1171.59 885.383,1155.67 887.334,1138.39 889.286,1119.81 891.237,1100.02 893.189,1079.09 895.14,1057.12 897.091,1034.2 899.043,1010.45 900.994,985.961 902.945,960.863 904.897,935.272 906.848,909.313 908.8,883.115 910.751,856.806 912.702,830.519 914.654,804.387 916.605,778.541 918.556,753.114 920.508,728.236 922.459,704.034 924.41,680.634 926.362,658.154 928.313,636.712 930.265,616.417 932.216,597.373 934.167,579.679 936.119,563.423 938.07,548.689 940.021,535.549 941.973,524.068 943.924,514.3 945.876,506.293 947.827,500.08 949.778,495.687 951.73,493.128 953.681,492.408 955.632,493.52 957.584,496.448 959.535,501.163 961.487,507.628 963.438,515.796 965.389,525.609 967.341,537 969.292,549.893 971.243,564.204 973.195,579.841 975.146,596.704 977.098,614.687 979.049,633.676 981,653.554 982.952,674.199 984.903,695.484 986.854,717.279 988.806,739.453 990.757,761.872 992.708,784.403 994.66,806.911 996.611,829.265 998.563,851.333 1000.51,872.987 1002.47,894.104 1004.42,914.563 1006.37,934.248 1008.32,953.051 1010.27,970.869 1012.22,987.604 1014.17,1003.17 1016.12,1017.49 1018.08,1030.48 1020.03,1042.09 1021.98,1052.26 1023.93,1060.96 1025.88,1068.13 1027.83,1073.77 1029.78,1077.86 1031.74,1080.4 1033.69,1081.39 1035.64,1080.84 1037.59,1078.8 1039.54,1075.29 1041.49,1070.36 1043.44,1064.06 1045.4,1056.47 1047.35,1047.64 1049.3,1037.67 1051.25,1026.63 1053.2,1014.62 1055.15,1001.75 1057.1,988.098 1059.06,973.791 1061.01,958.936 1062.96,943.647 1064.91,928.04 1066.86,912.234 1068.81,896.346 1070.76,880.495 1072.71,864.796 1074.67,849.364 1076.62,834.312 1078.57,819.747 1080.52,805.774 1082.47,792.493 1084.42,779.996 1086.37,768.373 1088.33,757.704 1090.28,748.063 1092.23,739.516 1094.18,732.123 1096.13,725.932 1098.08,720.985 1100.03,717.315 1101.99,714.945 1103.94,713.888 1105.89,714.151 1107.84,715.729 1109.79,718.608 1111.74,722.768 1113.69,728.176 1115.64,734.795 1117.6,742.577 1119.55,751.467 1121.5,761.404 1123.45,772.318 1125.4,784.136 1127.35,796.777 1129.3,810.154 1131.26,824.18 1133.21,838.761 1135.16,853.8 1137.11,869.199 1139.06,884.858 1141.01,900.677 1142.96,916.556 1144.92,932.393 1146.87,948.091 1148.82,963.554 1150.77,978.687 1152.72,993.402 1154.67,1007.61 1156.62,1021.24 1158.58,1034.2 1160.53,1046.43 1162.48,1057.87 1164.43,1068.45 1166.38,1078.14 1168.33,1086.87 1170.28,1094.63 1172.23,1101.39 1174.19,1107.12 1176.14,1111.81 1178.09,1115.47 1180.04,1118.1 1181.99,1119.7 1183.94,1120.31 1185.89,1119.95 1187.85,1118.66 1189.8,1116.47 1191.75,1113.45 1193.7,1109.64 1195.65,1105.11 1197.6,1099.92 1199.55,1094.14 1201.51,1087.86 1203.46,1081.14 1205.41,1074.07 1207.36,1066.72 1209.31,1059.2 1211.26,1051.57 1213.21,1043.92 1215.16,1036.34 1217.12,1028.9 1219.07,1021.7 1221.02,1014.79 1222.97,1008.27 1224.92,1002.19 1226.87,996.619 1228.82,991.617 1230.78,987.236 1232.73,983.523 1234.68,980.516 1236.63,978.249 1238.58,976.746 1240.53,976.025 1242.48,976.095 1244.44,976.958 1246.39,978.605 1248.34,981.023 1250.29,984.188 1252.24,988.069 1254.19,992.627 1256.14,997.815 1258.1,1003.58 1260.05,1009.86 1262,1016.59 1263.95,1023.69 1265.9,1031.09 1267.85,1038.71 1269.8,1046.44 1271.75,1054.21 1273.71,1061.92 1275.66,1069.47 1277.61,1076.75 1279.56,1083.69 1281.51,1090.16 1283.46,1096.07 1285.41,1101.34 1287.37,1105.85 1289.32,1109.52 1291.27,1112.27 1293.22,1114 1295.17,1114.63 1297.12,1114.11 1299.07,1112.35 1301.03,1109.31 1302.98,1104.92 1304.93,1099.15 1306.88,1091.97 1308.83,1083.34 1310.78,1073.25 1312.73,1061.7 1314.68,1048.69 1316.64,1034.23 1318.59,1018.34 1320.54,1001.06 1322.49,982.444 1324.44,962.53 1326.39,941.388 1328.34,919.091 1330.3,895.72 1332.25,871.368 1334.2,846.133 1336.15,820.124 1338.1,793.453 1340.05,766.243 1342,738.62 1343.96,710.716 1345.91,682.668 1347.86,654.614 1349.81,626.698 1351.76,599.063 1353.71,571.855 1355.66,545.218 1357.61,519.296 1359.57,494.233 1361.52,470.167 1363.47,447.235 1365.42,425.567 1367.37,405.29 1369.32,386.525 1371.27,369.383 1373.23,353.97 1375.18,340.384 1377.13,328.712 1379.08,319.033 1381.03,311.414 1382.98,305.912 1384.93,302.575 1386.89,301.437 1388.84,302.521 1390.79,305.839 1392.74,311.389 1394.69,319.16 1396.64,329.125 1398.59,341.248 1400.55,355.48 1402.5,371.761 1404.45,390.02 1406.4,410.174 1408.35,432.13 1410.3,455.786 1412.25,481.031 1414.2,507.743 1416.16,535.794 1418.11,565.05 1420.06,595.367 1422.01,626.6 1423.96,658.595 1425.91,691.197 1427.86,724.247 1429.82,757.586 1431.77,791.052 1433.72,824.483 1435.67,857.719 1437.62,890.602 1439.57,922.977 1441.52,954.691 1443.48,985.598 1445.43,1015.56 1447.38,1044.43 1449.33,1072.1 1451.28,1098.43 1453.23,1123.32 1455.18,1146.67 1457.13,1168.38 1459.09,1188.37 1461.04,1206.57 1462.99,1222.92 1464.94,1237.37 1466.89,1249.88 1468.84,1260.43 1470.79,1269.01 1472.75,1275.61 1474.7,1280.24 1476.65,1282.93 1478.6,1283.7 1480.55,1282.61 1482.5,1279.7 1484.45,1275.05 1486.41,1268.72 1488.36,1260.8 1490.31,1251.39 1492.26,1240.58 1494.21,1228.48 1496.16,1215.21 1498.11,1200.89 1500.07,1185.64 1502.02,1169.6 1503.97,1152.89 1505.92,1135.65 1507.87,1118.01 1509.82,1100.12 1511.77,1082.11 1513.72,1064.12 1515.68,1046.27 1517.63,1028.7 1519.58,1011.53 1521.53,994.896 1523.48,978.901 1525.43,963.66 1527.38,949.275 1529.34,935.845 1531.29,923.457 1533.24,912.192 1535.19,902.121 1537.14,893.307 1539.09,885.802 1541.04,879.648 1543,874.88 1544.95,871.519 1546.9,869.579 1548.85,869.062 1550.8,869.961 1552.75,872.258 1554.7,875.927 1556.65,880.931 1558.61,887.226 1560.56,894.756 1562.51,903.461 1564.46,913.271 1566.41,924.108 1568.36,935.891 1570.31,948.529 1572.27,961.93 1574.22,975.994 1576.17,990.619 1578.12,1005.7 1580.07,1021.13 1582.02,1036.8 1583.97,1052.6 1585.93,1068.42 1587.88,1084.16 1589.83,1099.7 1591.78,1114.94 1593.73,1129.78 1595.68,1144.13 1597.63,1157.88 1599.59,1170.96 1601.54,1183.28 1603.49,1194.76 1605.44,1205.33 1607.39,1214.93 1609.34,1223.51 1611.29,1231.02 1613.24,1237.42 1615.2,1242.67 1617.15,1246.76 1619.1,1249.67 1621.05,1251.39 1623,1251.93 1624.95,1251.3 1626.9,1249.51 1628.86,1246.59 1630.81,1242.59 1632.76,1237.53 1634.71,1231.47 1636.66,1224.46 1638.61,1216.57 1640.56,1207.85 1642.52,1198.4 1644.47,1188.27 1646.42,1177.55 1648.37,1166.33 1650.32,1154.68 1652.27,1142.71 1654.22,1130.49 1656.17,1118.12 1658.13,1105.69 1660.08,1093.29 1662.03,1081 1663.98,1068.91 1665.93,1057.11 1667.88,1045.67 1669.83,1034.67 1671.79,1024.18 1673.74,1014.27 1675.69,1005 1677.64,996.428 1679.59,988.602 1681.54,981.565 1683.49,975.355 1685.45,970.002 1687.4,965.527 1689.35,961.947 1691.3,959.269 1693.25,957.495 1695.2,956.619 1697.15,956.627 1699.1,957.499 1701.06,959.207 1703.01,961.719 1704.96,964.994 1706.91,968.986 1708.86,973.645 1710.81,978.914 1712.76,984.732 1714.72,991.035 1716.67,997.753 1718.62,1004.82 1720.57,1012.15 1722.52,1019.68 1724.47,1027.33 1726.42,1035.02 1728.38,1042.67 1730.33,1050.21 1732.28,1057.56 1734.23,1064.64 1736.18,1071.39 1738.13,1077.74 1740.08,1083.62 1742.04,1088.97 1743.99,1093.74 1745.94,1097.87 1747.89,1101.31 1749.84,1104.03 1751.79,1105.99 1753.74,1107.17 1755.69,1107.54 1757.65,1107.08 1759.6,1105.8 1761.55,1103.68 1763.5,1100.74 1765.45,1096.99 1767.4,1092.44 1769.35,1087.13 1771.31,1081.08 1773.26,1074.34 1775.21,1066.96 1777.16,1058.98 1779.11,1050.46 1781.06,1041.47 1783.01,1032.07 1784.97,1022.33 1786.92,1012.32 1788.87,1002.13 1790.82,991.841 1792.77,981.524 1794.72,971.267 1796.67,961.155 1798.62,951.272 1800.58,941.702 1802.53,932.528 1804.48,923.832 1806.43,915.691 1808.38,908.183 1810.33,901.38 1812.28,895.351 1814.24,890.159 1816.19,885.865 1818.14,882.52 1820.09,880.174 1822.04,878.868 1823.99,878.637 1825.94,879.508 1827.9,881.503 1829.85,884.635 1831.8,888.91 1833.75,894.327 1835.7,900.877 1837.65,908.542 1839.6,917.298 1841.56,927.113 1843.51,937.948 1845.46,949.757 1847.41,962.486 1849.36,976.076 1851.31,990.461 1853.26,1005.57 1855.21,1021.32 1857.17,1037.64 1859.12,1054.43 1861.07,1071.61 1863.02,1089.09 1864.97,1106.76 1866.92,1124.53 1868.87,1142.3 1870.83,1159.97 1872.78,1177.44 1874.73,1194.6 1876.68,1211.36 1878.63,1227.62 1880.58,1243.29 1882.53,1258.27 1884.49,1272.47 1886.44,1285.81 1888.39,1298.21 1890.34,1309.59 1892.29,1319.89 1894.24,1329.04 1896.19,1336.99 1898.14,1343.69 1900.1,1349.09 1902.05,1353.16 1904,1355.88 1905.95,1357.22 1907.9,1357.18 1909.85,1355.75 1911.8,1352.94 1913.76,1348.76 1915.71,1343.24 1917.66,1336.4 1919.61,1328.29 1921.56,1318.94 1923.51,1308.42 1925.46,1296.79 1927.42,1284.1 1929.37,1270.44 1931.32,1255.88 1933.27,1240.51 1935.22,1224.41 1937.17,1207.69 1939.12,1190.44 1941.08,1172.75 1943.03,1154.74 1944.98,1136.5 1946.93,1118.15 1948.88,1099.78 1950.83,1081.52 1952.78,1063.46 1954.73,1045.71 1956.69,1028.37 1958.64,1011.55 1960.59,995.332 1962.54,979.823 1964.49,965.109 1966.44,951.273 1968.39,938.395 1970.35,926.549 1972.3,915.801 1974.25,906.214 1976.2,897.84 1978.15,890.725 1980.1,884.909 1982.05,880.422 1984.01,877.288 1985.96,875.522 1987.91,875.13 1989.86,876.112 1991.81,878.457 1993.76,882.149 1995.71,887.161 1997.66,893.46 1999.62,901.007 2001.57,909.751 2003.52,919.639 2005.47,930.609 2007.42,942.592 2009.37,955.514 2011.32,969.297 2013.28,983.855 2015.23,999.099 2017.18,1014.94 2019.13,1031.28 2021.08,1048.01 2023.03,1065.05 2024.98,1082.28 2026.94,1099.6 2028.89,1116.92 2030.84,1134.11 2032.79,1151.09 2034.74,1167.75 2036.69,1184 2038.64,1199.72 2040.6,1214.84 2042.55,1229.25 2044.5,1242.88 2046.45,1255.65 2048.4,1267.47 2050.35,1278.27 2052.3,1287.99 2054.25,1296.58 2056.21,1303.97 2058.16,1310.13 2060.11,1315.01 2062.06,1318.58 2064.01,1320.83 2065.96,1321.72 2067.91,1321.26 2069.87,1319.43 2071.82,1316.25 2073.77,1311.73 2075.72,1305.89 2077.67,1298.76 2079.62,1290.36 2081.57,1280.74 2083.53,1269.95 2085.48,1258.04 2087.43,1245.07 2089.38,1231.1 2091.33,1216.21 2093.28,1200.46 2095.23,1183.93 2097.18,1166.71 2099.14,1148.87 2101.09,1130.52 2103.04,1111.72 2104.99,1092.59 2106.94,1073.2 2108.89,1053.66 2110.84,1034.05 2112.8,1014.47 2114.75,995.01 2116.7,975.758 2118.65,956.805 2120.6,938.236 2122.55,920.135 2124.5,902.583 2126.46,885.657 2128.41,869.429 2130.36,853.967 2132.31,839.337 2134.26,825.598 2136.21,812.802 2138.16,801 2140.11,790.235 2142.07,780.543 2144.02,771.957 2145.97,764.503 2147.92,758.2 2149.87,753.062 2151.82,749.098 2153.77,746.31 2155.73,744.694 2157.68,744.24 2159.63,744.934 2161.58,746.757 2163.53,749.681 2165.48,753.678 2167.43,758.711 2169.39,764.743 2171.34,771.73 2173.29,779.624 2175.24,788.376 2177.19,797.931 2179.14,808.233 2181.09,819.225 2183.05,830.844 2185,843.03 2186.95,855.719 2188.9,868.847 2190.85,882.349 2192.8,896.16 2194.75,910.218 2196.7,924.457 2198.66,938.816 2200.61,953.233 2202.56,967.649 2204.51,982.007 2206.46,996.251 2208.41,1010.33 2210.36,1024.19 2212.32,1037.79 2214.27,1051.08 2216.22,1064.02 2218.17,1076.58 2220.12,1088.73 2222.07,1100.42 2224.02,1111.64 2225.98,1122.37 2227.93,1132.59 2229.88,1142.28 2231.83,1151.43 2233.78,1160.04 2235.73,1168.1 2237.68,1175.62 2239.63,1182.59 2241.59,1189.02 2243.54,1194.93 2245.49,1200.32 2247.44,1205.22 2249.39,1209.64 2251.34,1213.59 2253.29,1217.11 2255.25,1220.21 2257.2,1222.92 2259.15,1225.27 2261.1,1227.28 2263.05,1228.99 2265,1230.41 2266.95,1231.58 2268.91,1232.52 2270.86,1233.26 2272.81,1233.83 2274.76,1234.26 2276.71,1234.56 2278.66,1234.76 2280.61,1234.89 2282.57,1234.95 2284.52,1234.98 2286.47,1234.97 2288.42,1234.95 2290.37,1234.93 2292.32,1234.91 2294.27,1234.88 "></polyline>
<polyline clip-path="url(#clip182)" style="stroke:#3da44d; stroke-linecap:round; stroke-linejoin:round; stroke-width:4; stroke-opacity:1; fill:none" points="344.853,1068.01 346.805,1068.01 348.756,1068.01 350.707,1068.01 352.659,1068.01 354.61,1068.01 356.561,1068.01 358.513,1068.01 360.464,1068.01 362.415,1068.01 364.367,1068.01 366.318,1068.01 368.27,1068.01 370.221,1068.01 372.172,1068.01 374.124,1068.01 376.075,1068.01 378.026,1068.01 379.978,1068.01 381.929,1068.01 383.881,1068.01 385.832,1068.01 387.783,1068.01 389.735,1068.01 391.686,1068.01 393.637,1068.01 395.589,1068.01 397.54,1068.01 399.492,1068.01 401.443,1068.01 403.394,1068.01 405.346,1068.01 407.297,1068.01 409.248,1068.01 411.2,1068.01 413.151,1068.01 415.103,1068.01 417.054,1068.01 419.005,1068.01 420.957,1068.01 422.908,1068.01 424.859,1068.01 426.811,1068.01 428.762,1068.01 430.713,1068.01 432.665,1068.01 434.616,1068.01 436.568,1068.01 438.519,1068.01 440.47,1068.01 442.422,1068.01 444.373,1068.01 446.324,1068.01 448.276,1068.01 450.227,1068.01 452.179,1068.01 454.13,1068.01 456.081,1068.01 458.033,1068.01 459.984,1068.01 461.935,1068.01 463.887,1068.01 465.838,1068.01 467.79,1068.01 469.741,1068.01 471.692,1068.01 473.644,1068.01 475.595,1068.01 477.546,1068.01 479.498,1068.01 481.449,1068.01 483.401,1068.01 485.352,1068.01 487.303,1068.01 489.255,1068.01 491.206,1068.01 493.157,1068.01 495.109,1068.01 497.06,1068.01 499.011,1068.01 500.963,1068.01 502.914,1068.01 504.866,1068.01 506.817,1068.01 508.768,1068.01 510.72,1068.01 512.671,1068 514.622,1068 516.574,1068 518.525,1068 520.477,1068 522.428,1068 524.379,1068 526.331,1068 528.282,1068 530.233,1068 532.185,1068 534.136,1068 536.088,1068 538.039,1068 539.99,1068 541.942,1067.99 543.893,1067.99 545.844,1067.99 547.796,1067.99 549.747,1067.99 551.699,1067.99 553.65,1067.99 555.601,1067.99 557.553,1067.98 559.504,1067.98 561.455,1067.98 563.407,1067.98 565.358,1067.98 567.309,1067.98 569.261,1067.97 571.212,1067.97 573.164,1067.97 575.115,1067.97 577.066,1067.96 579.018,1067.96 580.969,1067.96 582.92,1067.96 584.872,1067.95 586.823,1067.95 588.775,1067.95 590.726,1067.94 592.677,1067.94 594.629,1067.93 596.58,1067.93 598.531,1067.92 600.483,1067.92 602.434,1067.91 604.386,1067.91 606.337,1067.9 608.288,1067.9 610.24,1067.89 612.191,1067.88 614.142,1067.88 616.094,1067.87 618.045,1067.86 619.997,1067.85 621.948,1067.84 623.899,1067.84 625.851,1067.83 627.802,1067.82 629.753,1067.8 631.705,1067.79 633.656,1067.78 635.608,1067.77 637.559,1067.76 639.51,1067.74 641.462,1067.73 643.413,1067.71 645.364,1067.69 647.316,1067.68 649.267,1067.66 651.218,1067.64 653.17,1067.62 655.121,1067.6 657.073,1067.57 659.024,1067.55 660.975,1067.52 662.927,1067.5 664.878,1067.47 666.829,1067.44 668.781,1067.4 670.732,1067.37 672.684,1067.34 674.635,1067.3 676.586,1067.26 678.538,1067.22 680.489,1067.17 682.44,1067.12 684.392,1067.07 686.343,1067.02 688.295,1066.97 690.246,1066.91 692.197,1066.84 694.149,1066.78 696.1,1066.71 698.051,1066.63 700.003,1066.55 701.954,1066.47 703.906,1066.38 705.857,1066.29 707.808,1066.19 709.76,1066.09 711.711,1065.98 713.662,1065.86 715.614,1065.74 717.565,1065.61 719.516,1065.47 721.468,1065.32 723.419,1065.17 725.371,1065 727.322,1064.83 729.273,1064.65 731.225,1064.45 733.176,1064.24 735.127,1064.03 737.079,1063.8 739.03,1063.55 740.982,1063.29 742.933,1063.02 744.884,1062.73 746.836,1062.43 748.787,1062.11 750.738,1061.77 752.69,1061.41 754.641,1061.03 756.593,1060.63 758.544,1060.2 760.495,1059.76 762.447,1059.29 764.398,1058.79 766.349,1058.27 768.301,1057.72 770.252,1057.15 772.204,1056.54 774.155,1055.9 776.106,1055.23 778.058,1054.53 780.009,1053.79 781.96,1053.02 783.912,1052.21 785.863,1051.37 787.814,1050.48 789.766,1049.56 791.717,1048.6 793.669,1047.59 795.62,1046.55 797.571,1045.46 799.523,1044.33 801.474,1043.16 803.425,1041.95 805.377,1040.69 807.328,1039.38 809.28,1038.04 811.231,1036.65 813.182,1035.21 815.134,1033.74 817.085,1032.22 819.036,1030.65 820.988,1029.05 822.939,1027.4 824.891,1025.72 826.842,1023.99 828.793,1022.23 830.745,1020.42 832.696,1018.58 834.647,1016.7 836.599,1014.79 838.55,1012.84 840.502,1010.86 842.453,1008.84 844.404,1006.79 846.356,1004.71 848.307,1002.6 850.258,1000.45 852.21,998.277 854.161,996.07 856.112,993.834 858.064,991.567 860.015,989.269 861.967,986.942 863.918,984.583 865.869,982.194 867.821,979.774 869.772,977.322 871.723,974.839 873.675,972.323 875.626,969.774 877.578,967.192 879.529,964.575 881.48,961.924 883.432,959.237 885.383,956.514 887.334,953.755 889.286,950.959 891.237,948.126 893.189,945.255 895.14,942.345 897.091,939.398 899.043,936.412 900.994,933.388 902.945,930.326 904.897,927.227 906.848,924.091 908.8,920.919 910.751,917.711 912.702,914.47 914.654,911.197 916.605,907.893 918.556,904.56 920.508,901.201 922.459,897.819 924.41,894.415 926.362,890.994 928.313,887.559 930.265,884.113 932.216,880.661 934.167,877.207 936.119,873.755 938.07,870.31 940.021,866.878 941.973,863.464 943.924,860.073 945.876,856.711 947.827,853.384 949.778,850.098 951.73,846.858 953.681,843.672 955.632,840.546 957.584,837.485 959.535,834.495 961.487,831.583 963.438,828.754 965.389,826.014 967.341,823.369 969.292,820.823 971.243,818.381 973.195,816.047 975.146,813.826 977.098,811.722 979.049,809.737 981,807.874 982.952,806.136 984.903,804.525 986.854,803.042 988.806,801.687 990.757,800.462 992.708,799.367 994.66,798.401 996.611,797.563 998.563,796.853 1000.51,796.268 1002.47,795.808 1004.42,795.469 1006.37,795.251 1008.32,795.149 1010.27,795.162 1012.22,795.287 1014.17,795.52 1016.12,795.858 1018.08,796.299 1020.03,796.84 1021.98,797.476 1023.93,798.206 1025.88,799.026 1027.83,799.933 1029.78,800.925 1031.74,801.998 1033.69,803.151 1035.64,804.38 1037.59,805.684 1039.54,807.061 1041.49,808.508 1043.44,810.024 1045.4,811.608 1047.35,813.258 1049.3,814.973 1051.25,816.751 1053.2,818.592 1055.15,820.495 1057.1,822.46 1059.06,824.485 1061.01,826.571 1062.96,828.717 1064.91,830.922 1066.86,833.186 1068.81,835.509 1070.76,837.891 1072.71,840.331 1074.67,842.828 1076.62,845.383 1078.57,847.995 1080.52,850.663 1082.47,853.386 1084.42,856.164 1086.37,858.995 1088.33,861.879 1090.28,864.812 1092.23,867.795 1094.18,870.825 1096.13,873.901 1098.08,877.019 1100.03,880.178 1101.99,883.375 1103.94,886.607 1105.89,889.871 1107.84,893.163 1109.79,896.482 1111.74,899.822 1113.69,903.181 1115.64,906.554 1117.6,909.939 1119.55,913.33 1121.5,916.724 1123.45,920.117 1125.4,923.505 1127.35,926.884 1129.3,930.251 1131.26,933.601 1133.21,936.93 1135.16,940.236 1137.11,943.514 1139.06,946.762 1141.01,949.975 1142.96,953.152 1144.92,956.289 1146.87,959.384 1148.82,962.434 1150.77,965.437 1152.72,968.392 1154.67,971.295 1156.62,974.147 1158.58,976.945 1160.53,979.688 1162.48,982.375 1164.43,985.006 1166.38,987.58 1168.33,990.096 1170.28,992.555 1172.23,994.956 1174.19,997.3 1176.14,999.586 1178.09,1001.81 1180.04,1003.99 1181.99,1006.1 1183.94,1008.16 1185.89,1010.17 1187.85,1012.12 1189.8,1014.02 1191.75,1015.87 1193.7,1017.67 1195.65,1019.42 1197.6,1021.12 1199.55,1022.77 1201.51,1024.38 1203.46,1025.94 1205.41,1027.46 1207.36,1028.93 1209.31,1030.37 1211.26,1031.76 1213.21,1033.12 1215.16,1034.43 1217.12,1035.72 1219.07,1036.96 1221.02,1038.18 1222.97,1039.36 1224.92,1040.51 1226.87,1041.62 1228.82,1042.71 1230.78,1043.77 1232.73,1044.8 1234.68,1045.81 1236.63,1046.79 1238.58,1047.74 1240.53,1048.67 1242.48,1049.58 1244.44,1050.46 1246.39,1051.32 1248.34,1052.16 1250.29,1052.98 1252.24,1053.77 1254.19,1054.54 1256.14,1055.29 1258.1,1056.01 1260.05,1056.71 1262,1057.39 1263.95,1058.03 1265.9,1058.66 1267.85,1059.25 1269.8,1059.81 1271.75,1060.34 1273.71,1060.82 1275.66,1061.27 1277.61,1061.66 1279.56,1062.01 1281.51,1062.29 1283.46,1062.51 1285.41,1062.64 1287.37,1062.69 1289.32,1062.63 1291.27,1062.46 1293.22,1062.14 1295.17,1061.67 1297.12,1061.02 1299.07,1060.15 1301.03,1059.03 1302.98,1057.62 1304.93,1055.88 1306.88,1053.75 1308.83,1051.16 1310.78,1048.05 1312.73,1044.31 1314.68,1039.87 1316.64,1034.6 1318.59,1028.36 1320.54,1021.02 1322.49,1012.41 1324.44,1002.33 1326.39,990.59 1328.34,976.966 1330.3,961.225 1332.25,943.131 1334.2,922.452 1336.15,898.973 1338.1,872.518 1340.05,842.966 1342,810.274 1343.96,774.504 1345.91,735.842 1347.86,694.611 1349.81,651.271 1351.76,606.419 1353.71,560.754 1355.66,515.047 1357.61,470.092 1359.57,426.659 1361.52,385.452 1363.47,347.076 1365.42,312.02 1367.37,280.654 1369.32,253.237 1371.27,229.941 1373.23,210.873 1375.18,196.096 1377.13,185.658 1379.08,179.599 1381.03,177.967 1382.98,180.818 1384.93,188.206 1386.89,200.178 1388.84,216.753 1390.79,237.903 1392.74,263.531 1394.69,293.451 1396.64,327.376 1398.59,364.902 1400.55,405.514 1402.5,448.594 1404.45,493.443 1406.4,539.307 1408.35,585.416 1410.3,631.019 1412.25,675.42 1414.2,718.008 1416.16,758.282 1418.11,795.859 1420.06,830.479 1422.01,862.004 1423.96,890.397 1425.91,915.714 1427.86,938.081 1429.82,957.677 1431.77,974.716 1433.72,989.43 1435.67,1002.06 1437.62,1012.84 1439.57,1021.99 1441.52,1029.74 1443.48,1036.26 1445.43,1041.73 1447.38,1046.32 1449.33,1050.14 1451.28,1053.33 1453.23,1055.98 1455.18,1058.17 1457.13,1059.99 1459.09,1061.49 1461.04,1062.73 1462.99,1063.75 1464.94,1064.58 1466.89,1065.27 1468.84,1065.83 1470.79,1066.29 1472.75,1066.67 1474.7,1066.97 1476.65,1067.22 1478.6,1067.42 1480.55,1067.58 1482.5,1067.71 1484.45,1067.81 1486.41,1067.89 1488.36,1067.95 1490.31,1068 1492.26,1068.04 1494.21,1068.07 1496.16,1068.09 1498.11,1068.1 1500.07,1068.11 1502.02,1068.12 1503.97,1068.12 1505.92,1068.12 1507.87,1068.12 1509.82,1068.11 1511.77,1068.11 1513.72,1068.11 1515.68,1068.1 1517.63,1068.1 1519.58,1068.09 1521.53,1068.08 1523.48,1068.08 1525.43,1068.07 1527.38,1068.07 1529.34,1068.06 1531.29,1068.06 1533.24,1068.05 1535.19,1068.05 1537.14,1068.04 1539.09,1068.04 1541.04,1068.04 1543,1068.03 1544.95,1068.03 1546.9,1068.03 1548.85,1068.02 1550.8,1068.02 1552.75,1068.02 1554.7,1068.02 1556.65,1068.02 1558.61,1068.01 1560.56,1068.01 1562.51,1068.01 1564.46,1068.01 1566.41,1068.01 1568.36,1068.01 1570.31,1068.01 1572.27,1068.01 1574.22,1068.01 1576.17,1068 1578.12,1068 1580.07,1068 1582.02,1068 1583.97,1068 1585.93,1068 1587.88,1068 1589.83,1068 1591.78,1068 1593.73,1068 1595.68,1068 1597.63,1068 1599.59,1068 1601.54,1068 1603.49,1068 1605.44,1068 1607.39,1068 1609.34,1068 1611.29,1068 1613.24,1068 1615.2,1068 1617.15,1068 1619.1,1068 1621.05,1068 1623,1068 1624.95,1068 1626.9,1068 1628.86,1068 1630.81,1068 1632.76,1068 1634.71,1068 1636.66,1068 1638.61,1068 1640.56,1068 1642.52,1068 1644.47,1068 1646.42,1068 1648.37,1068 1650.32,1068 1652.27,1068 1654.22,1068 1656.17,1068 1658.13,1068 1660.08,1068 1662.03,1068 1663.98,1068 1665.93,1068 1667.88,1068 1669.83,1068 1671.79,1068 1673.74,1068 1675.69,1068 1677.64,1068 1679.59,1068 1681.54,1068 1683.49,1068 1685.45,1068 1687.4,1068 1689.35,1068 1691.3,1068 1693.25,1068 1695.2,1068 1697.15,1068 1699.1,1068 1701.06,1068 1703.01,1068 1704.96,1068 1706.91,1068 1708.86,1068 1710.81,1068 1712.76,1068 1714.72,1068 1716.67,1068 1718.62,1068 1720.57,1068 1722.52,1068 1724.47,1068 1726.42,1068 1728.38,1068 1730.33,1068 1732.28,1068 1734.23,1068 1736.18,1068 1738.13,1068 1740.08,1068 1742.04,1068 1743.99,1068 1745.94,1068 1747.89,1068 1749.84,1068 1751.79,1068 1753.74,1068 1755.69,1068 1757.65,1068 1759.6,1068 1761.55,1068 1763.5,1068 1765.45,1068 1767.4,1068 1769.35,1068.01 1771.31,1068.01 1773.26,1068.01 1775.21,1068.01 1777.16,1068.01 1779.11,1068.01 1781.06,1068.01 1783.01,1068.01 1784.97,1068.01 1786.92,1068.01 1788.87,1068.01 1790.82,1068.01 1792.77,1068.01 1794.72,1068.01 1796.67,1068.01 1798.62,1068.01 1800.58,1068.01 1802.53,1068.01 1804.48,1068.01 1806.43,1068.01 1808.38,1068.01 1810.33,1068.01 1812.28,1068.01 1814.24,1068.01 1816.19,1068.01 1818.14,1068.01 1820.09,1068.01 1822.04,1068.01 1823.99,1068.01 1825.94,1068.01 1827.9,1068.01 1829.85,1068.01 1831.8,1068.01 1833.75,1068.01 1835.7,1068.01 1837.65,1068.01 1839.6,1068.01 1841.56,1068.01 1843.51,1068.01 1845.46,1068.01 1847.41,1068.01 1849.36,1068.01 1851.31,1068.01 1853.26,1068.01 1855.21,1068.01 1857.17,1068.01 1859.12,1068.01 1861.07,1068.01 1863.02,1068.01 1864.97,1068.01 1866.92,1068.01 1868.87,1068.01 1870.83,1068.01 1872.78,1068 1874.73,1068 1876.68,1068 1878.63,1068 1880.58,1068 1882.53,1068 1884.49,1068 1886.44,1068 1888.39,1068 1890.34,1068 1892.29,1068 1894.24,1068 1896.19,1068 1898.14,1068 1900.1,1068 1902.05,1068 1904,1068 1905.95,1068 1907.9,1068 1909.85,1068 1911.8,1068 1913.76,1068 1915.71,1068 1917.66,1068 1919.61,1068 1921.56,1068 1923.51,1068 1925.46,1068 1927.42,1068 1929.37,1068 1931.32,1068 1933.27,1068 1935.22,1068 1937.17,1068 1939.12,1068 1941.08,1068 1943.03,1068 1944.98,1068 1946.93,1068 1948.88,1068 1950.83,1068 1952.78,1068 1954.73,1068 1956.69,1068 1958.64,1068 1960.59,1068 1962.54,1068 1964.49,1068 1966.44,1068 1968.39,1068 1970.35,1068 1972.3,1068 1974.25,1068 1976.2,1068 1978.15,1068 1980.1,1068 1982.05,1068 1984.01,1068 1985.96,1068 1987.91,1068 1989.86,1068 1991.81,1068 1993.76,1068 1995.71,1068 1997.66,1068 1999.62,1068 2001.57,1068 2003.52,1068 2005.47,1068 2007.42,1068 2009.37,1068 2011.32,1068 2013.28,1068 2015.23,1068 2017.18,1068 2019.13,1068 2021.08,1068 2023.03,1068 2024.98,1068 2026.94,1068 2028.89,1068 2030.84,1068 2032.79,1068 2034.74,1068 2036.69,1068 2038.64,1068 2040.6,1068 2042.55,1068 2044.5,1068 2046.45,1068 2048.4,1068 2050.35,1068 2052.3,1068 2054.25,1068 2056.21,1068 2058.16,1068 2060.11,1068 2062.06,1068 2064.01,1068 2065.96,1068 2067.91,1068 2069.87,1068 2071.82,1068 2073.77,1068 2075.72,1068 2077.67,1068 2079.62,1068 2081.57,1068 2083.53,1068 2085.48,1068 2087.43,1068 2089.38,1068 2091.33,1068 2093.28,1068 2095.23,1068 2097.18,1068 2099.14,1068 2101.09,1068 2103.04,1068 2104.99,1068 2106.94,1068 2108.89,1068 2110.84,1068 2112.8,1068 2114.75,1068 2116.7,1068 2118.65,1068 2120.6,1068 2122.55,1068 2124.5,1068 2126.46,1068 2128.41,1068 2130.36,1068 2132.31,1068 2134.26,1068 2136.21,1068 2138.16,1068 2140.11,1068 2142.07,1068 2144.02,1068 2145.97,1068 2147.92,1068 2149.87,1068 2151.82,1068 2153.77,1068 2155.73,1068 2157.68,1068 2159.63,1068 2161.58,1068 2163.53,1068 2165.48,1068 2167.43,1068 2169.39,1068 2171.34,1068 2173.29,1068 2175.24,1068 2177.19,1068 2179.14,1068 2181.09,1068 2183.05,1068 2185,1068 2186.95,1068 2188.9,1068 2190.85,1068 2192.8,1068 2194.75,1068 2196.7,1068 2198.66,1068 2200.61,1068 2202.56,1068 2204.51,1068 2206.46,1068 2208.41,1068 2210.36,1068 2212.32,1068 2214.27,1068 2216.22,1068 2218.17,1068 2220.12,1068 2222.07,1068 2224.02,1068 2225.98,1068 2227.93,1068 2229.88,1068 2231.83,1068 2233.78,1068 2235.73,1068 2237.68,1068 2239.63,1068 2241.59,1068 2243.54,1068 2245.49,1068 2247.44,1068 2249.39,1068 2251.34,1068 2253.29,1068 2255.25,1068 2257.2,1068 2259.15,1068 2261.1,1068 2263.05,1068 2265,1068 2266.95,1068 2268.91,1068 2270.86,1068 2272.81,1068 2274.76,1068 2276.71,1068 2278.66,1068 2280.61,1068 2282.57,1068 2284.52,1068 2286.47,1068 2288.42,1068 2290.37,1068 2292.32,1068 2294.27,1068 "></polyline>
<path clip-path="url(#clip180)" d="M1618.37 374.156 L2283.88 374.156 L2283.88 166.796 L1618.37 166.796  Z" fill="#ffffff" fill-rule="evenodd" fill-opacity="1"></path>
<polyline clip-path="url(#clip180)" style="stroke:#000000; stroke-linecap:round; stroke-linejoin:round; stroke-width:4; stroke-opacity:1; fill:none" points="1618.37,374.156 2283.88,374.156 2283.88,166.796 1618.37,166.796 1618.37,374.156 "></polyline>
<polyline clip-path="url(#clip180)" style="stroke:#009af9; stroke-linecap:round; stroke-linejoin:round; stroke-width:4; stroke-opacity:1; fill:none" points="1641.33,218.636 1779.09,218.636 "></polyline>
<path clip-path="url(#clip180)" d="M1813.95 212.976 Q1810.53 212.976 1808.53 215.661 Q1806.54 218.323 1806.54 222.976 Q1806.54 227.629 1808.51 230.314 Q1810.5 232.976 1813.95 232.976 Q1817.35 232.976 1819.34 230.291 Q1821.34 227.606 1821.34 222.976 Q1821.34 218.37 1819.34 215.684 Q1817.35 212.976 1813.95 212.976 M1813.95 209.365 Q1819.51 209.365 1822.68 212.976 Q1825.85 216.587 1825.85 222.976 Q1825.85 229.342 1822.68 232.976 Q1819.51 236.587 1813.95 236.587 Q1808.37 236.587 1805.2 232.976 Q1802.05 229.342 1802.05 222.976 Q1802.05 216.587 1805.2 212.976 Q1808.37 209.365 1813.95 209.365 Z" fill="#000000" fill-rule="nonzero" fill-opacity="1"></path><path clip-path="url(#clip180)" d="M1847.93 213.971 Q1847.22 213.555 1846.36 213.37 Q1845.53 213.161 1844.51 213.161 Q1840.9 213.161 1838.95 215.522 Q1837.03 217.86 1837.03 222.258 L1837.03 235.916 L1832.75 235.916 L1832.75 209.99 L1837.03 209.99 L1837.03 214.018 Q1838.37 211.657 1840.53 210.522 Q1842.68 209.365 1845.76 209.365 Q1846.2 209.365 1846.73 209.434 Q1847.26 209.481 1847.91 209.596 L1847.93 213.971 Z" fill="#000000" fill-rule="nonzero" fill-opacity="1"></path><path clip-path="url(#clip180)" d="M1852.4 209.99 L1856.66 209.99 L1856.66 235.916 L1852.4 235.916 L1852.4 209.99 M1852.4 199.897 L1856.66 199.897 L1856.66 205.291 L1852.4 205.291 L1852.4 199.897 Z" fill="#000000" fill-rule="nonzero" fill-opacity="1"></path><path clip-path="url(#clip180)" d="M1882.63 222.652 Q1882.63 218.022 1880.71 215.476 Q1878.81 212.93 1875.36 212.93 Q1871.94 212.93 1870.02 215.476 Q1868.12 218.022 1868.12 222.652 Q1868.12 227.258 1870.02 229.805 Q1871.94 232.351 1875.36 232.351 Q1878.81 232.351 1880.71 229.805 Q1882.63 227.258 1882.63 222.652 M1886.89 232.698 Q1886.89 239.318 1883.95 242.536 Q1881.01 245.777 1874.95 245.777 Q1872.7 245.777 1870.71 245.43 Q1868.72 245.105 1866.84 244.411 L1866.84 240.268 Q1868.72 241.286 1870.55 241.772 Q1872.38 242.258 1874.28 242.258 Q1878.46 242.258 1880.55 240.059 Q1882.63 237.883 1882.63 233.462 L1882.63 231.356 Q1881.31 233.647 1879.25 234.781 Q1877.19 235.916 1874.32 235.916 Q1869.55 235.916 1866.64 232.281 Q1863.72 228.647 1863.72 222.652 Q1863.72 216.633 1866.64 212.999 Q1869.55 209.365 1874.32 209.365 Q1877.19 209.365 1879.25 210.499 Q1881.31 211.633 1882.63 213.925 L1882.63 209.99 L1886.89 209.99 L1886.89 232.698 Z" fill="#000000" fill-rule="nonzero" fill-opacity="1"></path><path clip-path="url(#clip180)" d="M1895.66 209.99 L1899.92 209.99 L1899.92 235.916 L1895.66 235.916 L1895.66 209.99 M1895.66 199.897 L1899.92 199.897 L1899.92 205.291 L1895.66 205.291 L1895.66 199.897 Z" fill="#000000" fill-rule="nonzero" fill-opacity="1"></path><path clip-path="url(#clip180)" d="M1930.39 220.268 L1930.39 235.916 L1926.13 235.916 L1926.13 220.407 Q1926.13 216.726 1924.69 214.897 Q1923.26 213.069 1920.39 213.069 Q1916.94 213.069 1914.95 215.268 Q1912.96 217.467 1912.96 221.263 L1912.96 235.916 L1908.67 235.916 L1908.67 209.99 L1912.96 209.99 L1912.96 214.018 Q1914.48 211.68 1916.54 210.522 Q1918.63 209.365 1921.34 209.365 Q1925.8 209.365 1928.09 212.143 Q1930.39 214.897 1930.39 220.268 Z" fill="#000000" fill-rule="nonzero" fill-opacity="1"></path><path clip-path="url(#clip180)" d="M1950.66 222.883 Q1945.5 222.883 1943.51 224.064 Q1941.52 225.244 1941.52 228.092 Q1941.52 230.36 1943 231.703 Q1944.51 233.022 1947.08 233.022 Q1950.62 233.022 1952.75 230.522 Q1954.9 227.999 1954.9 223.832 L1954.9 222.883 L1950.66 222.883 M1959.16 221.124 L1959.16 235.916 L1954.9 235.916 L1954.9 231.981 Q1953.44 234.342 1951.27 235.476 Q1949.09 236.587 1945.94 236.587 Q1941.96 236.587 1939.6 234.365 Q1937.26 232.119 1937.26 228.369 Q1937.26 223.994 1940.18 221.772 Q1943.12 219.55 1948.93 219.55 L1954.9 219.55 L1954.9 219.133 Q1954.9 216.194 1952.96 214.596 Q1951.03 212.976 1947.54 212.976 Q1945.32 212.976 1943.21 213.508 Q1941.1 214.041 1939.16 215.106 L1939.16 211.17 Q1941.5 210.268 1943.7 209.828 Q1945.9 209.365 1947.98 209.365 Q1953.6 209.365 1956.38 212.282 Q1959.16 215.198 1959.16 221.124 Z" fill="#000000" fill-rule="nonzero" fill-opacity="1"></path><path clip-path="url(#clip180)" d="M1967.93 199.897 L1972.19 199.897 L1972.19 235.916 L1967.93 235.916 L1967.93 199.897 Z" fill="#000000" fill-rule="nonzero" fill-opacity="1"></path><path clip-path="url(#clip180)" d="M2007.91 205.962 L2001.57 223.161 L2014.27 223.161 L2007.91 205.962 M2005.27 201.356 L2010.57 201.356 L2023.74 235.916 L2018.88 235.916 L2015.73 227.05 L2000.15 227.05 L1997.01 235.916 L1992.08 235.916 L2005.27 201.356 Z" fill="#000000" fill-rule="nonzero" fill-opacity="1"></path><path clip-path="url(#clip180)" d="M2038.83 199.944 Q2035.73 205.268 2034.23 210.476 Q2032.72 215.684 2032.72 221.032 Q2032.72 226.379 2034.23 231.633 Q2035.76 236.865 2038.83 242.166 L2035.13 242.166 Q2031.66 236.726 2029.92 231.471 Q2028.21 226.217 2028.21 221.032 Q2028.21 215.87 2029.92 210.638 Q2031.64 205.407 2035.13 199.944 L2038.83 199.944 Z" fill="#000000" fill-rule="nonzero" fill-opacity="1"></path><path clip-path="url(#clip180)" d="M2055.36 236.587 Q2045.76 236.587 2045.76 222.837 Q2045.76 217.397 2049.34 209.99 L2053.93 209.99 Q2050.62 217.397 2050.62 222.953 Q2050.62 232.976 2055.76 232.976 Q2060.45 232.976 2060.45 220.522 L2064.39 220.522 Q2064.39 232.976 2069.09 232.976 Q2074.23 232.976 2074.23 222.953 Q2074.23 217.397 2070.92 209.99 L2075.5 209.99 Q2079.09 217.397 2079.09 222.837 Q2079.09 236.587 2069.48 236.587 Q2063.19 236.587 2062.42 229.666 Q2061.47 236.587 2055.36 236.587 Z" fill="#000000" fill-rule="nonzero" fill-opacity="1"></path><path clip-path="url(#clip180)" d="M2086.13 199.944 L2089.83 199.944 Q2093.3 205.407 2095.01 210.638 Q2096.75 215.87 2096.75 221.032 Q2096.75 226.217 2095.01 231.471 Q2093.3 236.726 2089.83 242.166 L2086.13 242.166 Q2089.2 236.865 2090.71 231.633 Q2092.24 226.379 2092.24 221.032 Q2092.24 215.684 2090.71 210.476 Q2089.2 205.268 2086.13 199.944 Z" fill="#000000" fill-rule="nonzero" fill-opacity="1"></path><polyline clip-path="url(#clip180)" style="stroke:#e26f46; stroke-linecap:round; stroke-linejoin:round; stroke-width:4; stroke-opacity:1; fill:none" points="1641.33,270.476 1779.09,270.476 "></polyline>
<path clip-path="url(#clip180)" d="M1829.92 255.858 L1829.92 260.788 Q1827.56 258.589 1824.88 257.501 Q1822.22 256.413 1819.21 256.413 Q1813.28 256.413 1810.13 260.048 Q1806.98 263.659 1806.98 270.51 Q1806.98 277.339 1810.13 280.973 Q1813.28 284.584 1819.21 284.584 Q1822.22 284.584 1824.88 283.496 Q1827.56 282.409 1829.92 280.209 L1829.92 285.094 Q1827.47 286.76 1824.72 287.594 Q1821.98 288.427 1818.93 288.427 Q1811.08 288.427 1806.57 283.635 Q1802.05 278.821 1802.05 270.51 Q1802.05 262.177 1806.57 257.386 Q1811.08 252.571 1818.93 252.571 Q1822.03 252.571 1824.76 253.404 Q1827.52 254.214 1829.92 255.858 Z" fill="#000000" fill-rule="nonzero" fill-opacity="1"></path><path clip-path="url(#clip180)" d="M1847.01 264.816 Q1843.58 264.816 1841.59 267.501 Q1839.6 270.163 1839.6 274.816 Q1839.6 279.469 1841.57 282.154 Q1843.56 284.816 1847.01 284.816 Q1850.41 284.816 1852.4 282.131 Q1854.39 279.446 1854.39 274.816 Q1854.39 270.21 1852.4 267.524 Q1850.41 264.816 1847.01 264.816 M1847.01 261.205 Q1852.56 261.205 1855.73 264.816 Q1858.9 268.427 1858.9 274.816 Q1858.9 281.182 1855.73 284.816 Q1852.56 288.427 1847.01 288.427 Q1841.43 288.427 1838.26 284.816 Q1835.11 281.182 1835.11 274.816 Q1835.11 268.427 1838.26 264.816 Q1841.43 261.205 1847.01 261.205 Z" fill="#000000" fill-rule="nonzero" fill-opacity="1"></path><path clip-path="url(#clip180)" d="M1887.52 272.108 L1887.52 287.756 L1883.26 287.756 L1883.26 272.247 Q1883.26 268.566 1881.82 266.737 Q1880.39 264.909 1877.52 264.909 Q1874.07 264.909 1872.08 267.108 Q1870.09 269.307 1870.09 273.103 L1870.09 287.756 L1865.8 287.756 L1865.8 261.83 L1870.09 261.83 L1870.09 265.858 Q1871.61 263.52 1873.67 262.362 Q1875.76 261.205 1878.46 261.205 Q1882.93 261.205 1885.22 263.983 Q1887.52 266.737 1887.52 272.108 Z" fill="#000000" fill-rule="nonzero" fill-opacity="1"></path><path clip-path="url(#clip180)" d="M1900.13 283.867 L1900.13 297.617 L1895.85 297.617 L1895.85 261.83 L1900.13 261.83 L1900.13 265.765 Q1901.47 263.45 1903.51 262.339 Q1905.57 261.205 1908.42 261.205 Q1913.14 261.205 1916.08 264.955 Q1919.04 268.705 1919.04 274.816 Q1919.04 280.927 1916.08 284.677 Q1913.14 288.427 1908.42 288.427 Q1905.57 288.427 1903.51 287.316 Q1901.47 286.182 1900.13 283.867 M1914.62 274.816 Q1914.62 270.117 1912.68 267.455 Q1910.76 264.77 1907.38 264.77 Q1904 264.77 1902.05 267.455 Q1900.13 270.117 1900.13 274.816 Q1900.13 279.515 1902.05 282.2 Q1904 284.862 1907.38 284.862 Q1910.76 284.862 1912.68 282.2 Q1914.62 279.515 1914.62 274.816 Z" fill="#000000" fill-rule="nonzero" fill-opacity="1"></path><path clip-path="url(#clip180)" d="M1941.13 265.811 Q1940.41 265.395 1939.55 265.21 Q1938.72 265.001 1937.7 265.001 Q1934.09 265.001 1932.15 267.362 Q1930.22 269.7 1930.22 274.098 L1930.22 287.756 L1925.94 287.756 L1925.94 261.83 L1930.22 261.83 L1930.22 265.858 Q1931.57 263.497 1933.72 262.362 Q1935.87 261.205 1938.95 261.205 Q1939.39 261.205 1939.92 261.274 Q1940.46 261.321 1941.1 261.436 L1941.13 265.811 Z" fill="#000000" fill-rule="nonzero" fill-opacity="1"></path><path clip-path="url(#clip180)" d="M1966.73 273.728 L1966.73 275.811 L1947.15 275.811 Q1947.42 280.209 1949.78 282.524 Q1952.17 284.816 1956.4 284.816 Q1958.86 284.816 1961.15 284.214 Q1963.46 283.612 1965.73 282.409 L1965.73 286.436 Q1963.44 287.408 1961.03 287.918 Q1958.63 288.427 1956.15 288.427 Q1949.95 288.427 1946.31 284.816 Q1942.7 281.205 1942.7 275.047 Q1942.7 268.682 1946.13 264.955 Q1949.58 261.205 1955.41 261.205 Q1960.64 261.205 1963.67 264.585 Q1966.73 267.941 1966.73 273.728 M1962.47 272.478 Q1962.42 268.983 1960.5 266.899 Q1958.6 264.816 1955.46 264.816 Q1951.89 264.816 1949.74 266.83 Q1947.61 268.844 1947.28 272.501 L1962.47 272.478 Z" fill="#000000" fill-rule="nonzero" fill-opacity="1"></path><path clip-path="url(#clip180)" d="M1990.25 262.594 L1990.25 266.622 Q1988.44 265.696 1986.5 265.233 Q1984.55 264.77 1982.47 264.77 Q1979.3 264.77 1977.7 265.742 Q1976.13 266.714 1976.13 268.659 Q1976.13 270.14 1977.26 270.997 Q1978.39 271.83 1981.82 272.594 L1983.28 272.918 Q1987.82 273.89 1989.71 275.672 Q1991.64 277.432 1991.64 280.603 Q1991.64 284.214 1988.77 286.321 Q1985.92 288.427 1980.92 288.427 Q1978.83 288.427 1976.57 288.01 Q1974.32 287.617 1971.82 286.807 L1971.82 282.409 Q1974.18 283.635 1976.47 284.26 Q1978.77 284.862 1981.01 284.862 Q1984.02 284.862 1985.64 283.844 Q1987.26 282.802 1987.26 280.927 Q1987.26 279.191 1986.08 278.265 Q1984.92 277.339 1980.96 276.483 L1979.48 276.135 Q1975.52 275.302 1973.77 273.589 Q1972.01 271.853 1972.01 268.844 Q1972.01 265.186 1974.6 263.196 Q1977.19 261.205 1981.96 261.205 Q1984.32 261.205 1986.4 261.552 Q1988.49 261.899 1990.25 262.594 Z" fill="#000000" fill-rule="nonzero" fill-opacity="1"></path><path clip-path="url(#clip180)" d="M2014.95 262.594 L2014.95 266.622 Q2013.14 265.696 2011.2 265.233 Q2009.25 264.77 2007.17 264.77 Q2004 264.77 2002.4 265.742 Q2000.83 266.714 2000.83 268.659 Q2000.83 270.14 2001.96 270.997 Q2003.09 271.83 2006.52 272.594 L2007.98 272.918 Q2012.52 273.89 2014.41 275.672 Q2016.33 277.432 2016.33 280.603 Q2016.33 284.214 2013.46 286.321 Q2010.62 288.427 2005.62 288.427 Q2003.53 288.427 2001.27 288.01 Q1999.02 287.617 1996.52 286.807 L1996.52 282.409 Q1998.88 283.635 2001.17 284.26 Q2003.46 284.862 2005.71 284.862 Q2008.72 284.862 2010.34 283.844 Q2011.96 282.802 2011.96 280.927 Q2011.96 279.191 2010.78 278.265 Q2009.62 277.339 2005.66 276.483 L2004.18 276.135 Q2000.22 275.302 1998.46 273.589 Q1996.71 271.853 1996.71 268.844 Q1996.71 265.186 1999.3 263.196 Q2001.89 261.205 2006.66 261.205 Q2009.02 261.205 2011.1 261.552 Q2013.19 261.899 2014.95 262.594 Z" fill="#000000" fill-rule="nonzero" fill-opacity="1"></path><path clip-path="url(#clip180)" d="M2045.29 273.728 L2045.29 275.811 L2025.71 275.811 Q2025.99 280.209 2028.35 282.524 Q2030.73 284.816 2034.97 284.816 Q2037.42 284.816 2039.71 284.214 Q2042.03 283.612 2044.3 282.409 L2044.3 286.436 Q2042.01 287.408 2039.6 287.918 Q2037.19 288.427 2034.71 288.427 Q2028.51 288.427 2024.88 284.816 Q2021.27 281.205 2021.27 275.047 Q2021.27 268.682 2024.69 264.955 Q2028.14 261.205 2033.97 261.205 Q2039.2 261.205 2042.24 264.585 Q2045.29 267.941 2045.29 273.728 M2041.03 272.478 Q2040.99 268.983 2039.07 266.899 Q2037.17 264.816 2034.02 264.816 Q2030.45 264.816 2028.3 266.83 Q2026.17 268.844 2025.85 272.501 L2041.03 272.478 Z" fill="#000000" fill-rule="nonzero" fill-opacity="1"></path><path clip-path="url(#clip180)" d="M2069.34 265.765 L2069.34 251.737 L2073.6 251.737 L2073.6 287.756 L2069.34 287.756 L2069.34 283.867 Q2068 286.182 2065.94 287.316 Q2063.9 288.427 2061.03 288.427 Q2056.33 288.427 2053.37 284.677 Q2050.43 280.927 2050.43 274.816 Q2050.43 268.705 2053.37 264.955 Q2056.33 261.205 2061.03 261.205 Q2063.9 261.205 2065.94 262.339 Q2068 263.45 2069.34 265.765 M2054.83 274.816 Q2054.83 279.515 2056.75 282.2 Q2058.7 284.862 2062.08 284.862 Q2065.45 284.862 2067.4 282.2 Q2069.34 279.515 2069.34 274.816 Q2069.34 270.117 2067.4 267.455 Q2065.45 264.77 2062.08 264.77 Q2058.7 264.77 2056.75 267.455 Q2054.83 270.117 2054.83 274.816 Z" fill="#000000" fill-rule="nonzero" fill-opacity="1"></path><path clip-path="url(#clip180)" d="M2103.28 254.33 L2103.28 258.89 Q2100.62 257.617 2098.26 256.992 Q2095.89 256.367 2093.7 256.367 Q2089.88 256.367 2087.79 257.848 Q2085.73 259.33 2085.73 262.061 Q2085.73 264.353 2087.1 265.534 Q2088.49 266.691 2092.33 267.409 L2095.15 267.987 Q2100.39 268.983 2102.86 271.506 Q2105.36 274.006 2105.36 278.219 Q2105.36 283.242 2101.98 285.834 Q2098.63 288.427 2092.12 288.427 Q2089.67 288.427 2086.89 287.871 Q2084.14 287.316 2081.17 286.228 L2081.17 281.413 Q2084.02 283.01 2086.75 283.821 Q2089.48 284.631 2092.12 284.631 Q2096.13 284.631 2098.3 283.057 Q2100.48 281.483 2100.48 278.566 Q2100.48 276.02 2098.9 274.584 Q2097.35 273.149 2093.79 272.432 L2090.94 271.876 Q2085.71 270.835 2083.37 268.612 Q2081.03 266.39 2081.03 262.432 Q2081.03 257.848 2084.25 255.21 Q2087.49 252.571 2093.16 252.571 Q2095.59 252.571 2098.12 253.011 Q2100.64 253.45 2103.28 254.33 Z" fill="#000000" fill-rule="nonzero" fill-opacity="1"></path><path clip-path="url(#clip180)" d="M2134.64 273.728 L2134.64 275.811 L2115.06 275.811 Q2115.34 280.209 2117.7 282.524 Q2120.08 284.816 2124.32 284.816 Q2126.77 284.816 2129.07 284.214 Q2131.38 283.612 2133.65 282.409 L2133.65 286.436 Q2131.36 287.408 2128.95 287.918 Q2126.54 288.427 2124.07 288.427 Q2117.86 288.427 2114.23 284.816 Q2110.62 281.205 2110.62 275.047 Q2110.62 268.682 2114.04 264.955 Q2117.49 261.205 2123.32 261.205 Q2128.56 261.205 2131.59 264.585 Q2134.64 267.941 2134.64 273.728 M2130.38 272.478 Q2130.34 268.983 2128.42 266.899 Q2126.52 264.816 2123.37 264.816 Q2119.81 264.816 2117.65 266.83 Q2115.52 268.844 2115.2 272.501 L2130.38 272.478 Z" fill="#000000" fill-rule="nonzero" fill-opacity="1"></path><path clip-path="url(#clip180)" d="M2163.19 272.108 L2163.19 287.756 L2158.93 287.756 L2158.93 272.247 Q2158.93 268.566 2157.49 266.737 Q2156.06 264.909 2153.19 264.909 Q2149.74 264.909 2147.75 267.108 Q2145.76 269.307 2145.76 273.103 L2145.76 287.756 L2141.47 287.756 L2141.47 261.83 L2145.76 261.83 L2145.76 265.858 Q2147.28 263.52 2149.34 262.362 Q2151.43 261.205 2154.13 261.205 Q2158.6 261.205 2160.89 263.983 Q2163.19 266.737 2163.19 272.108 Z" fill="#000000" fill-rule="nonzero" fill-opacity="1"></path><path clip-path="url(#clip180)" d="M2188.21 262.594 L2188.21 266.622 Q2186.4 265.696 2184.46 265.233 Q2182.51 264.77 2180.43 264.77 Q2177.26 264.77 2175.66 265.742 Q2174.09 266.714 2174.09 268.659 Q2174.09 270.14 2175.22 270.997 Q2176.36 271.83 2179.78 272.594 L2181.24 272.918 Q2185.78 273.89 2187.68 275.672 Q2189.6 277.432 2189.6 280.603 Q2189.6 284.214 2186.73 286.321 Q2183.88 288.427 2178.88 288.427 Q2176.8 288.427 2174.53 288.01 Q2172.28 287.617 2169.78 286.807 L2169.78 282.409 Q2172.14 283.635 2174.44 284.26 Q2176.73 284.862 2178.97 284.862 Q2181.98 284.862 2183.6 283.844 Q2185.22 282.802 2185.22 280.927 Q2185.22 279.191 2184.04 278.265 Q2182.88 277.339 2178.93 276.483 L2177.44 276.135 Q2173.49 275.302 2171.73 273.589 Q2169.97 271.853 2169.97 268.844 Q2169.97 265.186 2172.56 263.196 Q2175.15 261.205 2179.92 261.205 Q2182.28 261.205 2184.37 261.552 Q2186.45 261.899 2188.21 262.594 Z" fill="#000000" fill-rule="nonzero" fill-opacity="1"></path><path clip-path="url(#clip180)" d="M2196.38 261.83 L2200.64 261.83 L2200.64 287.756 L2196.38 287.756 L2196.38 261.83 M2196.38 251.737 L2200.64 251.737 L2200.64 257.131 L2196.38 257.131 L2196.38 251.737 Z" fill="#000000" fill-rule="nonzero" fill-opacity="1"></path><path clip-path="url(#clip180)" d="M2231.1 272.108 L2231.1 287.756 L2226.84 287.756 L2226.84 272.247 Q2226.84 268.566 2225.41 266.737 Q2223.97 264.909 2221.1 264.909 Q2217.65 264.909 2215.66 267.108 Q2213.67 269.307 2213.67 273.103 L2213.67 287.756 L2209.39 287.756 L2209.39 261.83 L2213.67 261.83 L2213.67 265.858 Q2215.2 263.52 2217.26 262.362 Q2219.34 261.205 2222.05 261.205 Q2226.52 261.205 2228.81 263.983 Q2231.1 266.737 2231.1 272.108 Z" fill="#000000" fill-rule="nonzero" fill-opacity="1"></path><path clip-path="url(#clip180)" d="M2256.66 274.492 Q2256.66 269.862 2254.74 267.316 Q2252.84 264.77 2249.39 264.77 Q2245.96 264.77 2244.04 267.316 Q2242.14 269.862 2242.14 274.492 Q2242.14 279.098 2244.04 281.645 Q2245.96 284.191 2249.39 284.191 Q2252.84 284.191 2254.74 281.645 Q2256.66 279.098 2256.66 274.492 M2260.92 284.538 Q2260.92 291.158 2257.98 294.376 Q2255.04 297.617 2248.97 297.617 Q2246.73 297.617 2244.74 297.27 Q2242.75 296.945 2240.87 296.251 L2240.87 292.108 Q2242.75 293.126 2244.57 293.612 Q2246.4 294.098 2248.3 294.098 Q2252.49 294.098 2254.57 291.899 Q2256.66 289.723 2256.66 285.302 L2256.66 283.196 Q2255.34 285.487 2253.28 286.621 Q2251.22 287.756 2248.35 287.756 Q2243.58 287.756 2240.66 284.121 Q2237.75 280.487 2237.75 274.492 Q2237.75 268.473 2240.66 264.839 Q2243.58 261.205 2248.35 261.205 Q2251.22 261.205 2253.28 262.339 Q2255.34 263.473 2256.66 265.765 L2256.66 261.83 L2260.92 261.83 L2260.92 284.538 Z" fill="#000000" fill-rule="nonzero" fill-opacity="1"></path><polyline clip-path="url(#clip180)" style="stroke:#3da44d; stroke-linecap:round; stroke-linejoin:round; stroke-width:4; stroke-opacity:1; fill:none" points="1641.33,322.316 1779.09,322.316 "></polyline>
<path clip-path="url(#clip180)" d="M1806.73 323.091 L1806.73 335.753 L1814.23 335.753 Q1818 335.753 1819.81 334.202 Q1821.64 332.628 1821.64 329.411 Q1821.64 326.17 1819.81 324.642 Q1818 323.091 1814.23 323.091 L1806.73 323.091 M1806.73 308.878 L1806.73 319.295 L1813.65 319.295 Q1817.08 319.295 1818.74 318.022 Q1820.43 316.725 1820.43 314.087 Q1820.43 311.471 1818.74 310.175 Q1817.08 308.878 1813.65 308.878 L1806.73 308.878 M1802.05 305.036 L1814 305.036 Q1819.34 305.036 1822.24 307.258 Q1825.13 309.48 1825.13 313.577 Q1825.13 316.749 1823.65 318.624 Q1822.17 320.499 1819.3 320.962 Q1822.75 321.702 1824.65 324.063 Q1826.57 326.401 1826.57 329.92 Q1826.57 334.549 1823.42 337.073 Q1820.27 339.596 1814.46 339.596 L1802.05 339.596 L1802.05 305.036 Z" fill="#000000" fill-rule="nonzero" fill-opacity="1"></path><path clip-path="url(#clip180)" d="M1846.17 326.563 Q1841.01 326.563 1839.02 327.744 Q1837.03 328.924 1837.03 331.772 Q1837.03 334.04 1838.51 335.383 Q1840.02 336.702 1842.59 336.702 Q1846.13 336.702 1848.26 334.202 Q1850.41 331.679 1850.41 327.512 L1850.41 326.563 L1846.17 326.563 M1854.67 324.804 L1854.67 339.596 L1850.41 339.596 L1850.41 335.661 Q1848.95 338.022 1846.78 339.156 Q1844.6 340.267 1841.45 340.267 Q1837.47 340.267 1835.11 338.045 Q1832.77 335.799 1832.77 332.049 Q1832.77 327.674 1835.69 325.452 Q1838.63 323.23 1844.44 323.23 L1850.41 323.23 L1850.41 322.813 Q1850.41 319.874 1848.47 318.276 Q1846.54 316.656 1843.05 316.656 Q1840.83 316.656 1838.72 317.188 Q1836.61 317.721 1834.67 318.786 L1834.67 314.85 Q1837.01 313.948 1839.21 313.508 Q1841.4 313.045 1843.49 313.045 Q1849.11 313.045 1851.89 315.962 Q1854.67 318.878 1854.67 324.804 Z" fill="#000000" fill-rule="nonzero" fill-opacity="1"></path><path clip-path="url(#clip180)" d="M1878.46 317.651 Q1877.75 317.235 1876.89 317.05 Q1876.06 316.841 1875.04 316.841 Q1871.43 316.841 1869.48 319.202 Q1867.56 321.54 1867.56 325.938 L1867.56 339.596 L1863.28 339.596 L1863.28 313.67 L1867.56 313.67 L1867.56 317.698 Q1868.9 315.337 1871.06 314.202 Q1873.21 313.045 1876.29 313.045 Q1876.73 313.045 1877.26 313.114 Q1877.79 313.161 1878.44 313.276 L1878.46 317.651 Z" fill="#000000" fill-rule="nonzero" fill-opacity="1"></path><path clip-path="url(#clip180)" d="M1899.51 323.392 Q1901.01 323.901 1902.42 325.568 Q1903.86 327.235 1905.29 330.151 L1910.04 339.596 L1905.02 339.596 L1900.59 330.73 Q1898.88 327.258 1897.26 326.124 Q1895.66 324.989 1892.89 324.989 L1887.79 324.989 L1887.79 339.596 L1883.12 339.596 L1883.12 305.036 L1893.67 305.036 Q1899.6 305.036 1902.52 307.513 Q1905.43 309.989 1905.43 314.989 Q1905.43 318.253 1903.9 320.406 Q1902.4 322.559 1899.51 323.392 M1887.79 308.878 L1887.79 321.147 L1893.67 321.147 Q1897.05 321.147 1898.77 319.596 Q1900.5 318.022 1900.5 314.989 Q1900.5 311.957 1898.77 310.429 Q1897.05 308.878 1893.67 308.878 L1887.79 308.878 Z" fill="#000000" fill-rule="nonzero" fill-opacity="1"></path><path clip-path="url(#clip180)" d="M1926.61 326.563 Q1921.45 326.563 1919.46 327.744 Q1917.47 328.924 1917.47 331.772 Q1917.47 334.04 1918.95 335.383 Q1920.46 336.702 1923.02 336.702 Q1926.57 336.702 1928.7 334.202 Q1930.85 331.679 1930.85 327.512 L1930.85 326.563 L1926.61 326.563 M1935.11 324.804 L1935.11 339.596 L1930.85 339.596 L1930.85 335.661 Q1929.39 338.022 1927.21 339.156 Q1925.04 340.267 1921.89 340.267 Q1917.91 340.267 1915.55 338.045 Q1913.21 335.799 1913.21 332.049 Q1913.21 327.674 1916.13 325.452 Q1919.07 323.23 1924.88 323.23 L1930.85 323.23 L1930.85 322.813 Q1930.85 319.874 1928.9 318.276 Q1926.98 316.656 1923.49 316.656 Q1921.27 316.656 1919.16 317.188 Q1917.05 317.721 1915.11 318.786 L1915.11 314.85 Q1917.45 313.948 1919.65 313.508 Q1921.84 313.045 1923.93 313.045 Q1929.55 313.045 1932.33 315.962 Q1935.11 318.878 1935.11 324.804 Z" fill="#000000" fill-rule="nonzero" fill-opacity="1"></path><path clip-path="url(#clip180)" d="M1948.09 306.309 L1948.09 313.67 L1956.87 313.67 L1956.87 316.98 L1948.09 316.98 L1948.09 331.054 Q1948.09 334.225 1948.95 335.128 Q1949.83 336.031 1952.49 336.031 L1956.87 336.031 L1956.87 339.596 L1952.49 339.596 Q1947.56 339.596 1945.69 337.767 Q1943.81 335.915 1943.81 331.054 L1943.81 316.98 L1940.69 316.98 L1940.69 313.67 L1943.81 313.67 L1943.81 306.309 L1948.09 306.309 Z" fill="#000000" fill-rule="nonzero" fill-opacity="1"></path></svg>